<?xml version="1.0" encoding="utf-8" standalone="no"?>
<!DOCTYPE svg PUBLIC "-//W3C//DTD SVG 1.1//EN"
  "http://www.w3.org/Graphics/SVG/1.1/DTD/svg11.dtd">
<svg xmlns:xlink="http://www.w3.org/1999/xlink" width="460.8pt" height="345.6pt" viewBox="0 0 460.8 345.6" xmlns="http://www.w3.org/2000/svg" version="1.1">
 <metadata>
  <rdf:RDF xmlns:dc="http://purl.org/dc/elements/1.1/" xmlns:cc="http://creativecommons.org/ns#" xmlns:rdf="http://www.w3.org/1999/02/22-rdf-syntax-ns#">
   <cc:Work>
    <dc:type rdf:resource="http://purl.org/dc/dcmitype/StillImage"/>
    <dc:date>2024-12-22T18:31:01.148378</dc:date>
    <dc:format>image/svg+xml</dc:format>
    <dc:creator>
     <cc:Agent>
      <dc:title>Matplotlib v3.8.3, https://matplotlib.org/</dc:title>
     </cc:Agent>
    </dc:creator>
   </cc:Work>
  </rdf:RDF>
 </metadata>
 <defs>
  <style type="text/css">*{stroke-linejoin: round; stroke-linecap: butt}</style>
 </defs>
 <g id="figure_1">
  <g id="patch_1">
   <path d="M 0 345.6 
L 460.8 345.6 
L 460.8 0 
L 0 0 
z
" style="fill: #ffffff"/>
  </g>
  <g id="axes_1">
   <g id="patch_2">
    <path d="M 55.69 317.72 
L 450 317.72 
L 450 10.8 
L 55.69 10.8 
z
" style="fill: #ffffff"/>
   </g>
   <g id="patch_3">
    <path d="M 73.613182 317.72 
L 77.197818 317.72 
L 77.197818 287.641103 
L 73.613182 287.641103 
z
" clip-path="url(#p192268de85)" style="fill: #1f77b4"/>
   </g>
   <g id="patch_4">
    <path d="M 77.197818 317.72 
L 80.782455 317.72 
L 80.782455 268.556893 
L 77.197818 268.556893 
z
" clip-path="url(#p192268de85)" style="fill: #1f77b4"/>
   </g>
   <g id="patch_5">
    <path d="M 80.782455 317.72 
L 84.367091 317.72 
L 84.367091 205.906041 
L 80.782455 205.906041 
z
" clip-path="url(#p192268de85)" style="fill: #1f77b4"/>
   </g>
   <g id="patch_6">
    <path d="M 84.367091 317.72 
L 87.951727 317.72 
L 87.951727 135.155453 
L 84.367091 135.155453 
z
" clip-path="url(#p192268de85)" style="fill: #1f77b4"/>
   </g>
   <g id="patch_7">
    <path d="M 87.951727 317.72 
L 91.536364 317.72 
L 91.536364 77.250423 
L 87.951727 77.250423 
z
" clip-path="url(#p192268de85)" style="fill: #1f77b4"/>
   </g>
   <g id="patch_8">
    <path d="M 91.536364 317.72 
L 95.121 317.72 
L 95.121 38.866338 
L 91.536364 38.866338 
z
" clip-path="url(#p192268de85)" style="fill: #1f77b4"/>
   </g>
   <g id="patch_9">
    <path d="M 95.121 317.72 
L 98.705636 317.72 
L 98.705636 25.415238 
L 95.121 25.415238 
z
" clip-path="url(#p192268de85)" style="fill: #1f77b4"/>
   </g>
   <g id="patch_10">
    <path d="M 98.705636 317.72 
L 102.290273 317.72 
L 102.290273 27.114122 
L 98.705636 27.114122 
z
" clip-path="url(#p192268de85)" style="fill: #1f77b4"/>
   </g>
   <g id="patch_11">
    <path d="M 102.290273 317.72 
L 105.874909 317.72 
L 105.874909 38.388152 
L 102.290273 38.388152 
z
" clip-path="url(#p192268de85)" style="fill: #1f77b4"/>
   </g>
   <g id="patch_12">
    <path d="M 105.874909 317.72 
L 109.459545 317.72 
L 109.459545 55.128887 
L 105.874909 55.128887 
z
" clip-path="url(#p192268de85)" style="fill: #1f77b4"/>
   </g>
   <g id="patch_13">
    <path d="M 109.459545 317.72 
L 113.044182 317.72 
L 113.044182 76.22917 
L 109.459545 76.22917 
z
" clip-path="url(#p192268de85)" style="fill: #1f77b4"/>
   </g>
   <g id="patch_14">
    <path d="M 113.044182 317.72 
L 116.628818 317.72 
L 116.628818 98.350706 
L 113.044182 98.350706 
z
" clip-path="url(#p192268de85)" style="fill: #1f77b4"/>
   </g>
   <g id="patch_15">
    <path d="M 116.628818 317.72 
L 120.213455 317.72 
L 120.213455 119.994055 
L 116.628818 119.994055 
z
" clip-path="url(#p192268de85)" style="fill: #1f77b4"/>
   </g>
   <g id="patch_16">
    <path d="M 120.213455 317.72 
L 123.798091 317.72 
L 123.798091 139.712043 
L 120.213455 139.712043 
z
" clip-path="url(#p192268de85)" style="fill: #1f77b4"/>
   </g>
   <g id="patch_17">
    <path d="M 123.798091 317.72 
L 127.382727 317.72 
L 127.382727 158.895975 
L 123.798091 158.895975 
z
" clip-path="url(#p192268de85)" style="fill: #1f77b4"/>
   </g>
   <g id="patch_18">
    <path d="M 127.382727 317.72 
L 130.967364 317.72 
L 130.967364 177.420298 
L 127.382727 177.420298 
z
" clip-path="url(#p192268de85)" style="fill: #1f77b4"/>
   </g>
   <g id="patch_19">
    <path d="M 130.967364 317.72 
L 134.552 317.72 
L 134.552 192.433915 
L 130.967364 192.433915 
z
" clip-path="url(#p192268de85)" style="fill: #1f77b4"/>
   </g>
   <g id="patch_20">
    <path d="M 134.552 317.72 
L 138.136636 317.72 
L 138.136636 206.268285 
L 134.552 206.268285 
z
" clip-path="url(#p192268de85)" style="fill: #1f77b4"/>
   </g>
   <g id="patch_21">
    <path d="M 138.136636 317.72 
L 141.721273 317.72 
L 141.721273 218.595407 
L 138.136636 218.595407 
z
" clip-path="url(#p192268de85)" style="fill: #1f77b4"/>
   </g>
   <g id="patch_22">
    <path d="M 141.721273 317.72 
L 145.305909 317.72 
L 145.305909 229.925305 
L 141.721273 229.925305 
z
" clip-path="url(#p192268de85)" style="fill: #1f77b4"/>
   </g>
   <g id="patch_23">
    <path d="M 145.305909 317.72 
L 148.890545 317.72 
L 148.890545 239.504055 
L 145.305909 239.504055 
z
" clip-path="url(#p192268de85)" style="fill: #1f77b4"/>
   </g>
   <g id="patch_24">
    <path d="M 148.890545 317.72 
L 152.475182 317.72 
L 152.475182 247.963632 
L 148.890545 247.963632 
z
" clip-path="url(#p192268de85)" style="fill: #1f77b4"/>
   </g>
   <g id="patch_25">
    <path d="M 152.475182 317.72 
L 156.059818 317.72 
L 156.059818 255.505884 
L 152.475182 255.505884 
z
" clip-path="url(#p192268de85)" style="fill: #1f77b4"/>
   </g>
   <g id="patch_26">
    <path d="M 156.059818 317.72 
L 159.644455 317.72 
L 159.644455 261.683862 
L 156.059818 261.683862 
z
" clip-path="url(#p192268de85)" style="fill: #1f77b4"/>
   </g>
   <g id="patch_27">
    <path d="M 159.644455 317.72 
L 163.229091 317.72 
L 163.229091 267.768125 
L 159.644455 267.768125 
z
" clip-path="url(#p192268de85)" style="fill: #1f77b4"/>
   </g>
   <g id="patch_28">
    <path d="M 163.229091 317.72 
L 166.813727 317.72 
L 166.813727 273.303916 
L 163.229091 273.303916 
z
" clip-path="url(#p192268de85)" style="fill: #1f77b4"/>
   </g>
   <g id="patch_29">
    <path d="M 166.813727 317.72 
L 170.398364 317.72 
L 170.398364 277.43999 
L 166.813727 277.43999 
z
" clip-path="url(#p192268de85)" style="fill: #1f77b4"/>
   </g>
   <g id="patch_30">
    <path d="M 170.398364 317.72 
L 173.983 317.72 
L 173.983 281.477542 
L 170.398364 281.477542 
z
" clip-path="url(#p192268de85)" style="fill: #1f77b4"/>
   </g>
   <g id="patch_31">
    <path d="M 173.983 317.72 
L 177.567636 317.72 
L 177.567636 285.283811 
L 173.983 285.283811 
z
" clip-path="url(#p192268de85)" style="fill: #1f77b4"/>
   </g>
   <g id="patch_32">
    <path d="M 177.567636 317.72 
L 181.152273 317.72 
L 181.152273 287.893413 
L 177.567636 287.893413 
z
" clip-path="url(#p192268de85)" style="fill: #1f77b4"/>
   </g>
   <g id="patch_33">
    <path d="M 181.152273 317.72 
L 184.736909 317.72 
L 184.736909 290.976995 
L 181.152273 290.976995 
z
" clip-path="url(#p192268de85)" style="fill: #1f77b4"/>
   </g>
   <g id="patch_34">
    <path d="M 184.736909 317.72 
L 188.321545 317.72 
L 188.321545 293.33729 
L 184.736909 293.33729 
z
" clip-path="url(#p192268de85)" style="fill: #1f77b4"/>
   </g>
   <g id="patch_35">
    <path d="M 188.321545 317.72 
L 191.906182 317.72 
L 191.906182 295.200776 
L 188.321545 295.200776 
z
" clip-path="url(#p192268de85)" style="fill: #1f77b4"/>
   </g>
   <g id="patch_36">
    <path d="M 191.906182 317.72 
L 195.490818 317.72 
L 195.490818 297.34 
L 191.906182 297.34 
z
" clip-path="url(#p192268de85)" style="fill: #1f77b4"/>
   </g>
   <g id="patch_37">
    <path d="M 195.490818 317.72 
L 199.075455 317.72 
L 199.075455 299.197479 
L 195.490818 299.197479 
z
" clip-path="url(#p192268de85)" style="fill: #1f77b4"/>
   </g>
   <g id="patch_38">
    <path d="M 199.075455 317.72 
L 202.660091 317.72 
L 202.660091 300.848304 
L 199.075455 300.848304 
z
" clip-path="url(#p192268de85)" style="fill: #1f77b4"/>
   </g>
   <g id="patch_39">
    <path d="M 202.660091 317.72 
L 206.244727 317.72 
L 206.244727 302.005323 
L 202.660091 302.005323 
z
" clip-path="url(#p192268de85)" style="fill: #1f77b4"/>
   </g>
   <g id="patch_40">
    <path d="M 206.244727 317.72 
L 209.829364 317.72 
L 209.829364 303.25846 
L 206.244727 303.25846 
z
" clip-path="url(#p192268de85)" style="fill: #1f77b4"/>
   </g>
   <g id="patch_41">
    <path d="M 209.829364 317.72 
L 213.414 317.72 
L 213.414 304.450322 
L 209.829364 304.450322 
z
" clip-path="url(#p192268de85)" style="fill: #1f77b4"/>
   </g>
   <g id="patch_42">
    <path d="M 213.414 317.72 
L 216.998636 317.72 
L 216.998636 305.243295 
L 213.414 305.243295 
z
" clip-path="url(#p192268de85)" style="fill: #1f77b4"/>
   </g>
   <g id="patch_43">
    <path d="M 216.998636 317.72 
L 220.583273 317.72 
L 220.583273 306.253134 
L 216.998636 306.253134 
z
" clip-path="url(#p192268de85)" style="fill: #1f77b4"/>
   </g>
   <g id="patch_44">
    <path d="M 220.583273 317.72 
L 224.167909 317.72 
L 224.167909 307.226928 
L 220.583273 307.226928 
z
" clip-path="url(#p192268de85)" style="fill: #1f77b4"/>
   </g>
   <g id="patch_45">
    <path d="M 224.167909 317.72 
L 227.752545 317.72 
L 227.752545 308.107609 
L 224.167909 308.107609 
z
" clip-path="url(#p192268de85)" style="fill: #1f77b4"/>
   </g>
   <g id="patch_46">
    <path d="M 227.752545 317.72 
L 231.337182 317.72 
L 231.337182 308.59781 
L 227.752545 308.59781 
z
" clip-path="url(#p192268de85)" style="fill: #1f77b4"/>
   </g>
   <g id="patch_47">
    <path d="M 231.337182 317.72 
L 234.921818 317.72 
L 234.921818 309.196745 
L 231.337182 309.196745 
z
" clip-path="url(#p192268de85)" style="fill: #1f77b4"/>
   </g>
   <g id="patch_48">
    <path d="M 234.921818 317.72 
L 238.506455 317.72 
L 238.506455 309.849746 
L 234.921818 309.849746 
z
" clip-path="url(#p192268de85)" style="fill: #1f77b4"/>
   </g>
   <g id="patch_49">
    <path d="M 238.506455 317.72 
L 242.091091 317.72 
L 242.091091 310.338145 
L 238.506455 310.338145 
z
" clip-path="url(#p192268de85)" style="fill: #1f77b4"/>
   </g>
   <g id="patch_50">
    <path d="M 242.091091 317.72 
L 245.675727 317.72 
L 245.675727 310.739437 
L 242.091091 310.739437 
z
" clip-path="url(#p192268de85)" style="fill: #1f77b4"/>
   </g>
   <g id="patch_51">
    <path d="M 245.675727 317.72 
L 249.260364 317.72 
L 249.260364 311.397845 
L 245.675727 311.397845 
z
" clip-path="url(#p192268de85)" style="fill: #1f77b4"/>
   </g>
   <g id="patch_52">
    <path d="M 249.260364 317.72 
L 252.845 317.72 
L 252.845 311.807547 
L 249.260364 311.807547 
z
" clip-path="url(#p192268de85)" style="fill: #1f77b4"/>
   </g>
   <g id="patch_53">
    <path d="M 252.845 317.72 
L 256.429636 317.72 
L 256.429636 312.118729 
L 252.845 312.118729 
z
" clip-path="url(#p192268de85)" style="fill: #1f77b4"/>
   </g>
   <g id="patch_54">
    <path d="M 256.429636 317.72 
L 260.014273 317.72 
L 260.014273 312.550659 
L 256.429636 312.550659 
z
" clip-path="url(#p192268de85)" style="fill: #1f77b4"/>
   </g>
   <g id="patch_55">
    <path d="M 260.014273 317.72 
L 263.598909 317.72 
L 263.598909 312.898486 
L 260.014273 312.898486 
z
" clip-path="url(#p192268de85)" style="fill: #1f77b4"/>
   </g>
   <g id="patch_56">
    <path d="M 263.598909 317.72 
L 267.183545 317.72 
L 267.183545 313.199455 
L 263.598909 313.199455 
z
" clip-path="url(#p192268de85)" style="fill: #1f77b4"/>
   </g>
   <g id="patch_57">
    <path d="M 267.183545 317.72 
L 270.768182 317.72 
L 270.768182 313.335822 
L 267.183545 313.335822 
z
" clip-path="url(#p192268de85)" style="fill: #1f77b4"/>
   </g>
   <g id="patch_58">
    <path d="M 270.768182 317.72 
L 274.352818 317.72 
L 274.352818 313.809803 
L 270.768182 313.809803 
z
" clip-path="url(#p192268de85)" style="fill: #1f77b4"/>
   </g>
   <g id="patch_59">
    <path d="M 274.352818 317.72 
L 277.937455 317.72 
L 277.937455 313.911929 
L 274.352818 313.911929 
z
" clip-path="url(#p192268de85)" style="fill: #1f77b4"/>
   </g>
   <g id="patch_60">
    <path d="M 277.937455 317.72 
L 281.522091 317.72 
L 281.522091 314.217103 
L 277.937455 314.217103 
z
" clip-path="url(#p192268de85)" style="fill: #1f77b4"/>
   </g>
   <g id="patch_61">
    <path d="M 281.522091 317.72 
L 285.106727 317.72 
L 285.106727 314.427962 
L 281.522091 314.427962 
z
" clip-path="url(#p192268de85)" style="fill: #1f77b4"/>
   </g>
   <g id="patch_62">
    <path d="M 285.106727 317.72 
L 288.691364 317.72 
L 288.691364 314.594967 
L 285.106727 314.594967 
z
" clip-path="url(#p192268de85)" style="fill: #1f77b4"/>
   </g>
   <g id="patch_63">
    <path d="M 288.691364 317.72 
L 292.276 317.72 
L 292.276 314.775188 
L 288.691364 314.775188 
z
" clip-path="url(#p192268de85)" style="fill: #1f77b4"/>
   </g>
   <g id="patch_64">
    <path d="M 292.276 317.72 
L 295.860636 317.72 
L 295.860636 314.892331 
L 292.276 314.892331 
z
" clip-path="url(#p192268de85)" style="fill: #1f77b4"/>
   </g>
   <g id="patch_65">
    <path d="M 295.860636 317.72 
L 299.445273 317.72 
L 299.445273 315.034706 
L 295.860636 315.034706 
z
" clip-path="url(#p192268de85)" style="fill: #1f77b4"/>
   </g>
   <g id="patch_66">
    <path d="M 299.445273 317.72 
L 303.029909 317.72 
L 303.029909 315.201711 
L 299.445273 315.201711 
z
" clip-path="url(#p192268de85)" style="fill: #1f77b4"/>
   </g>
   <g id="patch_67">
    <path d="M 303.029909 317.72 
L 306.614545 317.72 
L 306.614545 315.337477 
L 303.029909 315.337477 
z
" clip-path="url(#p192268de85)" style="fill: #1f77b4"/>
   </g>
   <g id="patch_68">
    <path d="M 306.614545 317.72 
L 310.199182 317.72 
L 310.199182 315.524307 
L 306.614545 315.524307 
z
" clip-path="url(#p192268de85)" style="fill: #1f77b4"/>
   </g>
   <g id="patch_69">
    <path d="M 310.199182 317.72 
L 313.783818 317.72 
L 313.783818 315.664278 
L 310.199182 315.664278 
z
" clip-path="url(#p192268de85)" style="fill: #1f77b4"/>
   </g>
   <g id="patch_70">
    <path d="M 313.783818 317.72 
L 317.368455 317.72 
L 317.368455 315.72255 
L 313.783818 315.72255 
z
" clip-path="url(#p192268de85)" style="fill: #1f77b4"/>
   </g>
   <g id="patch_71">
    <path d="M 317.368455 317.72 
L 320.953091 317.72 
L 320.953091 315.82888 
L 317.368455 315.82888 
z
" clip-path="url(#p192268de85)" style="fill: #1f77b4"/>
   </g>
   <g id="patch_72">
    <path d="M 320.953091 317.72 
L 324.537727 317.72 
L 324.537727 315.940017 
L 320.953091 315.940017 
z
" clip-path="url(#p192268de85)" style="fill: #1f77b4"/>
   </g>
   <g id="patch_73">
    <path d="M 324.537727 317.72 
L 328.122364 317.72 
L 328.122364 315.994684 
L 324.537727 315.994684 
z
" clip-path="url(#p192268de85)" style="fill: #1f77b4"/>
   </g>
   <g id="patch_74">
    <path d="M 328.122364 317.72 
L 331.707 317.72 
L 331.707 316.117835 
L 328.122364 316.117835 
z
" clip-path="url(#p192268de85)" style="fill: #1f77b4"/>
   </g>
   <g id="patch_75">
    <path d="M 331.707 317.72 
L 335.291636 317.72 
L 335.291636 316.21215 
L 331.707 316.21215 
z
" clip-path="url(#p192268de85)" style="fill: #1f77b4"/>
   </g>
   <g id="patch_76">
    <path d="M 335.291636 317.72 
L 338.876273 317.72 
L 338.876273 316.336503 
L 335.291636 316.336503 
z
" clip-path="url(#p192268de85)" style="fill: #1f77b4"/>
   </g>
   <g id="patch_77">
    <path d="M 338.876273 317.72 
L 342.460909 317.72 
L 342.460909 316.337104 
L 338.876273 316.337104 
z
" clip-path="url(#p192268de85)" style="fill: #1f77b4"/>
   </g>
   <g id="patch_78">
    <path d="M 342.460909 317.72 
L 346.045545 317.72 
L 346.045545 316.447038 
L 342.460909 316.447038 
z
" clip-path="url(#p192268de85)" style="fill: #1f77b4"/>
   </g>
   <g id="patch_79">
    <path d="M 346.045545 317.72 
L 349.630182 317.72 
L 349.630182 316.493896 
L 346.045545 316.493896 
z
" clip-path="url(#p192268de85)" style="fill: #1f77b4"/>
   </g>
   <g id="patch_80">
    <path d="M 349.630182 317.72 
L 353.214818 317.72 
L 353.214818 316.614644 
L 349.630182 316.614644 
z
" clip-path="url(#p192268de85)" style="fill: #1f77b4"/>
   </g>
   <g id="patch_81">
    <path d="M 353.214818 317.72 
L 356.799455 317.72 
L 356.799455 316.59482 
L 353.214818 316.59482 
z
" clip-path="url(#p192268de85)" style="fill: #1f77b4"/>
   </g>
   <g id="patch_82">
    <path d="M 356.799455 317.72 
L 360.384091 317.72 
L 360.384091 316.629663 
L 356.799455 316.629663 
z
" clip-path="url(#p192268de85)" style="fill: #1f77b4"/>
   </g>
   <g id="patch_83">
    <path d="M 360.384091 317.72 
L 363.968727 317.72 
L 363.968727 316.707158 
L 360.384091 316.707158 
z
" clip-path="url(#p192268de85)" style="fill: #1f77b4"/>
   </g>
   <g id="patch_84">
    <path d="M 363.968727 317.72 
L 367.553364 317.72 
L 367.553364 316.794865 
L 363.968727 316.794865 
z
" clip-path="url(#p192268de85)" style="fill: #1f77b4"/>
   </g>
   <g id="patch_85">
    <path d="M 367.553364 317.72 
L 371.138 317.72 
L 371.138 316.78225 
L 367.553364 316.78225 
z
" clip-path="url(#p192268de85)" style="fill: #1f77b4"/>
   </g>
   <g id="patch_86">
    <path d="M 371.138 317.72 
L 374.722636 317.72 
L 374.722636 316.898192 
L 371.138 316.898192 
z
" clip-path="url(#p192268de85)" style="fill: #1f77b4"/>
   </g>
   <g id="patch_87">
    <path d="M 374.722636 317.72 
L 378.307273 317.72 
L 378.307273 316.960068 
L 374.722636 316.960068 
z
" clip-path="url(#p192268de85)" style="fill: #1f77b4"/>
   </g>
   <g id="patch_88">
    <path d="M 378.307273 317.72 
L 381.891909 317.72 
L 381.891909 316.96187 
L 378.307273 316.96187 
z
" clip-path="url(#p192268de85)" style="fill: #1f77b4"/>
   </g>
   <g id="patch_89">
    <path d="M 381.891909 317.72 
L 385.476545 317.72 
L 385.476545 316.983497 
L 381.891909 316.983497 
z
" clip-path="url(#p192268de85)" style="fill: #1f77b4"/>
   </g>
   <g id="patch_90">
    <path d="M 385.476545 317.72 
L 389.061182 317.72 
L 389.061182 317.042369 
L 385.476545 317.042369 
z
" clip-path="url(#p192268de85)" style="fill: #1f77b4"/>
   </g>
   <g id="patch_91">
    <path d="M 389.061182 317.72 
L 392.645818 317.72 
L 392.645818 317.069402 
L 389.061182 317.069402 
z
" clip-path="url(#p192268de85)" style="fill: #1f77b4"/>
   </g>
   <g id="patch_92">
    <path d="M 392.645818 317.72 
L 396.230455 317.72 
L 396.230455 317.124069 
L 392.645818 317.124069 
z
" clip-path="url(#p192268de85)" style="fill: #1f77b4"/>
   </g>
   <g id="patch_93">
    <path d="M 396.230455 317.72 
L 399.815091 317.72 
L 399.815091 317.142091 
L 396.230455 317.142091 
z
" clip-path="url(#p192268de85)" style="fill: #1f77b4"/>
   </g>
   <g id="patch_94">
    <path d="M 399.815091 317.72 
L 403.399727 317.72 
L 403.399727 317.167322 
L 399.815091 317.167322 
z
" clip-path="url(#p192268de85)" style="fill: #1f77b4"/>
   </g>
   <g id="patch_95">
    <path d="M 403.399727 317.72 
L 406.984364 317.72 
L 406.984364 317.202165 
L 403.399727 317.202165 
z
" clip-path="url(#p192268de85)" style="fill: #1f77b4"/>
   </g>
   <g id="patch_96">
    <path d="M 406.984364 317.72 
L 410.569 317.72 
L 410.569 317.233403 
L 406.984364 317.233403 
z
" clip-path="url(#p192268de85)" style="fill: #1f77b4"/>
   </g>
   <g id="patch_97">
    <path d="M 410.569 317.72 
L 414.153636 317.72 
L 414.153636 317.251425 
L 410.569 317.251425 
z
" clip-path="url(#p192268de85)" style="fill: #1f77b4"/>
   </g>
   <g id="patch_98">
    <path d="M 414.153636 317.72 
L 417.738273 317.72 
L 417.738273 317.251425 
L 414.153636 317.251425 
z
" clip-path="url(#p192268de85)" style="fill: #1f77b4"/>
   </g>
   <g id="patch_99">
    <path d="M 417.738273 317.72 
L 421.322909 317.72 
L 421.322909 317.294678 
L 417.738273 317.294678 
z
" clip-path="url(#p192268de85)" style="fill: #1f77b4"/>
   </g>
   <g id="patch_100">
    <path d="M 421.322909 317.72 
L 424.907545 317.72 
L 424.907545 317.264041 
L 421.322909 317.264041 
z
" clip-path="url(#p192268de85)" style="fill: #1f77b4"/>
   </g>
   <g id="patch_101">
    <path d="M 424.907545 317.72 
L 428.492182 317.72 
L 428.492182 317.322312 
L 424.907545 317.322312 
z
" clip-path="url(#p192268de85)" style="fill: #1f77b4"/>
   </g>
   <g id="patch_102">
    <path d="M 428.492182 317.72 
L 432.076818 317.72 
L 432.076818 308.129235 
L 428.492182 308.129235 
z
" clip-path="url(#p192268de85)" style="fill: #1f77b4"/>
   </g>
   <g id="matplotlib.axis_1">
    <g id="xtick_1">
     <g id="line2d_1">
      <defs>
       <path id="m3e832d8438" d="M 0 0 
L 0 3.5 
" style="stroke: #000000; stroke-width: 0.8"/>
      </defs>
      <g>
       <use xlink:href="#m3e832d8438" x="64.421807" y="317.72" style="stroke: #000000; stroke-width: 0.8"/>
      </g>
     </g>
     <g id="text_1">
      <!-- 0.00 -->
      <g transform="translate(53.288994 332.318437) scale(0.1 -0.1)">
       <defs>
        <path id="DejaVuSans-30" d="M 2034 4250 
Q 1547 4250 1301 3770 
Q 1056 3291 1056 2328 
Q 1056 1369 1301 889 
Q 1547 409 2034 409 
Q 2525 409 2770 889 
Q 3016 1369 3016 2328 
Q 3016 3291 2770 3770 
Q 2525 4250 2034 4250 
z
M 2034 4750 
Q 2819 4750 3233 4129 
Q 3647 3509 3647 2328 
Q 3647 1150 3233 529 
Q 2819 -91 2034 -91 
Q 1250 -91 836 529 
Q 422 1150 422 2328 
Q 422 3509 836 4129 
Q 1250 4750 2034 4750 
z
" transform="scale(0.015625)"/>
        <path id="DejaVuSans-2e" d="M 684 794 
L 1344 794 
L 1344 0 
L 684 0 
L 684 794 
z
" transform="scale(0.015625)"/>
       </defs>
       <use xlink:href="#DejaVuSans-30"/>
       <use xlink:href="#DejaVuSans-2e" x="63.623047"/>
       <use xlink:href="#DejaVuSans-30" x="95.410156"/>
       <use xlink:href="#DejaVuSans-30" x="159.033203"/>
      </g>
     </g>
    </g>
    <g id="xtick_2">
     <g id="line2d_2">
      <g>
       <use xlink:href="#m3e832d8438" x="110.378683" y="317.72" style="stroke: #000000; stroke-width: 0.8"/>
      </g>
     </g>
     <g id="text_2">
      <!-- 0.25 -->
      <g transform="translate(99.24587 332.318437) scale(0.1 -0.1)">
       <defs>
        <path id="DejaVuSans-32" d="M 1228 531 
L 3431 531 
L 3431 0 
L 469 0 
L 469 531 
Q 828 903 1448 1529 
Q 2069 2156 2228 2338 
Q 2531 2678 2651 2914 
Q 2772 3150 2772 3378 
Q 2772 3750 2511 3984 
Q 2250 4219 1831 4219 
Q 1534 4219 1204 4116 
Q 875 4013 500 3803 
L 500 4441 
Q 881 4594 1212 4672 
Q 1544 4750 1819 4750 
Q 2544 4750 2975 4387 
Q 3406 4025 3406 3419 
Q 3406 3131 3298 2873 
Q 3191 2616 2906 2266 
Q 2828 2175 2409 1742 
Q 1991 1309 1228 531 
z
" transform="scale(0.015625)"/>
        <path id="DejaVuSans-35" d="M 691 4666 
L 3169 4666 
L 3169 4134 
L 1269 4134 
L 1269 2991 
Q 1406 3038 1543 3061 
Q 1681 3084 1819 3084 
Q 2600 3084 3056 2656 
Q 3513 2228 3513 1497 
Q 3513 744 3044 326 
Q 2575 -91 1722 -91 
Q 1428 -91 1123 -41 
Q 819 9 494 109 
L 494 744 
Q 775 591 1075 516 
Q 1375 441 1709 441 
Q 2250 441 2565 725 
Q 2881 1009 2881 1497 
Q 2881 1984 2565 2268 
Q 2250 2553 1709 2553 
Q 1456 2553 1204 2497 
Q 953 2441 691 2322 
L 691 4666 
z
" transform="scale(0.015625)"/>
       </defs>
       <use xlink:href="#DejaVuSans-30"/>
       <use xlink:href="#DejaVuSans-2e" x="63.623047"/>
       <use xlink:href="#DejaVuSans-32" x="95.410156"/>
       <use xlink:href="#DejaVuSans-35" x="159.033203"/>
      </g>
     </g>
    </g>
    <g id="xtick_3">
     <g id="line2d_3">
      <g>
       <use xlink:href="#m3e832d8438" x="156.335559" y="317.72" style="stroke: #000000; stroke-width: 0.8"/>
      </g>
     </g>
     <g id="text_3">
      <!-- 0.50 -->
      <g transform="translate(145.202747 332.318437) scale(0.1 -0.1)">
       <use xlink:href="#DejaVuSans-30"/>
       <use xlink:href="#DejaVuSans-2e" x="63.623047"/>
       <use xlink:href="#DejaVuSans-35" x="95.410156"/>
       <use xlink:href="#DejaVuSans-30" x="159.033203"/>
      </g>
     </g>
    </g>
    <g id="xtick_4">
     <g id="line2d_4">
      <g>
       <use xlink:href="#m3e832d8438" x="202.292436" y="317.72" style="stroke: #000000; stroke-width: 0.8"/>
      </g>
     </g>
     <g id="text_4">
      <!-- 0.75 -->
      <g transform="translate(191.159623 332.318437) scale(0.1 -0.1)">
       <defs>
        <path id="DejaVuSans-37" d="M 525 4666 
L 3525 4666 
L 3525 4397 
L 1831 0 
L 1172 0 
L 2766 4134 
L 525 4134 
L 525 4666 
z
" transform="scale(0.015625)"/>
       </defs>
       <use xlink:href="#DejaVuSans-30"/>
       <use xlink:href="#DejaVuSans-2e" x="63.623047"/>
       <use xlink:href="#DejaVuSans-37" x="95.410156"/>
       <use xlink:href="#DejaVuSans-35" x="159.033203"/>
      </g>
     </g>
    </g>
    <g id="xtick_5">
     <g id="line2d_5">
      <g>
       <use xlink:href="#m3e832d8438" x="248.249312" y="317.72" style="stroke: #000000; stroke-width: 0.8"/>
      </g>
     </g>
     <g id="text_5">
      <!-- 1.00 -->
      <g transform="translate(237.1165 332.318437) scale(0.1 -0.1)">
       <defs>
        <path id="DejaVuSans-31" d="M 794 531 
L 1825 531 
L 1825 4091 
L 703 3866 
L 703 4441 
L 1819 4666 
L 2450 4666 
L 2450 531 
L 3481 531 
L 3481 0 
L 794 0 
L 794 531 
z
" transform="scale(0.015625)"/>
       </defs>
       <use xlink:href="#DejaVuSans-31"/>
       <use xlink:href="#DejaVuSans-2e" x="63.623047"/>
       <use xlink:href="#DejaVuSans-30" x="95.410156"/>
       <use xlink:href="#DejaVuSans-30" x="159.033203"/>
      </g>
     </g>
    </g>
    <g id="xtick_6">
     <g id="line2d_6">
      <g>
       <use xlink:href="#m3e832d8438" x="294.206189" y="317.72" style="stroke: #000000; stroke-width: 0.8"/>
      </g>
     </g>
     <g id="text_6">
      <!-- 1.25 -->
      <g transform="translate(283.073376 332.318437) scale(0.1 -0.1)">
       <use xlink:href="#DejaVuSans-31"/>
       <use xlink:href="#DejaVuSans-2e" x="63.623047"/>
       <use xlink:href="#DejaVuSans-32" x="95.410156"/>
       <use xlink:href="#DejaVuSans-35" x="159.033203"/>
      </g>
     </g>
    </g>
    <g id="xtick_7">
     <g id="line2d_7">
      <g>
       <use xlink:href="#m3e832d8438" x="340.163065" y="317.72" style="stroke: #000000; stroke-width: 0.8"/>
      </g>
     </g>
     <g id="text_7">
      <!-- 1.50 -->
      <g transform="translate(329.030253 332.318437) scale(0.1 -0.1)">
       <use xlink:href="#DejaVuSans-31"/>
       <use xlink:href="#DejaVuSans-2e" x="63.623047"/>
       <use xlink:href="#DejaVuSans-35" x="95.410156"/>
       <use xlink:href="#DejaVuSans-30" x="159.033203"/>
      </g>
     </g>
    </g>
    <g id="xtick_8">
     <g id="line2d_8">
      <g>
       <use xlink:href="#m3e832d8438" x="386.119942" y="317.72" style="stroke: #000000; stroke-width: 0.8"/>
      </g>
     </g>
     <g id="text_8">
      <!-- 1.75 -->
      <g transform="translate(374.987129 332.318437) scale(0.1 -0.1)">
       <use xlink:href="#DejaVuSans-31"/>
       <use xlink:href="#DejaVuSans-2e" x="63.623047"/>
       <use xlink:href="#DejaVuSans-37" x="95.410156"/>
       <use xlink:href="#DejaVuSans-35" x="159.033203"/>
      </g>
     </g>
    </g>
    <g id="xtick_9">
     <g id="line2d_9">
      <g>
       <use xlink:href="#m3e832d8438" x="432.076818" y="317.72" style="stroke: #000000; stroke-width: 0.8"/>
      </g>
     </g>
     <g id="text_9">
      <!-- 2.00 -->
      <g transform="translate(420.944006 332.318437) scale(0.1 -0.1)">
       <use xlink:href="#DejaVuSans-32"/>
       <use xlink:href="#DejaVuSans-2e" x="63.623047"/>
       <use xlink:href="#DejaVuSans-30" x="95.410156"/>
       <use xlink:href="#DejaVuSans-30" x="159.033203"/>
      </g>
     </g>
    </g>
   </g>
   <g id="matplotlib.axis_2">
    <g id="ytick_1">
     <g id="line2d_10">
      <path d="M 55.69 317.72 
L 450 317.72 
" clip-path="url(#p192268de85)" style="fill: none; stroke: #d3d3d3; stroke-width: 0.3; stroke-linecap: square"/>
     </g>
     <g id="line2d_11">
      <defs>
       <path id="m0e3d82ed66" d="M 0 0 
L -3.5 0 
" style="stroke: #000000; stroke-width: 0.8"/>
      </defs>
      <g>
       <use xlink:href="#m0e3d82ed66" x="55.69" y="317.72" style="stroke: #000000; stroke-width: 0.8"/>
      </g>
     </g>
     <g id="text_10">
      <!-- 0 -->
      <g transform="translate(42.3275 321.519219) scale(0.1 -0.1)">
       <use xlink:href="#DejaVuSans-30"/>
      </g>
     </g>
    </g>
    <g id="ytick_2">
     <g id="line2d_12">
      <path d="M 55.69 257.646309 
L 450 257.646309 
" clip-path="url(#p192268de85)" style="fill: none; stroke: #d3d3d3; stroke-width: 0.3; stroke-linecap: square"/>
     </g>
     <g id="line2d_13">
      <g>
       <use xlink:href="#m0e3d82ed66" x="55.69" y="257.646309" style="stroke: #000000; stroke-width: 0.8"/>
      </g>
     </g>
     <g id="text_11">
      <!-- 100000 -->
      <g transform="translate(10.515 261.445528) scale(0.1 -0.1)">
       <use xlink:href="#DejaVuSans-31"/>
       <use xlink:href="#DejaVuSans-30" x="63.623047"/>
       <use xlink:href="#DejaVuSans-30" x="127.246094"/>
       <use xlink:href="#DejaVuSans-30" x="190.869141"/>
       <use xlink:href="#DejaVuSans-30" x="254.492188"/>
       <use xlink:href="#DejaVuSans-30" x="318.115234"/>
      </g>
     </g>
    </g>
    <g id="ytick_3">
     <g id="line2d_14">
      <path d="M 55.69 197.572619 
L 450 197.572619 
" clip-path="url(#p192268de85)" style="fill: none; stroke: #d3d3d3; stroke-width: 0.3; stroke-linecap: square"/>
     </g>
     <g id="line2d_15">
      <g>
       <use xlink:href="#m0e3d82ed66" x="55.69" y="197.572619" style="stroke: #000000; stroke-width: 0.8"/>
      </g>
     </g>
     <g id="text_12">
      <!-- 200000 -->
      <g transform="translate(10.515 201.371837) scale(0.1 -0.1)">
       <use xlink:href="#DejaVuSans-32"/>
       <use xlink:href="#DejaVuSans-30" x="63.623047"/>
       <use xlink:href="#DejaVuSans-30" x="127.246094"/>
       <use xlink:href="#DejaVuSans-30" x="190.869141"/>
       <use xlink:href="#DejaVuSans-30" x="254.492188"/>
       <use xlink:href="#DejaVuSans-30" x="318.115234"/>
      </g>
     </g>
    </g>
    <g id="ytick_4">
     <g id="line2d_16">
      <path d="M 55.69 137.498928 
L 450 137.498928 
" clip-path="url(#p192268de85)" style="fill: none; stroke: #d3d3d3; stroke-width: 0.3; stroke-linecap: square"/>
     </g>
     <g id="line2d_17">
      <g>
       <use xlink:href="#m0e3d82ed66" x="55.69" y="137.498928" style="stroke: #000000; stroke-width: 0.8"/>
      </g>
     </g>
     <g id="text_13">
      <!-- 300000 -->
      <g transform="translate(10.515 141.298147) scale(0.1 -0.1)">
       <defs>
        <path id="DejaVuSans-33" d="M 2597 2516 
Q 3050 2419 3304 2112 
Q 3559 1806 3559 1356 
Q 3559 666 3084 287 
Q 2609 -91 1734 -91 
Q 1441 -91 1130 -33 
Q 819 25 488 141 
L 488 750 
Q 750 597 1062 519 
Q 1375 441 1716 441 
Q 2309 441 2620 675 
Q 2931 909 2931 1356 
Q 2931 1769 2642 2001 
Q 2353 2234 1838 2234 
L 1294 2234 
L 1294 2753 
L 1863 2753 
Q 2328 2753 2575 2939 
Q 2822 3125 2822 3475 
Q 2822 3834 2567 4026 
Q 2313 4219 1838 4219 
Q 1578 4219 1281 4162 
Q 984 4106 628 3988 
L 628 4550 
Q 988 4650 1302 4700 
Q 1616 4750 1894 4750 
Q 2613 4750 3031 4423 
Q 3450 4097 3450 3541 
Q 3450 3153 3228 2886 
Q 3006 2619 2597 2516 
z
" transform="scale(0.015625)"/>
       </defs>
       <use xlink:href="#DejaVuSans-33"/>
       <use xlink:href="#DejaVuSans-30" x="63.623047"/>
       <use xlink:href="#DejaVuSans-30" x="127.246094"/>
       <use xlink:href="#DejaVuSans-30" x="190.869141"/>
       <use xlink:href="#DejaVuSans-30" x="254.492188"/>
       <use xlink:href="#DejaVuSans-30" x="318.115234"/>
      </g>
     </g>
    </g>
    <g id="ytick_5">
     <g id="line2d_18">
      <path d="M 55.69 77.425237 
L 450 77.425237 
" clip-path="url(#p192268de85)" style="fill: none; stroke: #d3d3d3; stroke-width: 0.3; stroke-linecap: square"/>
     </g>
     <g id="line2d_19">
      <g>
       <use xlink:href="#m0e3d82ed66" x="55.69" y="77.425237" style="stroke: #000000; stroke-width: 0.8"/>
      </g>
     </g>
     <g id="text_14">
      <!-- 400000 -->
      <g transform="translate(10.515 81.224456) scale(0.1 -0.1)">
       <defs>
        <path id="DejaVuSans-34" d="M 2419 4116 
L 825 1625 
L 2419 1625 
L 2419 4116 
z
M 2253 4666 
L 3047 4666 
L 3047 1625 
L 3713 1625 
L 3713 1100 
L 3047 1100 
L 3047 0 
L 2419 0 
L 2419 1100 
L 313 1100 
L 313 1709 
L 2253 4666 
z
" transform="scale(0.015625)"/>
       </defs>
       <use xlink:href="#DejaVuSans-34"/>
       <use xlink:href="#DejaVuSans-30" x="63.623047"/>
       <use xlink:href="#DejaVuSans-30" x="127.246094"/>
       <use xlink:href="#DejaVuSans-30" x="190.869141"/>
       <use xlink:href="#DejaVuSans-30" x="254.492188"/>
       <use xlink:href="#DejaVuSans-30" x="318.115234"/>
      </g>
     </g>
    </g>
    <g id="ytick_6">
     <g id="line2d_20">
      <path d="M 55.69 17.351547 
L 450 17.351547 
" clip-path="url(#p192268de85)" style="fill: none; stroke: #d3d3d3; stroke-width: 0.3; stroke-linecap: square"/>
     </g>
     <g id="line2d_21">
      <g>
       <use xlink:href="#m0e3d82ed66" x="55.69" y="17.351547" style="stroke: #000000; stroke-width: 0.8"/>
      </g>
     </g>
     <g id="text_15">
      <!-- 500000 -->
      <g transform="translate(10.515 21.150765) scale(0.1 -0.1)">
       <use xlink:href="#DejaVuSans-35"/>
       <use xlink:href="#DejaVuSans-30" x="63.623047"/>
       <use xlink:href="#DejaVuSans-30" x="127.246094"/>
       <use xlink:href="#DejaVuSans-30" x="190.869141"/>
       <use xlink:href="#DejaVuSans-30" x="254.492188"/>
       <use xlink:href="#DejaVuSans-30" x="318.115234"/>
      </g>
     </g>
    </g>
   </g>
   <g id="patch_103">
    <path d="M 55.69 317.72 
L 55.69 10.8 
" style="fill: none; stroke: #000000; stroke-width: 0.8; stroke-linejoin: miter; stroke-linecap: square"/>
   </g>
   <g id="patch_104">
    <path d="M 55.69 317.72 
L 450 317.72 
" style="fill: none; stroke: #000000; stroke-width: 0.8; stroke-linejoin: miter; stroke-linecap: square"/>
   </g>
  </g>
 </g>
 <defs>
  <clipPath id="p192268de85">
   <rect x="55.69" y="10.8" width="394.31" height="306.92"/>
  </clipPath>
 </defs>
</svg>
