<?xml version="1.0" encoding="utf-8" standalone="no"?>
<!DOCTYPE svg PUBLIC "-//W3C//DTD SVG 1.1//EN"
  "http://www.w3.org/Graphics/SVG/1.1/DTD/svg11.dtd">
<svg xmlns:xlink="http://www.w3.org/1999/xlink" width="504pt" height="360pt" viewBox="0 0 504 360" xmlns="http://www.w3.org/2000/svg" version="1.1">
 <metadata>
  <rdf:RDF xmlns:dc="http://purl.org/dc/elements/1.1/" xmlns:cc="http://creativecommons.org/ns#" xmlns:rdf="http://www.w3.org/1999/02/22-rdf-syntax-ns#">
   <cc:Work>
    <dc:type rdf:resource="http://purl.org/dc/dcmitype/StillImage"/>
    <dc:date>2024-12-22T18:32:03.207182</dc:date>
    <dc:format>image/svg+xml</dc:format>
    <dc:creator>
     <cc:Agent>
      <dc:title>Matplotlib v3.8.3, https://matplotlib.org/</dc:title>
     </cc:Agent>
    </dc:creator>
   </cc:Work>
  </rdf:RDF>
 </metadata>
 <defs>
  <style type="text/css">*{stroke-linejoin: round; stroke-linecap: butt}</style>
 </defs>
 <g id="figure_1">
  <g id="patch_1">
   <path d="M 0 360 
L 504 360 
L 504 0 
L 0 0 
z
" style="fill: #ffffff"/>
  </g>
  <g id="axes_1">
   <g id="patch_2">
    <path d="M 63 288 
L 453.6 288 
L 453.6 43.2 
L 63 43.2 
z
" style="fill: #ffffff"/>
   </g>
   <g id="matplotlib.axis_1">
    <g id="xtick_1">
     <g id="line2d_1">
      <defs>
       <path id="m025f5363a9" d="M 0 0 
L 0 3.5 
" style="stroke: #000000; stroke-width: 0.8"/>
      </defs>
      <g>
       <use xlink:href="#m025f5363a9" x="75.068899" y="288" style="stroke: #000000; stroke-width: 0.8"/>
      </g>
     </g>
     <g id="text_1">
      <!-- 1996 -->
      <g transform="translate(51.988708 314.30544) rotate(-30) scale(0.1 -0.1)">
       <defs>
        <path id="DejaVuSans-31" d="M 794 531 
L 1825 531 
L 1825 4091 
L 703 3866 
L 703 4441 
L 1819 4666 
L 2450 4666 
L 2450 531 
L 3481 531 
L 3481 0 
L 794 0 
L 794 531 
z
" transform="scale(0.015625)"/>
        <path id="DejaVuSans-39" d="M 703 97 
L 703 672 
Q 941 559 1184 500 
Q 1428 441 1663 441 
Q 2288 441 2617 861 
Q 2947 1281 2994 2138 
Q 2813 1869 2534 1725 
Q 2256 1581 1919 1581 
Q 1219 1581 811 2004 
Q 403 2428 403 3163 
Q 403 3881 828 4315 
Q 1253 4750 1959 4750 
Q 2769 4750 3195 4129 
Q 3622 3509 3622 2328 
Q 3622 1225 3098 567 
Q 2575 -91 1691 -91 
Q 1453 -91 1209 -44 
Q 966 3 703 97 
z
M 1959 2075 
Q 2384 2075 2632 2365 
Q 2881 2656 2881 3163 
Q 2881 3666 2632 3958 
Q 2384 4250 1959 4250 
Q 1534 4250 1286 3958 
Q 1038 3666 1038 3163 
Q 1038 2656 1286 2365 
Q 1534 2075 1959 2075 
z
" transform="scale(0.015625)"/>
        <path id="DejaVuSans-36" d="M 2113 2584 
Q 1688 2584 1439 2293 
Q 1191 2003 1191 1497 
Q 1191 994 1439 701 
Q 1688 409 2113 409 
Q 2538 409 2786 701 
Q 3034 994 3034 1497 
Q 3034 2003 2786 2293 
Q 2538 2584 2113 2584 
z
M 3366 4563 
L 3366 3988 
Q 3128 4100 2886 4159 
Q 2644 4219 2406 4219 
Q 1781 4219 1451 3797 
Q 1122 3375 1075 2522 
Q 1259 2794 1537 2939 
Q 1816 3084 2150 3084 
Q 2853 3084 3261 2657 
Q 3669 2231 3669 1497 
Q 3669 778 3244 343 
Q 2819 -91 2113 -91 
Q 1303 -91 875 529 
Q 447 1150 447 2328 
Q 447 3434 972 4092 
Q 1497 4750 2381 4750 
Q 2619 4750 2861 4703 
Q 3103 4656 3366 4563 
z
" transform="scale(0.015625)"/>
       </defs>
       <use xlink:href="#DejaVuSans-31"/>
       <use xlink:href="#DejaVuSans-39" x="63.623047"/>
       <use xlink:href="#DejaVuSans-39" x="127.246094"/>
       <use xlink:href="#DejaVuSans-36" x="190.869141"/>
      </g>
     </g>
    </g>
    <g id="xtick_2">
     <g id="line2d_2">
      <g>
       <use xlink:href="#m025f5363a9" x="127.703708" y="288" style="stroke: #000000; stroke-width: 0.8"/>
      </g>
     </g>
     <g id="text_2">
      <!-- 2000 -->
      <g transform="translate(104.623518 314.30544) rotate(-30) scale(0.1 -0.1)">
       <defs>
        <path id="DejaVuSans-32" d="M 1228 531 
L 3431 531 
L 3431 0 
L 469 0 
L 469 531 
Q 828 903 1448 1529 
Q 2069 2156 2228 2338 
Q 2531 2678 2651 2914 
Q 2772 3150 2772 3378 
Q 2772 3750 2511 3984 
Q 2250 4219 1831 4219 
Q 1534 4219 1204 4116 
Q 875 4013 500 3803 
L 500 4441 
Q 881 4594 1212 4672 
Q 1544 4750 1819 4750 
Q 2544 4750 2975 4387 
Q 3406 4025 3406 3419 
Q 3406 3131 3298 2873 
Q 3191 2616 2906 2266 
Q 2828 2175 2409 1742 
Q 1991 1309 1228 531 
z
" transform="scale(0.015625)"/>
        <path id="DejaVuSans-30" d="M 2034 4250 
Q 1547 4250 1301 3770 
Q 1056 3291 1056 2328 
Q 1056 1369 1301 889 
Q 1547 409 2034 409 
Q 2525 409 2770 889 
Q 3016 1369 3016 2328 
Q 3016 3291 2770 3770 
Q 2525 4250 2034 4250 
z
M 2034 4750 
Q 2819 4750 3233 4129 
Q 3647 3509 3647 2328 
Q 3647 1150 3233 529 
Q 2819 -91 2034 -91 
Q 1250 -91 836 529 
Q 422 1150 422 2328 
Q 422 3509 836 4129 
Q 1250 4750 2034 4750 
z
" transform="scale(0.015625)"/>
       </defs>
       <use xlink:href="#DejaVuSans-32"/>
       <use xlink:href="#DejaVuSans-30" x="63.623047"/>
       <use xlink:href="#DejaVuSans-30" x="127.246094"/>
       <use xlink:href="#DejaVuSans-30" x="190.869141"/>
      </g>
     </g>
    </g>
    <g id="xtick_3">
     <g id="line2d_3">
      <g>
       <use xlink:href="#m025f5363a9" x="180.338517" y="288" style="stroke: #000000; stroke-width: 0.8"/>
      </g>
     </g>
     <g id="text_3">
      <!-- 2004 -->
      <g transform="translate(157.258327 314.30544) rotate(-30) scale(0.1 -0.1)">
       <defs>
        <path id="DejaVuSans-34" d="M 2419 4116 
L 825 1625 
L 2419 1625 
L 2419 4116 
z
M 2253 4666 
L 3047 4666 
L 3047 1625 
L 3713 1625 
L 3713 1100 
L 3047 1100 
L 3047 0 
L 2419 0 
L 2419 1100 
L 313 1100 
L 313 1709 
L 2253 4666 
z
" transform="scale(0.015625)"/>
       </defs>
       <use xlink:href="#DejaVuSans-32"/>
       <use xlink:href="#DejaVuSans-30" x="63.623047"/>
       <use xlink:href="#DejaVuSans-30" x="127.246094"/>
       <use xlink:href="#DejaVuSans-34" x="190.869141"/>
      </g>
     </g>
    </g>
    <g id="xtick_4">
     <g id="line2d_4">
      <g>
       <use xlink:href="#m025f5363a9" x="232.973326" y="288" style="stroke: #000000; stroke-width: 0.8"/>
      </g>
     </g>
     <g id="text_4">
      <!-- 2008 -->
      <g transform="translate(209.893136 314.30544) rotate(-30) scale(0.1 -0.1)">
       <defs>
        <path id="DejaVuSans-38" d="M 2034 2216 
Q 1584 2216 1326 1975 
Q 1069 1734 1069 1313 
Q 1069 891 1326 650 
Q 1584 409 2034 409 
Q 2484 409 2743 651 
Q 3003 894 3003 1313 
Q 3003 1734 2745 1975 
Q 2488 2216 2034 2216 
z
M 1403 2484 
Q 997 2584 770 2862 
Q 544 3141 544 3541 
Q 544 4100 942 4425 
Q 1341 4750 2034 4750 
Q 2731 4750 3128 4425 
Q 3525 4100 3525 3541 
Q 3525 3141 3298 2862 
Q 3072 2584 2669 2484 
Q 3125 2378 3379 2068 
Q 3634 1759 3634 1313 
Q 3634 634 3220 271 
Q 2806 -91 2034 -91 
Q 1263 -91 848 271 
Q 434 634 434 1313 
Q 434 1759 690 2068 
Q 947 2378 1403 2484 
z
M 1172 3481 
Q 1172 3119 1398 2916 
Q 1625 2713 2034 2713 
Q 2441 2713 2670 2916 
Q 2900 3119 2900 3481 
Q 2900 3844 2670 4047 
Q 2441 4250 2034 4250 
Q 1625 4250 1398 4047 
Q 1172 3844 1172 3481 
z
" transform="scale(0.015625)"/>
       </defs>
       <use xlink:href="#DejaVuSans-32"/>
       <use xlink:href="#DejaVuSans-30" x="63.623047"/>
       <use xlink:href="#DejaVuSans-30" x="127.246094"/>
       <use xlink:href="#DejaVuSans-38" x="190.869141"/>
      </g>
     </g>
    </g>
    <g id="xtick_5">
     <g id="line2d_5">
      <g>
       <use xlink:href="#m025f5363a9" x="285.608135" y="288" style="stroke: #000000; stroke-width: 0.8"/>
      </g>
     </g>
     <g id="text_5">
      <!-- 2012 -->
      <g transform="translate(262.527945 314.30544) rotate(-30) scale(0.1 -0.1)">
       <use xlink:href="#DejaVuSans-32"/>
       <use xlink:href="#DejaVuSans-30" x="63.623047"/>
       <use xlink:href="#DejaVuSans-31" x="127.246094"/>
       <use xlink:href="#DejaVuSans-32" x="190.869141"/>
      </g>
     </g>
    </g>
    <g id="xtick_6">
     <g id="line2d_6">
      <g>
       <use xlink:href="#m025f5363a9" x="338.242944" y="288" style="stroke: #000000; stroke-width: 0.8"/>
      </g>
     </g>
     <g id="text_6">
      <!-- 2016 -->
      <g transform="translate(315.162754 314.30544) rotate(-30) scale(0.1 -0.1)">
       <use xlink:href="#DejaVuSans-32"/>
       <use xlink:href="#DejaVuSans-30" x="63.623047"/>
       <use xlink:href="#DejaVuSans-31" x="127.246094"/>
       <use xlink:href="#DejaVuSans-36" x="190.869141"/>
      </g>
     </g>
    </g>
    <g id="xtick_7">
     <g id="line2d_7">
      <g>
       <use xlink:href="#m025f5363a9" x="390.877753" y="288" style="stroke: #000000; stroke-width: 0.8"/>
      </g>
     </g>
     <g id="text_7">
      <!-- 2020 -->
      <g transform="translate(367.797563 314.30544) rotate(-30) scale(0.1 -0.1)">
       <use xlink:href="#DejaVuSans-32"/>
       <use xlink:href="#DejaVuSans-30" x="63.623047"/>
       <use xlink:href="#DejaVuSans-32" x="127.246094"/>
       <use xlink:href="#DejaVuSans-30" x="190.869141"/>
      </g>
     </g>
    </g>
    <g id="xtick_8">
     <g id="line2d_8">
      <g>
       <use xlink:href="#m025f5363a9" x="443.512562" y="288" style="stroke: #000000; stroke-width: 0.8"/>
      </g>
     </g>
     <g id="text_8">
      <!-- 2024 -->
      <g transform="translate(420.432372 314.30544) rotate(-30) scale(0.1 -0.1)">
       <use xlink:href="#DejaVuSans-32"/>
       <use xlink:href="#DejaVuSans-30" x="63.623047"/>
       <use xlink:href="#DejaVuSans-32" x="127.246094"/>
       <use xlink:href="#DejaVuSans-34" x="190.869141"/>
      </g>
     </g>
    </g>
   </g>
   <g id="matplotlib.axis_2">
    <g id="ytick_1">
     <g id="line2d_9">
      <path d="M 63 250.449591 
L 453.6 250.449591 
" clip-path="url(#p60ab83d09c)" style="fill: none; stroke: #a8bac4; stroke-opacity: 0.5; stroke-width: 0.5; stroke-linecap: square"/>
     </g>
     <g id="line2d_10">
      <defs>
       <path id="mbd1b8ee9ee" d="M 0 0 
L -3.5 0 
" style="stroke: #000000; stroke-width: 0.8"/>
      </defs>
      <g>
       <use xlink:href="#mbd1b8ee9ee" x="63" y="250.449591" style="stroke: #000000; stroke-width: 0.8"/>
      </g>
     </g>
     <g id="text_9">
      <!-- 0.2 -->
      <g transform="translate(40.096875 254.24881) scale(0.1 -0.1)">
       <defs>
        <path id="DejaVuSans-2e" d="M 684 794 
L 1344 794 
L 1344 0 
L 684 0 
L 684 794 
z
" transform="scale(0.015625)"/>
       </defs>
       <use xlink:href="#DejaVuSans-30"/>
       <use xlink:href="#DejaVuSans-2e" x="63.623047"/>
       <use xlink:href="#DejaVuSans-32" x="95.410156"/>
      </g>
     </g>
    </g>
    <g id="ytick_2">
     <g id="line2d_11">
      <path d="M 63 201.416889 
L 453.6 201.416889 
" clip-path="url(#p60ab83d09c)" style="fill: none; stroke: #a8bac4; stroke-opacity: 0.5; stroke-width: 0.5; stroke-linecap: square"/>
     </g>
     <g id="line2d_12">
      <g>
       <use xlink:href="#mbd1b8ee9ee" x="63" y="201.416889" style="stroke: #000000; stroke-width: 0.8"/>
      </g>
     </g>
     <g id="text_10">
      <!-- 0.4 -->
      <g transform="translate(40.096875 205.216108) scale(0.1 -0.1)">
       <use xlink:href="#DejaVuSans-30"/>
       <use xlink:href="#DejaVuSans-2e" x="63.623047"/>
       <use xlink:href="#DejaVuSans-34" x="95.410156"/>
      </g>
     </g>
    </g>
    <g id="ytick_3">
     <g id="line2d_13">
      <path d="M 63 152.384187 
L 453.6 152.384187 
" clip-path="url(#p60ab83d09c)" style="fill: none; stroke: #a8bac4; stroke-opacity: 0.5; stroke-width: 0.5; stroke-linecap: square"/>
     </g>
     <g id="line2d_14">
      <g>
       <use xlink:href="#mbd1b8ee9ee" x="63" y="152.384187" style="stroke: #000000; stroke-width: 0.8"/>
      </g>
     </g>
     <g id="text_11">
      <!-- 0.6 -->
      <g transform="translate(40.096875 156.183406) scale(0.1 -0.1)">
       <use xlink:href="#DejaVuSans-30"/>
       <use xlink:href="#DejaVuSans-2e" x="63.623047"/>
       <use xlink:href="#DejaVuSans-36" x="95.410156"/>
      </g>
     </g>
    </g>
    <g id="ytick_4">
     <g id="line2d_15">
      <path d="M 63 103.351485 
L 453.6 103.351485 
" clip-path="url(#p60ab83d09c)" style="fill: none; stroke: #a8bac4; stroke-opacity: 0.5; stroke-width: 0.5; stroke-linecap: square"/>
     </g>
     <g id="line2d_16">
      <g>
       <use xlink:href="#mbd1b8ee9ee" x="63" y="103.351485" style="stroke: #000000; stroke-width: 0.8"/>
      </g>
     </g>
     <g id="text_12">
      <!-- 0.8 -->
      <g transform="translate(40.096875 107.150703) scale(0.1 -0.1)">
       <use xlink:href="#DejaVuSans-30"/>
       <use xlink:href="#DejaVuSans-2e" x="63.623047"/>
       <use xlink:href="#DejaVuSans-38" x="95.410156"/>
      </g>
     </g>
    </g>
    <g id="ytick_5">
     <g id="line2d_17">
      <path d="M 63 54.318783 
L 453.6 54.318783 
" clip-path="url(#p60ab83d09c)" style="fill: none; stroke: #a8bac4; stroke-opacity: 0.5; stroke-width: 0.5; stroke-linecap: square"/>
     </g>
     <g id="line2d_18">
      <g>
       <use xlink:href="#mbd1b8ee9ee" x="63" y="54.318783" style="stroke: #000000; stroke-width: 0.8"/>
      </g>
     </g>
     <g id="text_13">
      <!-- 1.0 -->
      <g transform="translate(40.096875 58.118001) scale(0.1 -0.1)">
       <use xlink:href="#DejaVuSans-31"/>
       <use xlink:href="#DejaVuSans-2e" x="63.623047"/>
       <use xlink:href="#DejaVuSans-30" x="95.410156"/>
      </g>
     </g>
    </g>
    <g id="text_14">
     <!-- Portfolio Weight -->
     <g transform="translate(34.017187 205.173437) rotate(-90) scale(0.1 -0.1)">
      <defs>
       <path id="DejaVuSans-50" d="M 1259 4147 
L 1259 2394 
L 2053 2394 
Q 2494 2394 2734 2622 
Q 2975 2850 2975 3272 
Q 2975 3691 2734 3919 
Q 2494 4147 2053 4147 
L 1259 4147 
z
M 628 4666 
L 2053 4666 
Q 2838 4666 3239 4311 
Q 3641 3956 3641 3272 
Q 3641 2581 3239 2228 
Q 2838 1875 2053 1875 
L 1259 1875 
L 1259 0 
L 628 0 
L 628 4666 
z
" transform="scale(0.015625)"/>
       <path id="DejaVuSans-6f" d="M 1959 3097 
Q 1497 3097 1228 2736 
Q 959 2375 959 1747 
Q 959 1119 1226 758 
Q 1494 397 1959 397 
Q 2419 397 2687 759 
Q 2956 1122 2956 1747 
Q 2956 2369 2687 2733 
Q 2419 3097 1959 3097 
z
M 1959 3584 
Q 2709 3584 3137 3096 
Q 3566 2609 3566 1747 
Q 3566 888 3137 398 
Q 2709 -91 1959 -91 
Q 1206 -91 779 398 
Q 353 888 353 1747 
Q 353 2609 779 3096 
Q 1206 3584 1959 3584 
z
" transform="scale(0.015625)"/>
       <path id="DejaVuSans-72" d="M 2631 2963 
Q 2534 3019 2420 3045 
Q 2306 3072 2169 3072 
Q 1681 3072 1420 2755 
Q 1159 2438 1159 1844 
L 1159 0 
L 581 0 
L 581 3500 
L 1159 3500 
L 1159 2956 
Q 1341 3275 1631 3429 
Q 1922 3584 2338 3584 
Q 2397 3584 2469 3576 
Q 2541 3569 2628 3553 
L 2631 2963 
z
" transform="scale(0.015625)"/>
       <path id="DejaVuSans-74" d="M 1172 4494 
L 1172 3500 
L 2356 3500 
L 2356 3053 
L 1172 3053 
L 1172 1153 
Q 1172 725 1289 603 
Q 1406 481 1766 481 
L 2356 481 
L 2356 0 
L 1766 0 
Q 1100 0 847 248 
Q 594 497 594 1153 
L 594 3053 
L 172 3053 
L 172 3500 
L 594 3500 
L 594 4494 
L 1172 4494 
z
" transform="scale(0.015625)"/>
       <path id="DejaVuSans-66" d="M 2375 4863 
L 2375 4384 
L 1825 4384 
Q 1516 4384 1395 4259 
Q 1275 4134 1275 3809 
L 1275 3500 
L 2222 3500 
L 2222 3053 
L 1275 3053 
L 1275 0 
L 697 0 
L 697 3053 
L 147 3053 
L 147 3500 
L 697 3500 
L 697 3744 
Q 697 4328 969 4595 
Q 1241 4863 1831 4863 
L 2375 4863 
z
" transform="scale(0.015625)"/>
       <path id="DejaVuSans-6c" d="M 603 4863 
L 1178 4863 
L 1178 0 
L 603 0 
L 603 4863 
z
" transform="scale(0.015625)"/>
       <path id="DejaVuSans-69" d="M 603 3500 
L 1178 3500 
L 1178 0 
L 603 0 
L 603 3500 
z
M 603 4863 
L 1178 4863 
L 1178 4134 
L 603 4134 
L 603 4863 
z
" transform="scale(0.015625)"/>
       <path id="DejaVuSans-20" transform="scale(0.015625)"/>
       <path id="DejaVuSans-57" d="M 213 4666 
L 850 4666 
L 1831 722 
L 2809 4666 
L 3519 4666 
L 4500 722 
L 5478 4666 
L 6119 4666 
L 4947 0 
L 4153 0 
L 3169 4050 
L 2175 0 
L 1381 0 
L 213 4666 
z
" transform="scale(0.015625)"/>
       <path id="DejaVuSans-65" d="M 3597 1894 
L 3597 1613 
L 953 1613 
Q 991 1019 1311 708 
Q 1631 397 2203 397 
Q 2534 397 2845 478 
Q 3156 559 3463 722 
L 3463 178 
Q 3153 47 2828 -22 
Q 2503 -91 2169 -91 
Q 1331 -91 842 396 
Q 353 884 353 1716 
Q 353 2575 817 3079 
Q 1281 3584 2069 3584 
Q 2775 3584 3186 3129 
Q 3597 2675 3597 1894 
z
M 3022 2063 
Q 3016 2534 2758 2815 
Q 2500 3097 2075 3097 
Q 1594 3097 1305 2825 
Q 1016 2553 972 2059 
L 3022 2063 
z
" transform="scale(0.015625)"/>
       <path id="DejaVuSans-67" d="M 2906 1791 
Q 2906 2416 2648 2759 
Q 2391 3103 1925 3103 
Q 1463 3103 1205 2759 
Q 947 2416 947 1791 
Q 947 1169 1205 825 
Q 1463 481 1925 481 
Q 2391 481 2648 825 
Q 2906 1169 2906 1791 
z
M 3481 434 
Q 3481 -459 3084 -895 
Q 2688 -1331 1869 -1331 
Q 1566 -1331 1297 -1286 
Q 1028 -1241 775 -1147 
L 775 -588 
Q 1028 -725 1275 -790 
Q 1522 -856 1778 -856 
Q 2344 -856 2625 -561 
Q 2906 -266 2906 331 
L 2906 616 
Q 2728 306 2450 153 
Q 2172 0 1784 0 
Q 1141 0 747 490 
Q 353 981 353 1791 
Q 353 2603 747 3093 
Q 1141 3584 1784 3584 
Q 2172 3584 2450 3431 
Q 2728 3278 2906 2969 
L 2906 3500 
L 3481 3500 
L 3481 434 
z
" transform="scale(0.015625)"/>
       <path id="DejaVuSans-68" d="M 3513 2113 
L 3513 0 
L 2938 0 
L 2938 2094 
Q 2938 2591 2744 2837 
Q 2550 3084 2163 3084 
Q 1697 3084 1428 2787 
Q 1159 2491 1159 1978 
L 1159 0 
L 581 0 
L 581 4863 
L 1159 4863 
L 1159 2956 
Q 1366 3272 1645 3428 
Q 1925 3584 2291 3584 
Q 2894 3584 3203 3211 
Q 3513 2838 3513 2113 
z
" transform="scale(0.015625)"/>
      </defs>
      <use xlink:href="#DejaVuSans-50"/>
      <use xlink:href="#DejaVuSans-6f" x="56.677734"/>
      <use xlink:href="#DejaVuSans-72" x="117.859375"/>
      <use xlink:href="#DejaVuSans-74" x="158.972656"/>
      <use xlink:href="#DejaVuSans-66" x="198.181641"/>
      <use xlink:href="#DejaVuSans-6f" x="233.386719"/>
      <use xlink:href="#DejaVuSans-6c" x="294.568359"/>
      <use xlink:href="#DejaVuSans-69" x="322.351562"/>
      <use xlink:href="#DejaVuSans-6f" x="350.134766"/>
      <use xlink:href="#DejaVuSans-20" x="411.316406"/>
      <use xlink:href="#DejaVuSans-57" x="443.103516"/>
      <use xlink:href="#DejaVuSans-65" x="536.105469"/>
      <use xlink:href="#DejaVuSans-69" x="597.628906"/>
      <use xlink:href="#DejaVuSans-67" x="625.412109"/>
      <use xlink:href="#DejaVuSans-68" x="688.888672"/>
      <use xlink:href="#DejaVuSans-74" x="752.267578"/>
     </g>
    </g>
   </g>
   <g id="line2d_19">
    <path d="M 63 65.590935 
L 63.216159 66.076207 
L 63.468345 60.380793 
L 63.756558 64.194997 
L 63.972717 62.290632 
L 64.224903 61.396897 
L 64.477089 62.764207 
L 64.729275 55.838665 
L 64.981461 65.320175 
L 65.233647 61.678399 
L 65.485833 65.987114 
L 65.990205 54.390275 
L 66.242391 65.569812 
L 66.494577 55.006727 
L 66.746763 62.469905 
L 66.998949 62.823168 
L 67.287161 57.579541 
L 67.50332 64.140666 
L 67.755506 55.564745 
L 68.007692 55.976051 
L 68.259878 61.144502 
L 68.512064 61.184383 
L 69.016436 60.756705 
L 69.268622 61.743951 
L 69.520808 56.193089 
L 69.772994 59.409439 
L 70.02518 64.614825 
L 70.277366 63.416316 
L 70.529552 57.357738 
L 70.817764 65.242653 
L 71.033924 54.516001 
L 71.538296 63.710618 
L 71.790481 63.148528 
L 72.042667 55.296374 
L 72.294853 60.80206 
L 72.547039 57.247598 
L 72.799225 56.525638 
L 73.051411 63.042686 
L 73.303597 62.783802 
L 73.555783 64.484363 
L 73.807969 64.744123 
L 74.060155 62.319905 
L 74.312341 57.66216 
L 74.852739 64.704666 
L 75.104925 57.531676 
L 75.321085 56.136208 
L 75.573271 62.066923 
L 75.825457 56.795095 
L 76.077643 57.214883 
L 76.329828 63.553017 
L 76.582014 62.112175 
L 76.870227 58.886103 
L 77.086386 59.08557 
L 77.338572 65.333389 
L 77.590758 56.197009 
L 77.842944 61.446121 
L 78.09513 56.403566 
L 78.599502 62.105243 
L 78.851688 55.473309 
L 79.103874 62.627895 
L 79.35606 59.20717 
L 79.608246 64.941255 
L 79.860432 56.103315 
L 80.112618 64.952391 
L 80.40083 65.307506 
L 80.616989 57.819333 
L 80.869175 55.175409 
L 81.121361 56.549578 
L 81.373547 63.500837 
L 81.625733 65.841127 
L 81.877919 61.507284 
L 82.130105 55.141834 
L 82.634477 65.60262 
L 82.886663 57.822215 
L 83.138849 59.051409 
L 83.391035 64.451179 
L 83.643221 61.802861 
L 83.931433 57.04032 
L 84.147593 61.11718 
L 84.399779 62.273718 
L 84.651965 58.879387 
L 84.904151 60.601838 
L 85.156336 59.961944 
L 85.408522 66.556344 
L 85.660708 66.42003 
L 85.912894 61.194099 
L 86.16508 63.418099 
L 86.417266 59.183754 
L 86.921638 57.424343 
L 87.173824 57.032471 
L 87.42601 65.419909 
L 87.678196 63.3168 
L 87.930382 57.195922 
L 88.182568 65.967677 
L 88.434754 55.585064 
L 88.68694 55.566726 
L 88.939126 63.096884 
L 89.191312 58.313525 
L 89.443498 63.162133 
L 89.983896 61.826792 
L 90.200055 58.841703 
L 90.452241 62.895473 
L 90.704427 64.304241 
L 90.956613 60.150628 
L 91.208799 64.454375 
L 91.460985 57.065333 
L 91.965357 64.551671 
L 92.217543 66.163467 
L 92.469729 55.894422 
L 92.721915 54.666022 
L 92.974101 54.466442 
L 93.226287 65.461952 
L 93.514499 58.671802 
L 93.730659 59.124711 
L 93.982844 58.665428 
L 94.23503 62.577413 
L 94.487216 61.215135 
L 94.739402 63.87718 
L 94.991588 62.512581 
L 95.243774 63.019074 
L 95.49596 61.283818 
L 95.748146 57.020233 
L 96.000332 59.668709 
L 96.252518 58.175118 
L 96.504704 55.556563 
L 96.75689 59.333589 
L 97.045102 65.63633 
L 97.261262 65.841847 
L 97.513448 65.628008 
L 97.765634 59.669546 
L 98.01782 57.043534 
L 98.270006 61.742707 
L 98.522191 61.174806 
L 98.774377 65.540295 
L 99.026563 56.576994 
L 99.278749 63.597923 
L 99.530935 66.515521 
L 99.783121 58.416611 
L 100.035307 59.355107 
L 100.539679 54.723462 
L 100.791865 64.380154 
L 101.044051 59.055984 
L 101.296237 59.405611 
L 101.548423 55.12416 
L 101.800609 65.428045 
L 102.088821 61.031244 
L 102.304981 65.841661 
L 102.557167 57.74032 
L 102.809353 61.463004 
L 103.097565 56.349696 
L 103.313724 62.619431 
L 103.56591 57.737694 
L 103.818096 58.201841 
L 104.070282 60.219119 
L 104.322468 55.266463 
L 104.574654 64.658561 
L 104.82684 63.490718 
L 105.331212 57.463269 
L 105.583398 58.581191 
L 105.835584 57.260799 
L 106.08777 54.449049 
L 106.339956 59.014323 
L 106.628168 54.75552 
L 106.844328 60.69411 
L 107.096514 62.059871 
L 107.3487 57.22806 
L 107.600885 65.868514 
L 108.105257 61.887364 
L 108.357443 57.624152 
L 108.609629 60.910796 
L 109.114001 56.596608 
L 109.366187 57.577235 
L 109.618373 59.94256 
L 109.870559 60.829642 
L 110.122745 62.276321 
L 110.410957 73.061169 
L 110.627117 54.37503 
L 111.131489 67.477732 
L 111.383675 69.064526 
L 111.635861 110.794244 
L 111.888046 131.337942 
L 112.140232 126.272925 
L 112.392418 117.356995 
L 112.644604 80.225156 
L 112.89679 62.972462 
L 113.148976 57.115019 
L 113.401162 66.475109 
L 113.653348 57.036157 
L 113.905534 63.436187 
L 114.15772 60.895038 
L 114.409906 65.255899 
L 114.662092 56.784684 
L 114.914278 58.50122 
L 115.20249 65.292317 
L 115.41865 65.388997 
L 115.923022 57.91828 
L 116.211234 60.090687 
L 116.427393 59.136126 
L 116.679579 54.829723 
L 116.931765 65.085495 
L 117.436137 60.869438 
L 117.688323 60.750768 
L 117.940509 64.461454 
L 118.192695 58.43746 
L 118.444881 65.867626 
L 118.697067 54.987192 
L 118.949253 58.036012 
L 119.201439 62.758887 
L 119.453625 54.40772 
L 119.994023 60.878059 
L 120.210183 56.890971 
L 120.462369 55.375937 
L 120.714555 64.120075 
L 120.96674 61.854596 
L 121.254953 65.759223 
L 121.471112 57.489154 
L 121.723298 60.020874 
L 121.975484 60.763584 
L 122.22767 63.044359 
L 122.479856 58.072905 
L 122.732042 58.180632 
L 122.984228 56.594087 
L 123.236414 60.567607 
L 123.524626 58.140644 
L 123.740786 59.688676 
L 123.992972 59.271418 
L 124.245158 66.227117 
L 124.497344 54.343242 
L 124.74953 59.108513 
L 125.001716 54.700267 
L 125.253901 63.682131 
L 125.506087 58.701866 
L 125.758273 61.537385 
L 126.010459 55.611111 
L 126.262645 54.717239 
L 126.514831 61.438861 
L 126.767017 56.11894 
L 127.019203 55.817901 
L 127.271389 63.986136 
L 127.523575 55.20014 
L 127.775761 60.678318 
L 128.027947 82.040831 
L 128.316159 80.109505 
L 128.532319 79.527212 
L 128.784505 83.657868 
L 129.036691 55.262175 
L 129.288877 56.735605 
L 129.577089 60.819367 
L 129.793248 58.454481 
L 130.045434 61.598396 
L 130.29762 57.647799 
L 130.549806 96.736263 
L 130.801992 90.961013 
L 131.054178 96.054795 
L 131.306364 91.120572 
L 131.55855 60.567126 
L 131.810736 57.519188 
L 132.062922 71.390325 
L 132.315108 65.751121 
L 132.81948 61.521836 
L 133.107692 62.194193 
L 133.323852 56.141965 
L 133.576038 56.788648 
L 133.828224 58.405429 
L 134.08041 59.229691 
L 134.332595 59.155044 
L 134.584781 61.311663 
L 134.836967 59.980951 
L 135.089153 62.5436 
L 135.341339 55.972747 
L 135.593525 66.559789 
L 135.845711 61.020626 
L 136.097897 62.496804 
L 136.350083 57.8914 
L 136.638296 64.527447 
L 136.854455 57.50745 
L 137.106641 60.714174 
L 137.358827 60.821926 
L 137.611013 62.232744 
L 137.863199 66.449065 
L 138.115385 62.501528 
L 138.367571 65.470391 
L 138.619757 61.774194 
L 139.376314 57.435309 
L 139.880686 62.631352 
L 140.132872 61.824006 
L 140.385058 58.430682 
L 140.673271 56.263146 
L 140.925457 60.676035 
L 141.141616 78.866007 
L 141.429828 76.309366 
L 141.645988 63.275238 
L 141.898174 57.07161 
L 142.15036 58.790393 
L 142.402546 61.738144 
L 142.690758 61.113328 
L 142.906918 63.913882 
L 143.159103 54.327273 
L 143.411289 54.815641 
L 143.663475 66.131963 
L 143.915661 57.038868 
L 144.167847 61.282606 
L 144.420033 60.085322 
L 144.672219 54.616713 
L 144.924405 54.899668 
L 145.176591 62.432731 
L 145.428777 65.927163 
L 145.680963 58.82513 
L 145.933149 58.028797 
L 146.221361 58.321853 
L 146.437521 59.296108 
L 146.689707 61.939854 
L 146.941893 58.504329 
L 147.446265 62.94701 
L 147.69845 61.419277 
L 147.950636 58.218365 
L 148.202822 64.933052 
L 148.455008 58.419972 
L 148.95938 54.739762 
L 149.211566 56.684523 
L 149.463752 64.526713 
L 149.751965 61.876215 
L 149.968124 57.686784 
L 150.22031 64.106669 
L 150.472496 59.793218 
L 150.976868 103.416047 
L 151.229054 89.271594 
L 151.48124 56.881503 
L 151.733426 64.164595 
L 152.237797 66.566372 
L 152.489983 60.763774 
L 152.742169 64.225658 
L 153.246541 54.687807 
L 153.498727 54.6735 
L 154.003099 62.09061 
L 154.255285 55.654971 
L 154.507471 64.91307 
L 154.795683 65.571229 
L 155.011843 62.765098 
L 155.516215 64.596553 
L 155.804427 57.26921 
L 156.020587 66.411587 
L 156.272773 64.260989 
L 156.524958 59.719875 
L 156.777144 57.572324 
L 157.02933 61.740974 
L 157.281516 59.1987 
L 157.533702 54.547261 
L 157.785888 58.036354 
L 158.038074 65.561337 
L 158.29026 58.592031 
L 158.542446 55.937867 
L 158.794632 56.432796 
L 159.046818 61.426393 
L 159.33503 57.570969 
L 159.55119 57.036077 
L 159.803376 57.56735 
L 160.055562 54.727741 
L 160.307748 64.673428 
L 160.559934 62.711261 
L 160.81212 55.119737 
L 161.064305 59.928205 
L 161.316491 68.334704 
L 161.568677 128.282341 
L 161.820863 136.804562 
L 162.073049 140.825184 
L 162.325235 125.501912 
L 162.577421 61.891538 
L 162.865634 58.536058 
L 163.081793 58.410254 
L 163.333979 62.422761 
L 163.586165 55.539297 
L 163.838351 63.09076 
L 164.090537 60.207809 
L 164.342723 93.357046 
L 164.594909 103.901597 
L 164.847095 107.771376 
L 165.099281 103.446348 
L 165.351467 64.858356 
L 165.603652 65.397902 
L 166.108024 55.768631 
L 166.36021 64.349613 
L 166.612396 64.836361 
L 166.864582 61.425199 
L 167.116768 60.449767 
L 167.368954 57.787188 
L 167.62114 66.518007 
L 167.909353 59.609345 
L 168.125512 59.859406 
L 168.377698 57.597693 
L 168.629884 66.055023 
L 168.918096 63.350037 
L 169.134256 64.131677 
L 169.386442 55.065117 
L 169.638628 64.396308 
L 169.890814 55.104091 
L 170.142999 60.83052 
L 170.647371 54.857299 
L 170.899557 58.333013 
L 171.151743 55.383903 
L 171.403929 55.340144 
L 171.656115 64.279623 
L 171.908301 55.152907 
L 172.160487 55.358174 
L 172.4487 65.614527 
L 172.664859 62.777149 
L 172.917045 62.930526 
L 173.169231 65.397432 
L 173.421417 59.29143 
L 173.673603 66.026977 
L 173.925789 57.150116 
L 174.177975 56.24403 
L 174.43016 63.924596 
L 174.682346 59.307566 
L 174.934532 64.833218 
L 175.186718 58.740304 
L 175.438904 66.440819 
L 175.69109 64.244798 
L 175.979303 66.143267 
L 176.195462 57.842842 
L 176.447648 58.194553 
L 176.699834 58.02388 
L 176.95202 56.508543 
L 177.456392 64.15055 
L 177.708578 60.995633 
L 177.960764 63.109185 
L 178.21295 58.129541 
L 178.465136 62.964283 
L 178.717322 58.454633 
L 178.969507 59.411194 
L 179.221693 54.48073 
L 179.726065 64.573916 
L 179.978251 55.769183 
L 180.230437 56.946496 
L 180.482623 56.738819 
L 181.023022 59.058633 
L 181.239181 59.462764 
L 181.491367 61.102273 
L 181.743553 63.624424 
L 182.031765 58.065526 
L 182.247925 59.252774 
L 182.500111 57.290907 
L 182.752297 58.490524 
L 183.004483 65.429864 
L 183.256669 57.187985 
L 183.508854 62.871297 
L 183.76104 60.644259 
L 184.265412 54.869442 
L 184.517598 61.851845 
L 184.769784 63.558053 
L 185.02197 61.265716 
L 185.274156 61.959534 
L 185.526342 56.313413 
L 185.814555 62.492761 
L 186.030714 63.039766 
L 186.2829 59.242171 
L 186.535086 57.701558 
L 186.787272 66.544008 
L 187.075484 63.130607 
L 187.291644 64.492445 
L 187.54383 59.325012 
L 188.048201 64.758691 
L 188.300387 66.384377 
L 188.552573 61.374824 
L 188.804759 64.517749 
L 189.056945 56.657447 
L 189.345158 65.242899 
L 189.561317 56.737122 
L 189.813503 63.514187 
L 190.065689 54.841159 
L 190.317875 60.774765 
L 190.570061 55.06181 
L 190.822247 63.392839 
L 191.074433 57.769971 
L 191.326619 55.055537 
L 191.578805 60.092127 
L 191.830991 61.902015 
L 192.083177 57.647468 
L 192.335362 58.518678 
L 192.587548 64.682576 
L 192.839734 56.057621 
L 193.09192 60.117599 
L 193.344106 54.750255 
L 193.596292 66.486865 
L 193.848478 63.963403 
L 194.136691 58.522367 
L 194.35285 62.49953 
L 194.605036 56.165822 
L 194.857222 58.461217 
L 195.109408 64.554407 
L 195.39762 61.995558 
L 195.61378 61.911358 
L 195.865966 60.602702 
L 196.118152 65.087067 
L 196.370338 59.66167 
L 196.622524 61.771176 
L 196.874709 62.088335 
L 197.126895 56.743225 
L 197.631267 66.559067 
L 197.883453 66.08652 
L 198.135639 63.839935 
L 198.387825 63.007617 
L 198.640011 58.57038 
L 198.928224 61.681854 
L 199.144383 54.551463 
L 199.396569 61.836798 
L 199.648755 57.156674 
L 199.900941 63.276652 
L 200.189153 64.106301 
L 200.405313 63.496457 
L 200.909685 54.601216 
L 201.161871 63.158325 
L 201.414056 54.855703 
L 201.666242 59.366553 
L 201.918428 66.431698 
L 202.170614 63.641378 
L 202.458827 63.048247 
L 202.674986 63.003346 
L 202.927172 55.325782 
L 203.179358 64.895938 
L 203.431544 57.355453 
L 203.68373 62.597378 
L 203.935916 58.675748 
L 204.188102 58.554458 
L 204.440288 59.487685 
L 204.692474 59.355576 
L 204.94466 55.901715 
L 205.196846 54.806771 
L 205.449032 63.891105 
L 205.701217 58.356672 
L 205.953403 63.701126 
L 206.205589 64.967634 
L 206.493802 58.754373 
L 206.962147 60.620383 
L 207.466519 64.993064 
L 207.718705 56.523098 
L 207.970891 65.22678 
L 208.223077 55.701872 
L 208.511289 63.085129 
L 208.727449 55.05927 
L 208.979635 64.009938 
L 209.231821 60.222967 
L 209.484007 66.07541 
L 209.736193 65.607515 
L 210.240564 56.31763 
L 210.49275 60.449547 
L 210.744936 57.67671 
L 211.249308 63.614593 
L 211.501494 56.393434 
L 211.75368 55.575517 
L 212.041893 57.528194 
L 212.258052 62.090316 
L 212.510238 56.131815 
L 212.762424 61.719104 
L 213.01461 56.672191 
L 213.266796 59.057073 
L 213.518982 66.378434 
L 213.771168 66.40719 
L 214.023354 64.41365 
L 214.527726 58.116572 
L 215.032097 65.300991 
L 215.572496 54.604263 
L 215.788655 56.429114 
L 216.040841 63.272382 
L 216.293027 66.414248 
L 216.545213 56.487886 
L 216.797399 66.431399 
L 217.049585 66.251846 
L 217.301771 63.510082 
L 217.553957 54.878852 
L 218.058329 59.347095 
L 218.310515 58.046522 
L 218.562701 55.855403 
L 218.814887 61.051144 
L 219.607471 65.95294 
L 219.895683 59.081463 
L 220.075816 59.783984 
L 220.364029 60.09697 
L 220.580188 62.665144 
L 220.832374 56.397282 
L 221.08456 63.155507 
L 221.336746 60.785641 
L 221.624958 65.196628 
L 221.841118 62.152151 
L 222.093304 66.218254 
L 222.34549 61.742674 
L 222.597676 66.024063 
L 222.849862 57.738086 
L 223.102048 62.669004 
L 223.354234 57.550044 
L 223.858605 54.393585 
L 224.362977 62.843805 
L 224.867349 60.478145 
L 225.155562 55.213228 
L 225.371721 55.52418 
L 225.623907 60.768069 
L 225.876093 55.486005 
L 226.128279 57.036633 
L 226.380465 63.33948 
L 226.632651 65.086526 
L 226.884837 62.154535 
L 227.137023 66.29708 
L 227.389209 56.317348 
L 227.641395 58.382879 
L 227.893581 64.30046 
L 228.145766 63.740483 
L 228.397952 55.782008 
L 228.686165 63.958228 
L 229.15451 57.476572 
L 229.406696 56.045564 
L 229.658882 57.067083 
L 229.911068 58.723533 
L 230.163254 64.648853 
L 230.41544 56.79211 
L 230.667626 60.357401 
L 230.919812 55.817873 
L 231.171998 55.434294 
L 231.67637 58.789432 
L 231.928556 64.247236 
L 232.180742 60.500831 
L 232.432928 64.096097 
L 232.685113 54.745996 
L 232.937299 54.655808 
L 233.189485 64.508717 
L 233.441671 59.69677 
L 233.729884 61.091638 
L 233.946043 66.511018 
L 234.198229 83.672272 
L 234.450415 79.980795 
L 234.954787 63.294602 
L 235.206973 57.020716 
L 235.459159 55.786081 
L 235.963531 64.502676 
L 236.215717 57.345046 
L 236.467903 58.221615 
L 236.720089 54.803829 
L 236.972274 54.43279 
L 237.22446 62.586791 
L 237.476646 65.800643 
L 237.728832 62.733299 
L 237.981018 57.651393 
L 238.269231 60.510946 
L 238.48539 61.224453 
L 238.737576 61.231438 
L 238.989762 62.928302 
L 239.494134 55.905309 
L 239.74632 61.260446 
L 239.998506 63.388568 
L 240.250692 61.601322 
L 240.502878 56.883661 
L 240.755064 61.39278 
L 241.00725 62.000562 
L 241.259436 64.94381 
L 241.511621 63.182088 
L 241.799834 65.532145 
L 242.015993 57.712647 
L 242.268179 64.103862 
L 242.520365 102.733091 
L 243.024737 145.009034 
L 243.276923 202.975789 
L 243.781295 217.697292 
L 244.033481 220.064996 
L 244.285667 198.657678 
L 244.537853 189.521347 
L 244.790039 204.389218 
L 245.042225 197.221356 
L 245.294411 198.99924 
L 245.546597 191.846545 
L 246.303154 130.930887 
L 246.843553 100.644836 
L 247.059712 110.280526 
L 247.311898 111.563133 
L 247.564084 114.493884 
L 247.852297 122.949697 
L 248.068456 117.945016 
L 248.320642 147.246644 
L 248.572828 149.172405 
L 248.825014 166.355623 
L 249.0772 173.425429 
L 249.329386 161.848115 
L 249.833758 125.065532 
L 250.085944 114.775425 
L 250.338129 79.733114 
L 250.590315 89.67851 
L 250.842501 82.804611 
L 251.3829 85.110586 
L 251.599059 85.485722 
L 251.851245 73.950374 
L 252.103431 82.176921 
L 252.355617 83.486949 
L 252.607803 61.080685 
L 252.859989 68.52716 
L 253.112175 71.626454 
L 253.364361 59.013988 
L 253.616547 56.6955 
L 253.868733 59.789927 
L 254.120919 55.389066 
L 254.373105 55.190383 
L 254.625291 63.232217 
L 254.877476 64.027824 
L 255.165689 63.148382 
L 255.381848 64.748639 
L 255.634034 61.937533 
L 255.88622 54.646399 
L 256.138406 54.620003 
L 256.390592 55.94308 
L 256.642778 57.929487 
L 256.894964 62.978161 
L 257.14715 65.366066 
L 257.399336 58.017778 
L 257.651522 57.830158 
L 257.903708 60.633578 
L 258.155894 57.016963 
L 258.40808 61.590927 
L 258.660266 56.842211 
L 258.912452 62.641252 
L 259.164638 57.010162 
L 259.416823 65.486617 
L 259.669009 58.626611 
L 259.957222 54.390161 
L 260.173381 57.686787 
L 260.425567 59.813109 
L 260.677753 57.630928 
L 261.182125 63.663574 
L 261.434311 57.061577 
L 261.686497 63.532219 
L 261.938683 62.093067 
L 262.190869 58.273004 
L 262.443055 62.754325 
L 262.695241 64.924945 
L 262.947427 57.712187 
L 263.199613 66.03368 
L 263.451799 57.284185 
L 263.703985 65.473836 
L 263.95617 64.720592 
L 264.208356 58.754398 
L 264.460542 66.881828 
L 264.964914 87.845974 
L 265.2171 71.165821 
L 265.721472 54.609808 
L 266.009685 63.116052 
L 266.225844 55.826917 
L 266.47803 57.613894 
L 266.730216 60.405541 
L 266.982402 57.512843 
L 267.234588 56.630323 
L 267.486774 58.244064 
L 267.73896 56.295914 
L 267.991146 58.288033 
L 268.279358 58.038078 
L 268.495517 56.444213 
L 268.747703 56.676247 
L 268.999889 58.520139 
L 269.252075 61.387505 
L 269.504261 61.181634 
L 269.756447 57.216933 
L 270.008633 64.606803 
L 270.260819 55.720448 
L 270.513005 59.071596 
L 270.765191 66.291472 
L 271.017377 62.763468 
L 271.269563 63.449626 
L 271.521749 62.418693 
L 272.026121 65.708427 
L 272.278307 64.254527 
L 272.530493 55.387006 
L 272.782678 63.9187 
L 273.070891 65.336872 
L 273.28705 58.900994 
L 273.539236 62.439201 
L 273.791422 55.935747 
L 274.043608 56.845612 
L 274.331821 65.809121 
L 274.54798 59.364429 
L 274.800166 55.32116 
L 275.052352 56.380014 
L 275.304538 61.700322 
L 275.556724 56.735458 
L 275.80891 60.363394 
L 276.061096 62.062364 
L 276.313282 57.412038 
L 276.817654 60.749404 
L 277.06984 60.326515 
L 277.322025 65.290516 
L 277.574211 59.111101 
L 277.862424 60.795898 
L 278.078583 63.105601 
L 278.330769 58.004807 
L 278.582955 63.315311 
L 278.835141 58.065677 
L 279.123354 65.849779 
L 279.339513 56.870459 
L 279.591699 60.282659 
L 279.843885 59.376078 
L 280.096071 54.568997 
L 280.348257 68.521102 
L 280.600443 122.853049 
L 280.852629 131.226939 
L 281.104815 143.513846 
L 281.393027 105.553517 
L 281.609186 57.931591 
L 281.861372 62.777058 
L 282.365744 55.2812 
L 282.61793 64.706102 
L 282.870116 57.708656 
L 283.122302 55.437932 
L 283.374488 62.266262 
L 283.626674 60.818618 
L 283.87886 63.716328 
L 284.131046 62.970455 
L 284.383232 63.197548 
L 284.635418 66.15667 
L 284.887604 64.822479 
L 285.13979 54.429802 
L 285.680188 56.232944 
L 285.896348 62.386706 
L 286.18456 62.844748 
L 286.400719 65.712545 
L 286.652905 54.718507 
L 286.905091 54.779143 
L 287.157277 59.590863 
L 287.44549 57.749406 
L 287.661649 55.645525 
L 287.913835 63.42816 
L 288.166021 65.069497 
L 288.418207 55.412293 
L 288.922579 65.378468 
L 289.426951 61.108016 
L 289.679137 58.069431 
L 289.931323 58.356084 
L 290.183509 58.890467 
L 290.435695 58.199742 
L 290.68788 55.718687 
L 290.976093 55.560925 
L 291.444438 61.747056 
L 291.696624 61.532526 
L 291.94881 54.3771 
L 292.200996 64.012506 
L 292.453182 61.333184 
L 292.705368 55.836499 
L 292.957554 62.502839 
L 293.20974 56.43643 
L 293.461926 60.041827 
L 293.714112 61.064157 
L 293.966298 56.752519 
L 294.218484 57.787769 
L 294.506696 63.900375 
L 294.722856 57.300079 
L 294.975042 55.911389 
L 295.227227 64.130613 
L 295.479413 63.439684 
L 295.731599 57.744755 
L 295.983785 54.748795 
L 296.235971 64.509659 
L 296.56021 57.017844 
L 296.740343 55.876512 
L 296.992529 58.688769 
L 297.244715 55.284935 
L 297.496901 65.070765 
L 297.749087 55.787757 
L 298.001273 65.772378 
L 298.253459 54.458702 
L 298.505645 60.569219 
L 298.757831 62.307117 
L 299.010017 58.556162 
L 299.262203 66.567874 
L 299.550415 58.456579 
L 299.766574 57.396736 
L 300.01876 57.825811 
L 300.270946 59.202608 
L 300.559159 63.785094 
L 300.775318 62.794134 
L 301.027504 57.406828 
L 301.27969 56.579476 
L 301.784062 65.474237 
L 302.036248 55.649844 
L 302.288434 55.346068 
L 302.54062 60.60533 
L 302.792806 54.647838 
L 303.297178 66.283692 
L 303.549364 55.236638 
L 303.80155 66.204241 
L 304.089762 58.364244 
L 304.305921 59.163152 
L 304.558107 60.771956 
L 304.810293 56.473391 
L 305.062479 66.37142 
L 305.314665 64.433633 
L 305.566851 64.027485 
L 305.819037 54.903215 
L 306.323409 63.882928 
L 306.575595 57.379801 
L 306.827781 60.846987 
L 307.079967 54.635961 
L 307.332153 56.899361 
L 307.836525 63.03721 
L 308.340897 59.799144 
L 308.593082 60.413164 
L 308.845268 61.478238 
L 309.097454 55.31782 
L 309.34964 59.963772 
L 309.854012 54.529749 
L 310.106198 61.396874 
L 310.358384 62.304669 
L 310.862756 54.394265 
L 311.114942 59.284425 
L 311.367128 60.863539 
L 311.619314 55.124602 
L 311.8715 65.218604 
L 312.123686 58.190201 
L 312.375872 61.532545 
L 312.664084 55.719251 
L 312.880243 62.204622 
L 313.132429 63.307277 
L 313.384615 66.247363 
L 313.888987 61.264867 
L 314.141173 60.235227 
L 314.393359 60.360526 
L 314.645545 63.158112 
L 314.897731 54.807155 
L 315.402103 65.702817 
L 315.654289 62.046087 
L 315.906475 61.626807 
L 316.158661 64.676477 
L 316.410847 61.499451 
L 316.663033 56.794147 
L 316.915219 64.490598 
L 317.203431 55.258643 
L 317.41959 64.002308 
L 317.671776 60.73978 
L 317.923962 61.830633 
L 318.176148 55.627763 
L 318.428334 61.872294 
L 318.932706 66.229142 
L 319.689264 55.142246 
L 319.94145 56.091017 
L 320.193636 63.622181 
L 320.445822 55.53856 
L 320.734034 61.762202 
L 320.950194 55.662478 
L 321.20238 55.340906 
L 321.454566 62.950119 
L 321.706752 64.269125 
L 321.958937 64.699329 
L 322.211123 59.68859 
L 322.463309 61.627238 
L 322.715495 62.489396 
L 322.967681 61.41473 
L 323.219867 54.95425 
L 323.472053 61.600527 
L 323.724239 57.858201 
L 323.976425 62.17239 
L 324.228611 58.350649 
L 324.732983 66.001386 
L 324.985169 60.806202 
L 325.237355 61.242358 
L 325.489541 58.873628 
L 326.246099 64.817717 
L 326.498284 55.182768 
L 326.786497 60.181905 
L 327.002656 58.032211 
L 327.254842 65.506546 
L 327.507028 62.930549 
L 327.759214 65.946865 
L 328.0114 55.014425 
L 328.263586 65.138946 
L 328.515772 54.804413 
L 328.767958 55.241984 
L 329.020144 57.873443 
L 329.27233 58.685633 
L 329.524516 63.119596 
L 329.776702 63.0212 
L 330.028888 57.90345 
L 330.3171 56.107366 
L 330.53326 62.660042 
L 330.785445 58.080495 
L 331.037631 64.723108 
L 331.542003 62.891065 
L 331.794189 64.030799 
L 332.298561 55.564198 
L 332.802933 62.114607 
L 333.307305 57.668073 
L 333.559491 62.41523 
L 333.811677 56.879307 
L 334.316049 63.115962 
L 334.568235 62.748964 
L 334.820421 61.693197 
L 335.072607 66.063591 
L 335.324792 60.080268 
L 335.576978 57.699083 
L 335.829164 60.585736 
L 336.08135 60.796878 
L 336.333536 54.591546 
L 336.837908 58.038589 
L 337.090094 61.220023 
L 337.34228 55.367372 
L 337.594466 65.079288 
L 337.846652 57.272438 
L 338.098838 58.88985 
L 338.351024 62.795913 
L 338.60321 55.276403 
L 338.891422 64.01236 
L 339.107582 64.391069 
L 339.359768 55.797331 
L 339.611954 61.641955 
L 339.900166 54.522316 
L 340.116325 56.911865 
L 340.368511 58.294873 
L 340.620697 58.776686 
L 340.872883 65.985427 
L 341.125069 60.822637 
L 341.377255 60.089584 
L 341.629441 57.749076 
L 341.881627 60.266276 
L 342.133813 57.888795 
L 342.385999 59.512355 
L 342.638185 62.763393 
L 342.890371 62.905651 
L 343.142557 65.826841 
L 343.394743 64.455026 
L 343.899115 58.617055 
L 344.1513 57.590045 
L 344.403486 63.823302 
L 344.655672 55.160328 
L 344.943885 63.842857 
L 345.160044 65.779344 
L 345.41223 55.163307 
L 345.664416 55.276216 
L 345.916602 59.050805 
L 346.168788 66.490741 
L 346.420974 56.948593 
L 346.67316 62.02416 
L 346.925346 58.390371 
L 347.213558 59.857846 
L 347.429718 58.870657 
L 347.681904 64.733162 
L 347.93409 65.029516 
L 348.186276 59.552573 
L 348.438462 66.207581 
L 348.690647 61.601284 
L 348.942833 63.390012 
L 349.195019 55.8861 
L 349.447205 64.841032 
L 349.699391 58.03265 
L 349.951577 56.680108 
L 350.455949 64.942337 
L 350.708135 66.329614 
L 350.960321 54.609599 
L 351.248533 61.547897 
L 351.500719 63.632018 
L 351.716879 55.897733 
L 352.221251 59.871041 
L 352.473437 60.451439 
L 352.725623 59.021896 
L 352.977809 60.90533 
L 353.266021 55.898446 
L 353.48218 54.853 
L 353.986552 63.86864 
L 354.238738 57.254364 
L 354.490924 61.693671 
L 354.995296 57.392871 
L 355.247482 59.852463 
L 355.751854 61.78296 
L 356.00404 55.845225 
L 356.256226 63.063048 
L 356.508412 64.995973 
L 356.796624 65.130797 
L 357.012784 57.252859 
L 357.26497 60.218432 
L 357.517156 59.622049 
L 357.769341 55.811476 
L 358.021527 64.573797 
L 358.273713 55.02513 
L 358.525899 63.766739 
L 358.778085 66.097594 
L 359.030271 61.529008 
L 359.282457 61.554606 
L 359.534643 55.101944 
L 359.786829 61.706106 
L 360.039015 55.087793 
L 360.327227 56.386796 
L 360.543387 65.350323 
L 360.795573 58.423912 
L 361.047759 65.34206 
L 361.552131 59.01439 
L 361.804317 64.523619 
L 362.056502 57.793325 
L 362.308688 55.462154 
L 362.560874 59.858 
L 362.81306 61.632458 
L 363.065246 59.485703 
L 363.317432 63.086117 
L 363.569618 60.915788 
L 363.821804 60.968125 
L 364.07399 64.662805 
L 364.614388 66.449117 
L 364.830548 54.452033 
L 365.11876 55.358288 
L 365.33492 63.579114 
L 365.587106 63.466086 
L 365.839292 54.590792 
L 366.091478 56.390291 
L 366.37969 61.154335 
L 366.595849 55.720205 
L 366.848035 54.425138 
L 367.100221 62.837907 
L 367.352407 63.231558 
L 367.604593 59.792016 
L 367.856779 60.522821 
L 368.108965 60.56449 
L 368.361151 61.397774 
L 368.613337 64.70743 
L 368.865523 58.79156 
L 369.117709 56.695475 
L 369.369895 59.917681 
L 369.622081 58.300338 
L 369.910293 59.774571 
L 370.126453 64.589189 
L 370.378639 65.908814 
L 370.630825 65.039052 
L 371.135196 58.06508 
L 371.387382 58.741913 
L 371.639568 54.605147 
L 371.891754 60.735126 
L 372.14394 59.591303 
L 372.396126 59.2143 
L 372.648312 58.000432 
L 372.900498 57.376963 
L 373.152684 59.019595 
L 373.440897 64.012515 
L 373.657056 58.007518 
L 373.909242 60.021669 
L 374.161428 58.649431 
L 374.413614 65.963141 
L 374.6658 54.698174 
L 375.170172 66.15471 
L 375.422357 58.400753 
L 375.674543 64.720017 
L 375.926729 60.76171 
L 376.178915 66.451446 
L 376.431101 55.434944 
L 376.683287 62.100804 
L 376.935473 56.625017 
L 377.187659 65.103504 
L 377.439845 55.1827 
L 377.692031 63.634486 
L 377.944217 56.729522 
L 378.196403 61.232099 
L 378.484615 56.849733 
L 378.952961 66.524704 
L 379.205147 54.814243 
L 379.493359 55.602301 
L 379.709519 55.820275 
L 379.961704 61.015935 
L 380.21389 60.965994 
L 380.718262 57.58111 
L 380.970448 61.869374 
L 381.222634 57.269789 
L 381.47482 57.040285 
L 381.727006 55.841831 
L 381.979192 57.69953 
L 382.231378 62.151567 
L 382.483564 56.98136 
L 382.73575 60.660899 
L 383.240122 57.017743 
L 383.492308 64.345217 
L 383.744494 59.37926 
L 383.99668 63.780776 
L 384.248866 55.160397 
L 384.501051 55.165346 
L 384.753237 59.188047 
L 385.005423 65.456829 
L 385.257609 57.588244 
L 385.509795 66.06197 
L 385.761981 63.554431 
L 386.014167 56.779316 
L 386.266353 64.390248 
L 386.554566 57.583646 
L 386.770725 65.432352 
L 387.022911 54.578522 
L 387.275097 56.355092 
L 387.779469 64.644317 
L 388.031655 58.086782 
L 388.283841 58.590764 
L 388.536027 61.846133 
L 388.788213 62.489721 
L 389.040398 59.208823 
L 389.292584 61.982338 
L 389.54477 62.897313 
L 389.796956 60.353216 
L 390.049142 54.898715 
L 390.301328 57.023861 
L 390.553514 56.458081 
L 390.8057 59.692438 
L 391.057886 64.891562 
L 391.598284 56.710962 
L 392.06663 65.492348 
L 392.318816 56.381837 
L 392.607028 60.951515 
L 392.823188 58.211812 
L 393.075374 80.050482 
L 393.579745 214.874057 
L 393.831931 230.146843 
L 394.084117 236.354548 
L 394.336303 235.840628 
L 394.588489 226.3211 
L 395.345047 130.236147 
L 395.849419 97.646637 
L 396.137631 84.467489 
L 396.353791 84.606425 
L 396.605977 75.509462 
L 396.858163 107.661095 
L 397.110349 95.602879 
L 397.362535 90.847151 
L 397.614721 88.346281 
L 397.866906 57.80582 
L 398.119092 54.327472 
L 398.623464 61.677753 
L 398.87565 65.226176 
L 399.127836 56.560331 
L 399.380022 63.640797 
L 399.632208 59.822579 
L 399.920421 66.219841 
L 400.13658 55.686766 
L 400.388766 65.133154 
L 400.640952 67.155163 
L 400.893138 63.451838 
L 401.145324 56.702547 
L 401.649696 64.646745 
L 401.901882 54.589988 
L 402.154068 82.923715 
L 402.406253 96.210373 
L 402.658439 100.150136 
L 402.910625 67.673926 
L 403.162811 55.968246 
L 403.414997 60.853583 
L 403.667183 62.889607 
L 403.919369 59.562213 
L 404.171555 62.724634 
L 404.423741 56.300826 
L 404.711954 60.112248 
L 404.928113 65.929632 
L 405.180299 61.481636 
L 405.432485 63.265931 
L 405.720697 62.489408 
L 405.936857 61.44044 
L 406.189043 56.21013 
L 406.441229 59.722518 
L 406.693414 66.510588 
L 406.9456 66.427246 
L 407.197786 57.463687 
L 407.449972 59.171177 
L 407.702158 54.915715 
L 407.954344 62.852875 
L 408.20653 62.805268 
L 408.458716 55.581744 
L 408.710902 54.984343 
L 408.963088 61.42447 
L 409.215274 63.344975 
L 409.719646 60.641155 
L 409.971832 62.917604 
L 410.224018 62.517487 
L 410.476204 55.835204 
L 410.764416 62.540498 
L 410.980576 58.114892 
L 411.232761 64.780883 
L 411.737133 55.828988 
L 411.989319 55.952392 
L 412.493691 61.598475 
L 412.745877 60.129725 
L 413.03409 59.829078 
L 413.502435 66.478251 
L 413.754621 54.413008 
L 414.006807 60.275032 
L 414.258993 55.291775 
L 414.511179 55.472429 
L 414.763365 55.975828 
L 415.015551 62.332091 
L 415.267737 63.16466 
L 415.519923 56.025065 
L 415.772108 55.326674 
L 416.024294 59.859733 
L 416.27648 58.583672 
L 416.528666 55.870666 
L 416.780852 57.478485 
L 417.033038 63.352224 
L 417.285224 65.877215 
L 417.53741 65.13858 
L 417.825623 54.527898 
L 418.041782 60.668055 
L 418.293968 59.492667 
L 418.546154 60.983149 
L 418.79834 58.395639 
L 419.086552 64.358319 
L 419.302712 60.202946 
L 419.554898 59.830085 
L 419.807084 55.444573 
L 420.05927 64.074167 
L 420.311455 55.725318 
L 420.815827 63.41131 
L 421.068013 61.477007 
L 421.320199 66.368004 
L 421.572385 60.190446 
L 421.824571 64.354908 
L 422.076757 61.604237 
L 422.328943 55.289273 
L 422.617156 63.566966 
L 422.833315 64.652424 
L 423.085501 61.132612 
L 423.373713 61.969825 
L 423.589873 75.099532 
L 423.878085 81.72523 
L 424.346431 64.114022 
L 424.598616 62.714905 
L 424.850802 62.104482 
L 425.102988 58.304103 
L 425.355174 58.05097 
L 425.60736 65.182343 
L 425.859546 55.0744 
L 426.147759 62.781788 
L 426.363918 61.279533 
L 426.616104 62.091699 
L 426.86829 56.816148 
L 427.120476 57.317683 
L 427.372662 62.051176 
L 427.624848 57.127777 
L 427.877034 73.859632 
L 428.12922 64.384792 
L 428.381406 63.26455 
L 428.633592 63.264848 
L 428.885778 60.4698 
L 429.137963 54.583586 
L 429.390149 66.068771 
L 429.642335 60.450146 
L 429.894521 63.919477 
L 430.182734 60.002611 
L 430.43492 54.496526 
L 430.651079 59.806216 
L 430.939292 56.241122 
L 431.155451 60.958178 
L 431.407637 63.176694 
L 431.659823 54.668331 
L 431.912009 58.675432 
L 432.200221 55.233293 
L 432.416381 60.145833 
L 432.668567 55.183147 
L 433.172939 66.376482 
L 433.425125 66.442634 
L 433.67731 58.993918 
L 433.929496 58.7803 
L 434.181682 59.010614 
L 434.433868 64.596136 
L 434.686054 62.069855 
L 434.93824 63.197944 
L 435.190426 65.300845 
L 435.442612 54.340402 
L 435.946984 64.191095 
L 436.19917 60.636685 
L 436.487382 59.8105 
L 436.703542 64.537861 
L 436.955728 56.909288 
L 437.207914 62.669917 
L 437.4601 64.803238 
L 437.964471 56.249004 
L 438.216657 58.139243 
L 438.468843 61.278116 
L 438.721029 56.970812 
L 438.973215 57.106599 
L 439.261428 61.188689 
L 439.477587 61.55585 
L 439.729773 55.327933 
L 439.981959 64.810584 
L 440.486331 56.548476 
L 440.738517 56.920873 
L 440.990703 66.259256 
L 441.495075 60.51218 
L 441.747261 65.91025 
L 441.999447 56.833074 
L 442.503818 65.166313 
L 442.756004 57.205411 
L 443.00819 58.425481 
L 443.296403 56.953759 
L 443.548589 60.184871 
L 443.764748 57.422015 
L 444.052961 57.366717 
L 444.26912 57.746334 
L 444.521306 63.481543 
L 444.773492 55.928136 
L 445.025678 54.674686 
L 445.31389 55.206482 
L 445.782236 65.956973 
L 446.034422 64.048421 
L 446.286608 59.438771 
L 446.538794 64.241239 
L 446.79098 63.209773 
L 447.043165 61.325805 
L 447.295351 61.521465 
L 447.547537 60.024914 
L 447.799723 64.763422 
L 448.051909 62.138124 
L 448.304095 54.673558 
L 448.556281 58.52778 
L 448.844494 61.032923 
L 449.060653 58.767457 
L 449.312839 62.347826 
L 449.565025 58.00097 
L 449.817211 66.171816 
L 450.321583 61.837041 
L 450.573769 60.143618 
L 450.825955 66.567032 
L 451.078141 62.923609 
L 451.330327 54.811987 
L 451.582512 58.849273 
L 451.834698 60.950015 
L 452.086884 65.75358 
L 452.375097 57.663885 
L 452.591256 61.02074 
L 452.843442 56.382902 
L 453.095628 58.575714 
L 453.6 65.699536 
L 453.6 65.699536 
" clip-path="url(#p60ab83d09c)" style="fill: none; stroke: #6a7a8a; stroke-width: 1.5; stroke-linecap: square"/>
   </g>
   <g id="line2d_20">
    <path d="M 63 192.169471 
L 63.216159 189.435563 
L 63.468345 189.531068 
L 63.756558 187.865612 
L 63.972717 181.280642 
L 64.224903 179.430316 
L 64.477089 180.959906 
L 64.729275 179.366232 
L 64.981461 179.26669 
L 65.233647 190.015342 
L 65.485833 190.903675 
L 65.990205 201.599127 
L 66.242391 200.276985 
L 66.746763 196.062833 
L 66.998949 191.86902 
L 67.287161 195.64304 
L 67.50332 196.409039 
L 67.755506 186.697444 
L 68.007692 195.107362 
L 68.259878 199.194419 
L 68.512064 189.937158 
L 68.76425 193.880165 
L 69.016436 204.509986 
L 69.268622 209.648745 
L 69.520808 210.678817 
L 70.02518 205.389178 
L 70.529552 190.453467 
L 70.817764 195.042438 
L 71.28611 188.581182 
L 71.790481 200.200835 
L 72.547039 218.223721 
L 72.799225 222.876858 
L 73.051411 219.640087 
L 73.303597 221.337575 
L 73.555783 221.456082 
L 73.807969 214.142458 
L 74.060155 215.583738 
L 74.312341 210.723381 
L 74.564527 219.401931 
L 74.852739 216.243438 
L 75.321085 221.242004 
L 75.573271 233.636969 
L 75.825457 226.236316 
L 76.077643 230.891466 
L 76.329828 228.759357 
L 76.582014 223.768405 
L 76.870227 213.350066 
L 77.086386 210.424462 
L 77.338572 209.206584 
L 77.590758 215.276909 
L 77.842944 217.277005 
L 78.09513 215.194264 
L 78.347316 207.735397 
L 78.599502 204.844238 
L 78.851688 198.248656 
L 79.35606 209.542078 
L 79.608246 206.354792 
L 79.860432 205.805771 
L 80.112618 203.102057 
L 80.40083 195.109756 
L 80.616989 208.086111 
L 80.869175 208.104036 
L 81.121361 206.008959 
L 81.373547 211.21938 
L 81.625733 218.844563 
L 81.877919 216.396259 
L 82.382291 239.987566 
L 82.634477 241.53182 
L 82.886663 244.449633 
L 83.138849 238.385167 
L 83.931433 205.554376 
L 84.399779 216.436262 
L 84.651965 212.909164 
L 84.904151 213.257333 
L 85.156336 216.376904 
L 85.408522 208.262621 
L 85.912894 220.138806 
L 86.16508 220.888743 
L 86.417266 220.593863 
L 86.669452 218.984328 
L 86.921638 215.636427 
L 87.173824 215.278917 
L 87.42601 215.398846 
L 87.930382 220.103352 
L 88.182568 214.095499 
L 88.434754 215.204395 
L 88.68694 214.786318 
L 88.939126 211.273268 
L 89.191312 221.85439 
L 89.443498 219.226638 
L 89.695683 223.802713 
L 90.200055 217.608187 
L 90.452241 219.241517 
L 90.704427 224.527281 
L 90.956613 222.379779 
L 91.208799 223.319624 
L 91.460985 225.170684 
L 91.713171 231.572744 
L 91.965357 232.611881 
L 92.217543 232.361712 
L 92.721915 239.937356 
L 92.974101 237.896863 
L 93.226287 228.42942 
L 93.514499 224.687402 
L 93.730659 210.568596 
L 93.982844 209.656361 
L 94.23503 202.964844 
L 94.487216 203.588819 
L 94.739402 196.975722 
L 94.991588 205.511391 
L 95.243774 203.338725 
L 95.49596 208.649404 
L 95.748146 207.649284 
L 96.000332 202.231683 
L 96.252518 208.812449 
L 96.75689 202.248582 
L 97.261262 197.233362 
L 97.765634 198.411071 
L 98.01782 195.393244 
L 98.270006 201.585047 
L 98.522191 199.730903 
L 98.774377 201.499919 
L 99.278749 235.368112 
L 99.783121 232.736086 
L 100.287493 217.481327 
L 100.791865 222.036528 
L 101.044051 226.221395 
L 101.296237 223.825611 
L 101.548423 225.145071 
L 101.800609 224.929627 
L 102.088821 227.379067 
L 102.304981 220.100928 
L 102.557167 231.720743 
L 103.313724 211.572312 
L 103.56591 214.325069 
L 103.818096 213.305271 
L 104.070282 211.20943 
L 104.322468 215.469014 
L 104.574654 207.097899 
L 104.82684 206.337987 
L 105.079026 203.546911 
L 105.331212 211.147281 
L 105.583398 214.799081 
L 106.844328 193.004917 
L 107.096514 204.124069 
L 107.600885 213.904636 
L 107.853071 213.047923 
L 108.105257 222.911997 
L 108.609629 214.89184 
L 108.861815 219.890784 
L 109.114001 216.708158 
L 109.366187 232.474023 
L 109.618373 231.170201 
L 110.122745 237.874449 
L 110.410957 250.17731 
L 110.627117 249.002168 
L 110.879303 250.320815 
L 111.131489 251.042961 
L 111.383675 250.353225 
L 111.635861 253.674364 
L 111.888046 258.918429 
L 112.140232 258.451097 
L 112.644604 248.329735 
L 113.148976 233.485163 
L 113.653348 233.047708 
L 113.905534 231.776914 
L 114.15772 236.952519 
L 114.662092 233.70095 
L 114.914278 237.647457 
L 115.20249 238.185062 
L 115.41865 232.969909 
L 115.670836 238.777568 
L 115.923022 238.313698 
L 116.211234 236.333298 
L 116.427393 235.879326 
L 116.679579 237.574359 
L 117.183951 231.049687 
L 117.688323 237.938721 
L 117.940509 238.68352 
L 118.192695 241.474611 
L 118.444881 242.003976 
L 118.697067 246.941022 
L 118.949253 246.241023 
L 119.453625 238.028487 
L 119.705811 231.007258 
L 119.994023 241.065035 
L 120.210183 244.432895 
L 120.462369 243.198129 
L 120.714555 247.428848 
L 120.96674 244.977018 
L 121.254953 237.464984 
L 121.471112 239.910326 
L 121.723298 233.095356 
L 121.975484 237.621833 
L 122.22767 232.40954 
L 122.732042 240.541601 
L 122.984228 240.152995 
L 123.236414 238.874339 
L 123.740786 234.259413 
L 123.992972 234.504571 
L 124.245158 236.220491 
L 124.497344 235.836892 
L 124.74953 240.569693 
L 125.001716 238.284176 
L 125.253901 241.25061 
L 125.506087 241.616487 
L 125.758273 243.265439 
L 126.010459 243.809674 
L 126.262645 243.495386 
L 126.514831 237.193537 
L 126.767017 242.125274 
L 127.019203 244.046287 
L 127.271389 243.259796 
L 127.523575 244.940401 
L 127.775761 244.709275 
L 128.027947 250.892334 
L 128.316159 252.999129 
L 128.532319 250.748521 
L 128.784505 252.817979 
L 129.036691 246.531304 
L 129.288877 246.712088 
L 129.577089 246.303228 
L 129.793248 246.926033 
L 130.045434 251.58935 
L 130.29762 251.908995 
L 130.801992 255.420192 
L 131.054178 256.788987 
L 132.062922 267.688801 
L 132.315108 264.386076 
L 132.81948 256.033812 
L 133.107692 255.888547 
L 133.323852 264.295212 
L 133.576038 263.472996 
L 133.828224 260.308789 
L 134.08041 258.687957 
L 134.332595 251.54908 
L 134.584781 251.566489 
L 134.836967 256.80566 
L 135.089153 258.013363 
L 135.341339 256.394469 
L 135.593525 256.298475 
L 135.845711 249.996045 
L 136.097897 248.793354 
L 136.638296 240.738747 
L 136.854455 245.012071 
L 137.106641 243.010327 
L 137.358827 243.231527 
L 137.863199 257.178871 
L 138.367571 266.769667 
L 138.619757 265.90386 
L 138.871942 268.806383 
L 139.124128 267.070735 
L 139.376314 264.361545 
L 139.6285 265.828673 
L 139.880686 263.208091 
L 140.132872 271.184516 
L 140.385058 270.661308 
L 140.673271 272.256408 
L 140.925457 270.489546 
L 141.141616 272.983201 
L 141.429828 274.084274 
L 141.898174 271.81567 
L 142.402546 258.569135 
L 142.906918 257.585386 
L 143.663475 262.986358 
L 143.915661 262.65142 
L 144.167847 264.443882 
L 144.420033 269.853167 
L 144.924405 273.534916 
L 145.176591 273.615264 
L 145.428777 267.888247 
L 145.680963 266.104474 
L 145.933149 255.571412 
L 146.221361 252.718291 
L 146.437521 245.549752 
L 146.689707 247.42019 
L 146.941893 246.003711 
L 147.194079 248.218012 
L 147.446265 246.862829 
L 147.69845 246.667842 
L 147.950636 247.540314 
L 148.202822 247.924924 
L 148.455008 250.836275 
L 148.707194 248.347694 
L 148.95938 241.364481 
L 149.211566 238.657799 
L 149.463752 239.672892 
L 149.751965 237.76032 
L 149.968124 200.114134 
L 150.22031 247.0414 
L 150.472496 255.499171 
L 150.724682 256.269289 
L 150.976868 263.666241 
L 151.229054 264.58253 
L 151.733426 258.660441 
L 151.985612 255.545568 
L 152.237797 248.506864 
L 152.489983 250.226843 
L 152.994355 245.742398 
L 153.246541 249.14287 
L 153.498727 247.964293 
L 153.750913 247.541945 
L 154.003099 244.676634 
L 154.255285 238.36359 
L 154.507471 237.522743 
L 155.011843 241.866049 
L 155.264029 239.498832 
L 155.516215 246.985862 
L 156.020587 248.251023 
L 156.272773 253.725558 
L 156.777144 250.847369 
L 157.281516 240.833826 
L 157.533702 230.527577 
L 157.785888 231.435876 
L 158.29026 239.572433 
L 158.542446 242.46532 
L 158.794632 253.909527 
L 159.046818 253.727949 
L 159.33503 251.223226 
L 159.803376 224.107776 
L 160.055562 229.586376 
L 160.307748 231.721609 
L 160.81212 249.053219 
L 161.064305 250.047608 
L 161.316491 247.016935 
L 161.568677 256.4365 
L 162.325235 259.670053 
L 162.865634 249.170045 
L 163.081793 246.220871 
L 163.333979 236.710977 
L 163.586165 233.397952 
L 163.838351 241.55138 
L 164.090537 243.114751 
L 164.594909 260.883769 
L 164.847095 259.261436 
L 165.099281 256.32875 
L 165.351467 257.714122 
L 165.603652 249.539838 
L 165.855838 252.737563 
L 166.36021 248.016018 
L 166.612396 244.78226 
L 167.116768 228.459788 
L 167.368954 228.291455 
L 167.62114 229.524128 
L 167.909353 224.712523 
L 168.125512 231.446406 
L 168.377698 232.399876 
L 168.629884 224.12455 
L 168.918096 225.115389 
L 169.134256 220.724873 
L 169.386442 218.331382 
L 169.638628 219.447373 
L 169.890814 228.688261 
L 170.142999 231.003939 
L 170.395185 229.824819 
L 170.647371 230.142075 
L 170.899557 219.530785 
L 171.151743 223.096343 
L 171.403929 224.263212 
L 171.656115 222.255074 
L 171.908301 222.786614 
L 172.160487 226.645318 
L 172.4487 222.133434 
L 172.664859 215.017015 
L 172.917045 218.96636 
L 173.421417 214.988309 
L 173.925789 209.538243 
L 174.177975 209.274687 
L 174.43016 216.771626 
L 174.682346 215.976695 
L 174.934532 207.298189 
L 175.186718 212.983158 
L 175.438904 209.121135 
L 175.979303 189.118857 
L 176.195462 190.688161 
L 176.447648 198.074227 
L 176.699834 193.938121 
L 176.95202 204.015932 
L 177.204206 204.68338 
L 177.456392 196.405861 
L 177.708578 193.247842 
L 178.21295 200.196546 
L 178.717322 205.276578 
L 178.969507 205.500301 
L 179.221693 194.543977 
L 179.473879 189.022879 
L 179.726065 190.726136 
L 179.978251 193.245682 
L 180.230437 190.127042 
L 180.482623 176.615827 
L 181.023022 186.518208 
L 181.239181 201.214026 
L 181.491367 210.115679 
L 181.743553 210.065727 
L 182.500111 196.442866 
L 182.752297 188.591909 
L 183.004483 193.304873 
L 183.508854 188.987314 
L 183.76104 182.6455 
L 184.013226 180.069662 
L 184.265412 179.140585 
L 184.769784 199.712057 
L 185.02197 200.446231 
L 185.526342 196.519712 
L 186.030714 187.938246 
L 186.2829 182.44035 
L 186.535086 184.343276 
L 186.787272 185.042912 
L 187.075484 194.581112 
L 187.291644 188.913346 
L 187.54383 196.205173 
L 187.796015 208.017409 
L 188.048201 214.612629 
L 188.300387 212.70467 
L 188.552573 214.905355 
L 188.804759 211.135888 
L 189.056945 201.865283 
L 189.345158 186.437551 
L 189.561317 193.375414 
L 190.065689 184.845195 
L 190.317875 189.74929 
L 190.570061 183.855748 
L 190.822247 170.763182 
L 191.074433 196.537636 
L 191.326619 199.227818 
L 191.578805 196.980974 
L 191.830991 197.177675 
L 192.083177 192.566791 
L 192.335362 185.536192 
L 192.587548 182.861206 
L 192.839734 186.625578 
L 193.09192 185.411932 
L 193.344106 183.124935 
L 193.596292 170.543166 
L 193.848478 170.566847 
L 194.136691 168.446893 
L 194.35285 168.911675 
L 194.605036 185.893158 
L 194.857222 192.738721 
L 195.39762 181.966688 
L 195.61378 184.2829 
L 195.865966 191.862121 
L 196.118152 184.018727 
L 196.370338 180.627121 
L 196.622524 181.14808 
L 196.874709 183.330842 
L 197.126895 173.561486 
L 197.379081 179.804946 
L 197.631267 198.435996 
L 197.883453 200.629713 
L 198.135639 204.025494 
L 198.387825 201.591309 
L 198.640011 191.368568 
L 199.648755 165.426521 
L 199.900941 171.885982 
L 200.189153 160.963529 
L 200.405313 161.666075 
L 200.657499 156.259257 
L 201.161871 186.023873 
L 201.414056 180.388659 
L 201.666242 171.507783 
L 201.918428 170.733695 
L 202.170614 157.509266 
L 202.458827 158.929383 
L 202.674986 175.738691 
L 202.927172 165.536663 
L 203.179358 179.323223 
L 203.431544 175.965723 
L 203.68373 189.354458 
L 203.935916 190.88314 
L 204.188102 194.471591 
L 204.440288 207.037089 
L 204.692474 208.350718 
L 204.94466 205.020858 
L 205.196846 199.037079 
L 205.449032 197.472521 
L 205.953403 162.687014 
L 206.205589 167.393892 
L 206.493802 168.220275 
L 206.745988 163.351941 
L 207.25036 176.392097 
L 207.466519 171.455503 
L 207.718705 187.848714 
L 207.970891 192.25312 
L 208.223077 193.810405 
L 208.511289 189.872802 
L 208.727449 180.202999 
L 208.979635 186.238191 
L 209.231821 178.476445 
L 209.484007 181.77179 
L 209.736193 180.098975 
L 209.988379 159.592712 
L 210.240564 163.164391 
L 210.49275 143.202309 
L 210.997122 189.954847 
L 211.249308 191.013121 
L 211.501494 199.638068 
L 212.041893 188.536915 
L 212.258052 191.527703 
L 212.510238 190.242738 
L 212.762424 204.095077 
L 213.01461 201.871726 
L 213.266796 196.245665 
L 213.518982 194.14058 
L 213.771168 188.500678 
L 214.527726 215.328577 
L 214.779911 214.748005 
L 215.032097 210.99627 
L 215.284283 194.447256 
L 215.572496 183.388857 
L 216.040841 188.403414 
L 216.293027 185.371879 
L 216.545213 186.011392 
L 216.797399 190.978888 
L 217.049585 183.911554 
L 217.553957 188.938619 
L 217.806143 194.830814 
L 218.058329 184.636847 
L 218.310515 183.60241 
L 218.562701 178.799827 
L 218.814887 182.541912 
L 219.067072 169.553362 
L 219.319258 168.748326 
L 219.607471 166.007655 
L 219.895683 148.876869 
L 220.364029 166.116377 
L 220.580188 161.891445 
L 220.832374 164.257498 
L 221.08456 174.748223 
L 221.336746 174.183212 
L 221.624958 166.707481 
L 221.841118 151.570943 
L 222.093304 177.066059 
L 222.34549 177.106686 
L 222.597676 177.946087 
L 222.849862 179.620135 
L 223.102048 157.742332 
L 223.354234 155.291397 
L 223.858605 134.569291 
L 224.110791 163.942418 
L 224.362977 178.168816 
L 224.615163 175.677169 
L 224.867349 170.524088 
L 225.155562 159.013278 
L 225.371721 165.380921 
L 225.623907 166.737594 
L 225.876093 161.664405 
L 226.128279 159.198382 
L 226.380465 162.993733 
L 226.632651 151.198909 
L 226.884837 155.496996 
L 227.137023 164.278317 
L 227.389209 192.978347 
L 227.641395 203.637895 
L 227.893581 223.022329 
L 228.145766 227.153575 
L 228.397952 225.45833 
L 228.686165 220.00153 
L 228.902324 208.853157 
L 229.15451 189.511289 
L 229.406696 198.971438 
L 229.658882 192.275506 
L 229.911068 191.073725 
L 230.163254 192.777256 
L 230.41544 191.531476 
L 230.667626 208.425095 
L 230.919812 216.082072 
L 231.171998 227.143506 
L 231.424184 230.893597 
L 231.67637 228.569865 
L 231.928556 233.067687 
L 232.180742 228.963144 
L 232.685113 223.830376 
L 232.937299 214.925463 
L 233.189485 218.286652 
L 233.441671 226.728376 
L 233.729884 228.834049 
L 233.946043 241.341211 
L 234.198229 246.609627 
L 234.450415 243.840205 
L 234.738628 242.400384 
L 234.954787 231.102431 
L 235.206973 227.018174 
L 235.459159 221.073337 
L 235.963531 247.814441 
L 236.215717 246.032902 
L 236.467903 246.09948 
L 236.720089 239.750143 
L 236.972274 225.529979 
L 237.22446 229.438875 
L 237.476646 229.009982 
L 237.981018 225.544533 
L 238.269231 215.654521 
L 238.48539 214.471859 
L 238.989762 220.468922 
L 239.241948 228.066771 
L 239.494134 230.459533 
L 239.74632 226.314304 
L 240.250692 246.671507 
L 240.502878 254.977777 
L 241.259436 246.146108 
L 241.511621 240.220591 
L 241.799834 229.593887 
L 242.015993 233.025505 
L 242.520365 261.106709 
L 242.772551 263.520312 
L 243.024737 267.225034 
L 243.276923 272.717434 
L 243.529109 273.90784 
L 243.781295 271.765811 
L 244.033481 274.32524 
L 244.285667 271.5162 
L 244.537853 271.325647 
L 244.790039 274.430807 
L 245.042225 274.949991 
L 245.294411 276.6457 
L 245.546597 275.383398 
L 245.798783 273.526219 
L 246.303154 262.951463 
L 246.55534 262.064893 
L 246.843553 259.115628 
L 247.059712 263.495117 
L 247.311898 263.829418 
L 247.852297 266.142701 
L 248.068456 260.138503 
L 248.320642 264.316997 
L 248.572828 263.604833 
L 248.825014 269.704099 
L 249.0772 271.625434 
L 249.329386 271.401506 
L 249.581572 268.733972 
L 249.833758 268.821763 
L 250.085944 269.08631 
L 250.338129 267.248094 
L 250.590315 264.259972 
L 250.842501 264.797087 
L 251.094687 263.62924 
L 251.599059 256.724085 
L 252.103431 239.762556 
L 252.355617 239.373045 
L 252.607803 239.309335 
L 252.859989 225.703748 
L 253.112175 230.311965 
L 253.364361 230.326428 
L 253.868733 221.771576 
L 254.373105 233.488369 
L 254.877476 221.703455 
L 255.634034 211.938034 
L 255.88622 220.082072 
L 256.138406 219.324688 
L 256.390592 215.592918 
L 256.642778 207.803006 
L 256.894964 208.796131 
L 257.399336 227.149088 
L 257.651522 225.608907 
L 257.903708 221.018452 
L 258.155894 203.734624 
L 258.912452 191.833455 
L 259.416823 184.308655 
L 259.669009 185.387234 
L 260.173381 196.407388 
L 260.425567 207.417882 
L 260.965966 212.308216 
L 261.938683 178.563153 
L 262.190869 188.207408 
L 262.443055 180.844553 
L 262.695241 181.786978 
L 262.947427 170.346677 
L 263.451799 181.13457 
L 263.95617 227.388829 
L 264.208356 227.80794 
L 264.460542 227.99889 
L 264.964914 232.374169 
L 265.721472 212.849943 
L 266.009685 198.279017 
L 266.225844 206.938568 
L 266.47803 206.406806 
L 266.730216 213.449938 
L 266.982402 208.540108 
L 267.234588 209.711243 
L 267.991146 195.059815 
L 268.279358 200.016496 
L 268.495517 191.809921 
L 268.747703 187.308425 
L 268.999889 188.895358 
L 269.252075 178.816097 
L 269.504261 179.505132 
L 269.756447 186.701366 
L 270.008633 186.344087 
L 270.260819 188.872159 
L 270.513005 193.096655 
L 270.765191 192.537128 
L 271.269563 190.96419 
L 271.521749 184.726576 
L 271.773935 181.5616 
L 272.026121 172.998793 
L 272.278307 173.232447 
L 272.530493 152.724376 
L 272.782678 155.323656 
L 273.070891 161.338638 
L 273.28705 169.072452 
L 273.539236 191.059963 
L 273.791422 194.48198 
L 274.043608 189.108138 
L 274.331821 188.727059 
L 274.54798 192.049353 
L 274.800166 190.762699 
L 275.052352 196.892502 
L 275.304538 197.456681 
L 275.80891 174.004158 
L 276.061096 169.71303 
L 276.313282 167.528988 
L 276.565468 166.635073 
L 276.817654 173.213436 
L 277.06984 187.339079 
L 277.322025 186.352718 
L 277.574211 186.220643 
L 277.862424 177.307446 
L 278.078583 183.614784 
L 278.330769 178.14288 
L 278.582955 178.724598 
L 278.835141 183.07142 
L 279.123354 178.070736 
L 279.339513 182.340883 
L 279.591699 182.358176 
L 279.843885 184.426861 
L 280.096071 200.045874 
L 280.348257 230.886158 
L 280.600443 246.078347 
L 280.852629 244.751642 
L 281.104815 250.097883 
L 281.861372 221.998721 
L 282.365744 230.209701 
L 282.61793 239.257182 
L 282.870116 238.654415 
L 283.122302 236.529498 
L 283.374488 236.72129 
L 283.626674 233.912333 
L 283.87886 235.508427 
L 284.131046 231.939546 
L 284.383232 223.87664 
L 284.635418 223.294261 
L 285.13979 219.312495 
L 285.428002 219.853352 
L 285.896348 203.996818 
L 286.18456 203.969501 
L 286.400719 198.8504 
L 286.905091 210.35188 
L 287.157277 205.987028 
L 287.44549 202.937971 
L 287.913835 189.049532 
L 288.166021 188.08732 
L 288.418207 190.749559 
L 288.670393 189.383752 
L 289.174765 172.015128 
L 289.426951 184.96434 
L 289.679137 186.029604 
L 289.931323 202.554736 
L 290.183509 210.082594 
L 290.435695 211.032527 
L 290.68788 214.448197 
L 290.976093 212.770233 
L 291.192252 208.971513 
L 291.444438 212.921258 
L 291.696624 211.506918 
L 291.94881 213.193168 
L 292.200996 208.777757 
L 292.453182 209.13617 
L 292.705368 199.714349 
L 292.957554 199.775088 
L 293.461926 221.77692 
L 293.966298 214.592732 
L 294.506696 178.462676 
L 294.722856 178.175157 
L 294.975042 180.148938 
L 295.479413 187.800663 
L 295.983785 174.48488 
L 296.235971 177.217809 
L 296.740343 202.922739 
L 296.992529 210.783029 
L 297.496901 202.660715 
L 297.749087 187.284101 
L 298.253459 173.557916 
L 298.505645 180.384969 
L 298.757831 158.060697 
L 299.262203 178.303761 
L 299.550415 167.313537 
L 300.01876 176.625085 
L 300.270946 175.302718 
L 300.775318 192.365604 
L 301.27969 190.303267 
L 302.036248 154.98255 
L 302.288434 161.649527 
L 302.54062 178.197618 
L 302.792806 181.702915 
L 303.044992 197.82828 
L 303.297178 202.872809 
L 303.549364 193.596626 
L 303.80155 193.594091 
L 304.089762 180.124254 
L 304.305921 176.449494 
L 304.558107 176.741355 
L 304.810293 179.793892 
L 305.062479 180.164221 
L 305.314665 185.96814 
L 305.566851 171.847258 
L 305.819037 182.625125 
L 306.071223 171.359559 
L 306.323409 169.395404 
L 306.575595 183.839914 
L 307.079967 176.682132 
L 307.332153 180.467543 
L 307.620365 167.295681 
L 307.836525 164.644422 
L 308.088711 165.892491 
L 308.340897 156.9743 
L 308.593082 153.119845 
L 308.845268 151.065846 
L 309.097454 162.116022 
L 309.34964 161.502051 
L 309.601826 179.199869 
L 310.106198 190.01964 
L 310.358384 190.090085 
L 310.61057 178.415658 
L 310.862756 180.241589 
L 311.114942 168.779314 
L 311.367128 164.149088 
L 311.619314 165.029887 
L 311.8715 160.129573 
L 312.123686 147.094572 
L 312.375872 166.167275 
L 312.880243 176.034243 
L 313.132429 193.893766 
L 313.384615 202.696338 
L 313.888987 194.326365 
L 314.141173 195.54183 
L 314.897731 169.549767 
L 315.149917 169.125367 
L 315.654289 190.183058 
L 315.906475 189.1342 
L 316.158661 190.430225 
L 316.410847 194.355364 
L 316.663033 192.832413 
L 316.915219 184.592445 
L 317.203431 183.788494 
L 317.41959 178.927072 
L 317.923962 152.304459 
L 318.176148 143.257523 
L 318.428334 146.779193 
L 318.68052 160.353631 
L 318.932706 155.225306 
L 319.184892 153.651238 
L 319.437078 154.079927 
L 319.689264 178.806992 
L 319.94145 183.97782 
L 320.193636 183.686763 
L 320.445822 174.621677 
L 320.950194 143.838805 
L 321.20238 136.919144 
L 321.454566 152.989488 
L 321.706752 156.767477 
L 321.958937 166.213659 
L 322.211123 190.640968 
L 322.715495 213.216291 
L 322.967681 213.052858 
L 323.472053 208.816028 
L 323.724239 198.702905 
L 323.976425 211.266199 
L 324.228611 203.92082 
L 324.480797 205.434696 
L 324.732983 215.383037 
L 324.985169 209.974879 
L 325.777753 201.492294 
L 325.993913 195.852621 
L 326.246099 210.277878 
L 326.498284 209.778571 
L 326.786497 208.889286 
L 327.002656 206.489458 
L 327.254842 205.673439 
L 327.759214 179.893901 
L 328.0114 185.227362 
L 328.263586 181.361278 
L 328.515772 183.948556 
L 329.020144 176.231786 
L 329.524516 184.342646 
L 329.776702 193.570161 
L 330.028888 191.357191 
L 330.3171 187.127796 
L 330.53326 178.746121 
L 330.785445 164.513035 
L 331.037631 159.282299 
L 331.289817 160.373904 
L 331.542003 162.762118 
L 331.794189 163.665224 
L 332.046375 171.139612 
L 332.298561 174.485411 
L 332.802933 194.208336 
L 333.055119 215.436172 
L 333.307305 216.040807 
L 333.559491 209.946677 
L 333.811677 224.654635 
L 334.316049 215.338642 
L 334.568235 214.947053 
L 334.820421 207.448493 
L 335.072607 219.807439 
L 335.324792 223.113818 
L 335.829164 215.490529 
L 336.08135 217.232622 
L 336.333536 224.219791 
L 336.585722 227.816343 
L 337.34228 214.501328 
L 337.594466 216.200801 
L 337.846652 219.592255 
L 338.098838 226.104487 
L 338.351024 223.446052 
L 338.60321 222.31174 
L 339.107582 231.227607 
L 339.611954 244.818205 
L 339.900166 245.015126 
L 340.116325 247.282325 
L 340.368511 240.735867 
L 340.620697 240.117956 
L 340.872883 238.253683 
L 341.125069 231.106266 
L 341.377255 231.48786 
L 341.881627 215.446096 
L 342.133813 210.691247 
L 342.385999 203.81255 
L 342.890371 215.564271 
L 343.142557 220.4438 
L 343.394743 213.325687 
L 343.682955 212.796388 
L 343.899115 204.713171 
L 344.403486 199.053157 
L 344.655672 215.941175 
L 344.943885 219.562664 
L 345.160044 212.195278 
L 345.41223 212.497647 
L 345.664416 193.39351 
L 345.916602 185.689332 
L 346.168788 194.325512 
L 346.420974 198.73448 
L 346.925346 187.403777 
L 347.213558 157.73829 
L 347.429718 178.275736 
L 347.93409 181.550158 
L 348.186276 193.499357 
L 348.690647 181.106992 
L 348.942833 160.460978 
L 349.699391 217.72453 
L 349.951577 219.890065 
L 350.203763 213.482968 
L 350.455949 213.604375 
L 350.708135 203.587916 
L 350.960321 202.070591 
L 351.248533 197.911437 
L 351.500719 178.29636 
L 351.716879 182.065882 
L 352.005091 177.418824 
L 352.221251 162.013041 
L 352.473437 173.713347 
L 352.725623 178.135658 
L 352.977809 170.245951 
L 353.266021 180.482073 
L 353.48218 174.43068 
L 353.734366 189.521817 
L 353.986552 188.698966 
L 354.238738 182.373896 
L 354.74311 161.580924 
L 354.995296 176.125854 
L 355.499668 158.636704 
L 355.751854 152.929133 
L 356.00404 187.319162 
L 356.256226 193.919209 
L 356.508412 193.933104 
L 356.796624 198.559759 
L 357.012784 184.826118 
L 357.26497 191.588477 
L 357.517156 189.304073 
L 357.769341 193.484148 
L 358.021527 185.146151 
L 358.273713 186.731032 
L 358.778085 160.173726 
L 359.282457 179.860145 
L 359.534643 184.602834 
L 359.786829 178.923744 
L 360.039015 178.086008 
L 360.327227 165.563683 
L 360.543387 167.254947 
L 360.795573 161.020433 
L 361.047759 165.103372 
L 361.299945 166.720762 
L 361.552131 158.916922 
L 362.056502 133.108994 
L 362.560874 194.622737 
L 362.81306 203.438615 
L 363.065246 206.682679 
L 363.821804 180.204283 
L 364.07399 173.424711 
L 364.362203 176.8911 
L 364.614388 173.153876 
L 364.830548 164.862552 
L 365.587106 180.37158 
L 366.091478 208.075531 
L 366.37969 204.959843 
L 366.595849 204.985398 
L 366.848035 211.893801 
L 367.100221 195.315639 
L 367.604593 185.81451 
L 367.856779 193.575683 
L 368.361151 196.257788 
L 368.613337 181.811364 
L 368.865523 186.502625 
L 369.117709 197.435975 
L 369.369895 196.701371 
L 369.910293 183.216181 
L 370.126453 184.022797 
L 370.378639 174.68944 
L 370.630825 176.1578 
L 370.883011 182.51477 
L 371.135196 180.54222 
L 371.387382 171.146002 
L 371.639568 168.892164 
L 371.891754 150.576768 
L 372.396126 193.157296 
L 372.648312 196.535462 
L 373.152684 184.900851 
L 373.440897 161.95414 
L 373.657056 166.587921 
L 374.161428 165.7263 
L 374.413614 160.369955 
L 374.6658 159.037445 
L 374.917986 186.274306 
L 375.170172 191.601216 
L 375.674543 224.116109 
L 375.926729 230.195145 
L 376.178915 231.154887 
L 376.431101 227.446851 
L 376.683287 216.249436 
L 376.935473 217.311437 
L 377.439845 210.432442 
L 377.692031 218.693446 
L 377.944217 222.351375 
L 378.196403 218.85509 
L 378.700775 201.156276 
L 378.952961 188.15088 
L 379.205147 191.598348 
L 379.493359 189.838719 
L 379.709519 189.848409 
L 379.961704 197.91684 
L 380.21389 199.237393 
L 380.718262 185.547124 
L 380.970448 183.313275 
L 381.222634 178.639816 
L 381.47482 176.978311 
L 381.727006 168.647496 
L 381.979192 167.10032 
L 382.231378 188.632499 
L 382.483564 199.570596 
L 382.73575 202.548405 
L 383.240122 194.355208 
L 383.492308 203.199674 
L 383.744494 191.57837 
L 383.99668 187.517517 
L 384.248866 189.326164 
L 385.005423 163.54681 
L 385.257609 168.380986 
L 385.509795 200.14207 
L 385.761981 216.986704 
L 386.014167 222.637655 
L 386.266353 220.829184 
L 386.770725 210.301315 
L 387.022911 211.282067 
L 387.527283 198.465161 
L 387.779469 196.07817 
L 388.031655 190.098052 
L 388.283841 180.543244 
L 388.788213 209.304656 
L 389.292584 215.177344 
L 389.54477 204.575877 
L 389.796956 203.059359 
L 390.049142 188.586847 
L 390.301328 193.249054 
L 390.553514 183.751153 
L 390.8057 182.071175 
L 391.057886 169.723782 
L 391.310072 163.031909 
L 391.598284 166.964498 
L 392.06663 180.151229 
L 392.318816 198.725197 
L 392.823188 209.57103 
L 393.831931 269.670808 
L 394.084117 276.872727 
L 394.336303 276.527591 
L 394.588489 275.710087 
L 395.092861 259.685761 
L 395.345047 258.654941 
L 395.597233 253.15798 
L 395.849419 254.133651 
L 396.137631 252.915326 
L 396.353791 248.933893 
L 396.605977 251.720622 
L 396.858163 257.340513 
L 397.110349 254.021089 
L 397.362535 252.550023 
L 397.866906 223.340921 
L 398.119092 225.652637 
L 398.623464 216.510483 
L 398.87565 223.773213 
L 399.127836 220.282519 
L 399.380022 212.202626 
L 399.632208 214.624036 
L 399.920421 212.849695 
L 400.13658 215.595734 
L 400.388766 217.162503 
L 400.640952 220.575801 
L 401.39751 207.891704 
L 401.649696 207.24725 
L 401.901882 215.870725 
L 402.154068 249.453069 
L 402.406253 251.018335 
L 402.658439 246.613088 
L 402.910625 248.996709 
L 403.162811 243.902655 
L 403.414997 220.016939 
L 403.667183 214.52621 
L 403.919369 215.001126 
L 404.171555 207.632443 
L 404.711954 214.366802 
L 404.928113 206.831173 
L 405.180299 220.033723 
L 405.720697 218.705689 
L 405.936857 220.690567 
L 406.189043 221.55729 
L 406.693414 234.430884 
L 407.197786 230.082175 
L 407.449972 225.784723 
L 407.954344 204.117477 
L 408.458716 192.426765 
L 408.963088 217.273584 
L 409.503486 211.057545 
L 409.719646 205.571377 
L 409.971832 192.145027 
L 410.224018 192.020273 
L 410.476204 198.078489 
L 410.980576 191.047194 
L 411.232761 184.241894 
L 411.484947 195.218735 
L 411.737133 186.114461 
L 411.989319 209.125198 
L 412.241505 208.890173 
L 412.493691 203.421743 
L 412.745877 208.124711 
L 413.03409 199.000681 
L 413.250249 197.659607 
L 413.502435 197.877492 
L 413.754621 189.132417 
L 414.006807 200.187482 
L 414.258993 196.6293 
L 414.511179 197.416932 
L 414.763365 188.185847 
L 415.015551 191.026409 
L 415.267737 214.881798 
L 415.519923 223.651771 
L 415.772108 220.547421 
L 416.27648 226.777256 
L 416.528666 226.283595 
L 416.780852 226.44007 
L 417.033038 228.11919 
L 417.285224 218.92024 
L 417.53741 218.178651 
L 417.825623 218.808598 
L 418.041782 218.761697 
L 418.293968 231.897839 
L 418.546154 232.104763 
L 418.79834 236.041587 
L 419.086552 236.765029 
L 419.302712 243.405094 
L 419.554898 241.785771 
L 420.05927 250.487328 
L 420.815827 231.281267 
L 421.068013 215.425414 
L 421.320199 227.236182 
L 421.572385 225.233275 
L 422.076757 250.483451 
L 422.328943 250.187042 
L 422.617156 252.359093 
L 422.833315 251.873203 
L 423.085501 243.220849 
L 423.373713 245.593789 
L 423.589873 244.879984 
L 423.878085 242.204126 
L 424.094245 242.526708 
L 424.346431 230.441883 
L 424.598616 228.613421 
L 424.850802 225.449202 
L 425.102988 228.478053 
L 425.355174 235.636993 
L 425.60736 234.850703 
L 425.859546 230.920117 
L 426.363918 217.844536 
L 426.616104 221.33003 
L 426.86829 217.545727 
L 427.120476 225.825072 
L 427.372662 228.560426 
L 427.624848 229.185626 
L 427.877034 229.504605 
L 428.12922 226.678648 
L 428.381406 231.825487 
L 428.633592 249.575787 
L 429.137963 247.301049 
L 429.390149 244.435505 
L 429.642335 225.69117 
L 429.894521 223.873999 
L 430.182734 219.654244 
L 430.43492 212.618702 
L 430.651079 217.752129 
L 430.939292 217.587166 
L 431.155451 221.347837 
L 431.407637 215.123135 
L 431.659823 224.547398 
L 432.200221 229.664084 
L 432.668567 219.622389 
L 432.920753 221.992879 
L 433.172939 220.671769 
L 433.425125 225.204696 
L 434.181682 211.617054 
L 434.433868 188.92774 
L 434.686054 195.695307 
L 434.93824 223.713668 
L 435.190426 225.710711 
L 435.442612 230.569933 
L 435.730825 225.43173 
L 435.946984 225.770447 
L 436.19917 227.717962 
L 436.703542 215.539234 
L 437.207914 190.957896 
L 437.4601 199.356346 
L 437.712286 190.402792 
L 437.964471 200.219897 
L 438.468843 224.989848 
L 438.721029 214.313133 
L 438.973215 216.895822 
L 439.261428 207.437155 
L 439.477587 192.247371 
L 439.729773 197.33021 
L 439.981959 189.252437 
L 440.234145 187.230855 
L 440.738517 198.772281 
L 440.990703 202.820521 
L 441.242889 210.763063 
L 441.495075 224.866988 
L 441.747261 228.378885 
L 441.999447 234.167252 
L 442.251633 229.983279 
L 442.756004 211.176328 
L 443.00819 215.236395 
L 443.296403 217.603402 
L 443.548589 208.39733 
L 443.764748 206.687701 
L 444.052961 200.303161 
L 444.26912 189.720634 
L 444.521306 194.857337 
L 445.31389 220.123763 
L 445.782236 225.603 
L 446.286608 216.303748 
L 446.538794 206.417453 
L 446.79098 202.353561 
L 447.043165 200.689505 
L 447.295351 203.090959 
L 447.547537 189.514973 
L 447.799723 196.159296 
L 448.304095 221.948862 
L 448.556281 216.563795 
L 448.844494 215.494278 
L 449.060653 216.956582 
L 449.312839 215.800731 
L 449.565025 212.689501 
L 449.817211 203.739836 
L 450.069397 200.994732 
L 450.321583 192.864209 
L 450.573769 189.997274 
L 451.330327 227.431396 
L 451.582512 232.893514 
L 451.834698 232.570525 
L 452.375097 218.162665 
L 452.591256 210.726647 
L 452.843442 213.674123 
L 453.095628 204.78284 
L 453.347814 207.93742 
L 453.6 193.192994 
L 453.6 193.192994 
" clip-path="url(#p60ab83d09c)" style="fill: none; stroke: #24b8f1; stroke-width: 1.5; stroke-linecap: square"/>
   </g>
   <g id="legend_1">
    <g id="line2d_21">
     <path d="M 72 258.742188 
L 82 258.742188 
L 92 258.742188 
" style="fill: none; stroke: #6a7a8a; stroke-width: 1.5; stroke-linecap: square"/>
    </g>
    <g id="text_15">
     <!-- 1 -->
     <g transform="translate(100 262.242188) scale(0.1 -0.1)">
      <use xlink:href="#DejaVuSans-31"/>
     </g>
    </g>
    <g id="line2d_22">
     <path d="M 72 273.420312 
L 82 273.420312 
L 92 273.420312 
" style="fill: none; stroke: #24b8f1; stroke-width: 1.5; stroke-linecap: square"/>
    </g>
    <g id="text_16">
     <!-- 5 -->
     <g transform="translate(100 276.920312) scale(0.1 -0.1)">
      <defs>
       <path id="DejaVuSans-35" d="M 691 4666 
L 3169 4666 
L 3169 4134 
L 1269 4134 
L 1269 2991 
Q 1406 3038 1543 3061 
Q 1681 3084 1819 3084 
Q 2600 3084 3056 2656 
Q 3513 2228 3513 1497 
Q 3513 744 3044 326 
Q 2575 -91 1722 -91 
Q 1428 -91 1123 -41 
Q 819 9 494 109 
L 494 744 
Q 775 591 1075 516 
Q 1375 441 1709 441 
Q 2250 441 2565 725 
Q 2881 1009 2881 1497 
Q 2881 1984 2565 2268 
Q 2250 2553 1709 2553 
Q 1456 2553 1204 2497 
Q 953 2441 691 2322 
L 691 4666 
z
" transform="scale(0.015625)"/>
      </defs>
      <use xlink:href="#DejaVuSans-35"/>
     </g>
    </g>
   </g>
  </g>
 </g>
 <defs>
  <clipPath id="p60ab83d09c">
   <rect x="63" y="43.2" width="390.6" height="244.8"/>
  </clipPath>
 </defs>
</svg>
