<?xml version="1.0" encoding="utf-8" standalone="no"?>
<!DOCTYPE svg PUBLIC "-//W3C//DTD SVG 1.1//EN"
  "http://www.w3.org/Graphics/SVG/1.1/DTD/svg11.dtd">
<svg xmlns:xlink="http://www.w3.org/1999/xlink" width="432pt" height="288pt" viewBox="0 0 432 288" xmlns="http://www.w3.org/2000/svg" version="1.1">
 <metadata>
  <rdf:RDF xmlns:dc="http://purl.org/dc/elements/1.1/" xmlns:cc="http://creativecommons.org/ns#" xmlns:rdf="http://www.w3.org/1999/02/22-rdf-syntax-ns#">
   <cc:Work>
    <dc:type rdf:resource="http://purl.org/dc/dcmitype/StillImage"/>
    <dc:date>2024-12-22T18:31:00.832858</dc:date>
    <dc:format>image/svg+xml</dc:format>
    <dc:creator>
     <cc:Agent>
      <dc:title>Matplotlib v3.8.3, https://matplotlib.org/</dc:title>
     </cc:Agent>
    </dc:creator>
   </cc:Work>
  </rdf:RDF>
 </metadata>
 <defs>
  <style type="text/css">*{stroke-linejoin: round; stroke-linecap: butt}</style>
 </defs>
 <g id="figure_1">
  <g id="patch_1">
   <path d="M 0 288 
L 432 288 
L 432 0 
L 0 0 
z
" style="fill: #ffffff"/>
  </g>
  <g id="axes_1">
   <g id="patch_2">
    <path d="M 57.17 248.690464 
L 421.2 248.690464 
L 421.2 10.8 
L 57.17 10.8 
z
" style="fill: #ffffff"/>
   </g>
   <g id="matplotlib.axis_1">
    <g id="xtick_1">
     <g id="line2d_1">
      <defs>
       <path id="me08a2e40e9" d="M 0 0 
L 0 3.5 
" style="stroke: #000000; stroke-width: 0.8"/>
      </defs>
      <g>
       <use xlink:href="#me08a2e40e9" x="84.764262" y="248.690464" style="stroke: #000000; stroke-width: 0.8"/>
      </g>
     </g>
     <g id="text_1">
      <!-- 1996 -->
      <g transform="translate(61.684071 274.995904) rotate(-30) scale(0.1 -0.1)">
       <defs>
        <path id="DejaVuSans-31" d="M 794 531 
L 1825 531 
L 1825 4091 
L 703 3866 
L 703 4441 
L 1819 4666 
L 2450 4666 
L 2450 531 
L 3481 531 
L 3481 0 
L 794 0 
L 794 531 
z
" transform="scale(0.015625)"/>
        <path id="DejaVuSans-39" d="M 703 97 
L 703 672 
Q 941 559 1184 500 
Q 1428 441 1663 441 
Q 2288 441 2617 861 
Q 2947 1281 2994 2138 
Q 2813 1869 2534 1725 
Q 2256 1581 1919 1581 
Q 1219 1581 811 2004 
Q 403 2428 403 3163 
Q 403 3881 828 4315 
Q 1253 4750 1959 4750 
Q 2769 4750 3195 4129 
Q 3622 3509 3622 2328 
Q 3622 1225 3098 567 
Q 2575 -91 1691 -91 
Q 1453 -91 1209 -44 
Q 966 3 703 97 
z
M 1959 2075 
Q 2384 2075 2632 2365 
Q 2881 2656 2881 3163 
Q 2881 3666 2632 3958 
Q 2384 4250 1959 4250 
Q 1534 4250 1286 3958 
Q 1038 3666 1038 3163 
Q 1038 2656 1286 2365 
Q 1534 2075 1959 2075 
z
" transform="scale(0.015625)"/>
        <path id="DejaVuSans-36" d="M 2113 2584 
Q 1688 2584 1439 2293 
Q 1191 2003 1191 1497 
Q 1191 994 1439 701 
Q 1688 409 2113 409 
Q 2538 409 2786 701 
Q 3034 994 3034 1497 
Q 3034 2003 2786 2293 
Q 2538 2584 2113 2584 
z
M 3366 4563 
L 3366 3988 
Q 3128 4100 2886 4159 
Q 2644 4219 2406 4219 
Q 1781 4219 1451 3797 
Q 1122 3375 1075 2522 
Q 1259 2794 1537 2939 
Q 1816 3084 2150 3084 
Q 2853 3084 3261 2657 
Q 3669 2231 3669 1497 
Q 3669 778 3244 343 
Q 2819 -91 2113 -91 
Q 1303 -91 875 529 
Q 447 1150 447 2328 
Q 447 3434 972 4092 
Q 1497 4750 2381 4750 
Q 2619 4750 2861 4703 
Q 3103 4656 3366 4563 
z
" transform="scale(0.015625)"/>
       </defs>
       <use xlink:href="#DejaVuSans-31"/>
       <use xlink:href="#DejaVuSans-39" x="63.623047"/>
       <use xlink:href="#DejaVuSans-39" x="127.246094"/>
       <use xlink:href="#DejaVuSans-36" x="190.869141"/>
      </g>
     </g>
    </g>
    <g id="xtick_2">
     <g id="line2d_2">
      <g>
       <use xlink:href="#me08a2e40e9" x="129.227939" y="248.690464" style="stroke: #000000; stroke-width: 0.8"/>
      </g>
     </g>
     <g id="text_2">
      <!-- 2000 -->
      <g transform="translate(106.147749 274.995904) rotate(-30) scale(0.1 -0.1)">
       <defs>
        <path id="DejaVuSans-32" d="M 1228 531 
L 3431 531 
L 3431 0 
L 469 0 
L 469 531 
Q 828 903 1448 1529 
Q 2069 2156 2228 2338 
Q 2531 2678 2651 2914 
Q 2772 3150 2772 3378 
Q 2772 3750 2511 3984 
Q 2250 4219 1831 4219 
Q 1534 4219 1204 4116 
Q 875 4013 500 3803 
L 500 4441 
Q 881 4594 1212 4672 
Q 1544 4750 1819 4750 
Q 2544 4750 2975 4387 
Q 3406 4025 3406 3419 
Q 3406 3131 3298 2873 
Q 3191 2616 2906 2266 
Q 2828 2175 2409 1742 
Q 1991 1309 1228 531 
z
" transform="scale(0.015625)"/>
        <path id="DejaVuSans-30" d="M 2034 4250 
Q 1547 4250 1301 3770 
Q 1056 3291 1056 2328 
Q 1056 1369 1301 889 
Q 1547 409 2034 409 
Q 2525 409 2770 889 
Q 3016 1369 3016 2328 
Q 3016 3291 2770 3770 
Q 2525 4250 2034 4250 
z
M 2034 4750 
Q 2819 4750 3233 4129 
Q 3647 3509 3647 2328 
Q 3647 1150 3233 529 
Q 2819 -91 2034 -91 
Q 1250 -91 836 529 
Q 422 1150 422 2328 
Q 422 3509 836 4129 
Q 1250 4750 2034 4750 
z
" transform="scale(0.015625)"/>
       </defs>
       <use xlink:href="#DejaVuSans-32"/>
       <use xlink:href="#DejaVuSans-30" x="63.623047"/>
       <use xlink:href="#DejaVuSans-30" x="127.246094"/>
       <use xlink:href="#DejaVuSans-30" x="190.869141"/>
      </g>
     </g>
    </g>
    <g id="xtick_3">
     <g id="line2d_3">
      <g>
       <use xlink:href="#me08a2e40e9" x="173.691616" y="248.690464" style="stroke: #000000; stroke-width: 0.8"/>
      </g>
     </g>
     <g id="text_3">
      <!-- 2004 -->
      <g transform="translate(150.611426 274.995904) rotate(-30) scale(0.1 -0.1)">
       <defs>
        <path id="DejaVuSans-34" d="M 2419 4116 
L 825 1625 
L 2419 1625 
L 2419 4116 
z
M 2253 4666 
L 3047 4666 
L 3047 1625 
L 3713 1625 
L 3713 1100 
L 3047 1100 
L 3047 0 
L 2419 0 
L 2419 1100 
L 313 1100 
L 313 1709 
L 2253 4666 
z
" transform="scale(0.015625)"/>
       </defs>
       <use xlink:href="#DejaVuSans-32"/>
       <use xlink:href="#DejaVuSans-30" x="63.623047"/>
       <use xlink:href="#DejaVuSans-30" x="127.246094"/>
       <use xlink:href="#DejaVuSans-34" x="190.869141"/>
      </g>
     </g>
    </g>
    <g id="xtick_4">
     <g id="line2d_4">
      <g>
       <use xlink:href="#me08a2e40e9" x="218.155294" y="248.690464" style="stroke: #000000; stroke-width: 0.8"/>
      </g>
     </g>
     <g id="text_4">
      <!-- 2008 -->
      <g transform="translate(195.075103 274.995904) rotate(-30) scale(0.1 -0.1)">
       <defs>
        <path id="DejaVuSans-38" d="M 2034 2216 
Q 1584 2216 1326 1975 
Q 1069 1734 1069 1313 
Q 1069 891 1326 650 
Q 1584 409 2034 409 
Q 2484 409 2743 651 
Q 3003 894 3003 1313 
Q 3003 1734 2745 1975 
Q 2488 2216 2034 2216 
z
M 1403 2484 
Q 997 2584 770 2862 
Q 544 3141 544 3541 
Q 544 4100 942 4425 
Q 1341 4750 2034 4750 
Q 2731 4750 3128 4425 
Q 3525 4100 3525 3541 
Q 3525 3141 3298 2862 
Q 3072 2584 2669 2484 
Q 3125 2378 3379 2068 
Q 3634 1759 3634 1313 
Q 3634 634 3220 271 
Q 2806 -91 2034 -91 
Q 1263 -91 848 271 
Q 434 634 434 1313 
Q 434 1759 690 2068 
Q 947 2378 1403 2484 
z
M 1172 3481 
Q 1172 3119 1398 2916 
Q 1625 2713 2034 2713 
Q 2441 2713 2670 2916 
Q 2900 3119 2900 3481 
Q 2900 3844 2670 4047 
Q 2441 4250 2034 4250 
Q 1625 4250 1398 4047 
Q 1172 3844 1172 3481 
z
" transform="scale(0.015625)"/>
       </defs>
       <use xlink:href="#DejaVuSans-32"/>
       <use xlink:href="#DejaVuSans-30" x="63.623047"/>
       <use xlink:href="#DejaVuSans-30" x="127.246094"/>
       <use xlink:href="#DejaVuSans-38" x="190.869141"/>
      </g>
     </g>
    </g>
    <g id="xtick_5">
     <g id="line2d_5">
      <g>
       <use xlink:href="#me08a2e40e9" x="262.618971" y="248.690464" style="stroke: #000000; stroke-width: 0.8"/>
      </g>
     </g>
     <g id="text_5">
      <!-- 2012 -->
      <g transform="translate(239.538781 274.995904) rotate(-30) scale(0.1 -0.1)">
       <use xlink:href="#DejaVuSans-32"/>
       <use xlink:href="#DejaVuSans-30" x="63.623047"/>
       <use xlink:href="#DejaVuSans-31" x="127.246094"/>
       <use xlink:href="#DejaVuSans-32" x="190.869141"/>
      </g>
     </g>
    </g>
    <g id="xtick_6">
     <g id="line2d_6">
      <g>
       <use xlink:href="#me08a2e40e9" x="307.082648" y="248.690464" style="stroke: #000000; stroke-width: 0.8"/>
      </g>
     </g>
     <g id="text_6">
      <!-- 2016 -->
      <g transform="translate(284.002458 274.995904) rotate(-30) scale(0.1 -0.1)">
       <use xlink:href="#DejaVuSans-32"/>
       <use xlink:href="#DejaVuSans-30" x="63.623047"/>
       <use xlink:href="#DejaVuSans-31" x="127.246094"/>
       <use xlink:href="#DejaVuSans-36" x="190.869141"/>
      </g>
     </g>
    </g>
    <g id="xtick_7">
     <g id="line2d_7">
      <g>
       <use xlink:href="#me08a2e40e9" x="351.546326" y="248.690464" style="stroke: #000000; stroke-width: 0.8"/>
      </g>
     </g>
     <g id="text_7">
      <!-- 2020 -->
      <g transform="translate(328.466135 274.995904) rotate(-30) scale(0.1 -0.1)">
       <use xlink:href="#DejaVuSans-32"/>
       <use xlink:href="#DejaVuSans-30" x="63.623047"/>
       <use xlink:href="#DejaVuSans-32" x="127.246094"/>
       <use xlink:href="#DejaVuSans-30" x="190.869141"/>
      </g>
     </g>
    </g>
    <g id="xtick_8">
     <g id="line2d_8">
      <g>
       <use xlink:href="#me08a2e40e9" x="396.010003" y="248.690464" style="stroke: #000000; stroke-width: 0.8"/>
      </g>
     </g>
     <g id="text_8">
      <!-- 2024 -->
      <g transform="translate(372.929813 274.995904) rotate(-30) scale(0.1 -0.1)">
       <use xlink:href="#DejaVuSans-32"/>
       <use xlink:href="#DejaVuSans-30" x="63.623047"/>
       <use xlink:href="#DejaVuSans-32" x="127.246094"/>
       <use xlink:href="#DejaVuSans-34" x="190.869141"/>
      </g>
     </g>
    </g>
   </g>
   <g id="matplotlib.axis_2">
    <g id="ytick_1">
     <g id="line2d_9">
      <path d="M 57.17 242.336314 
L 421.2 242.336314 
" clip-path="url(#pf235e78ec9)" style="fill: none; stroke: #d3d3d3; stroke-width: 0.3; stroke-linecap: square"/>
     </g>
     <g id="line2d_10">
      <defs>
       <path id="m6c91cbc468" d="M 0 0 
L -3.5 0 
" style="stroke: #000000; stroke-width: 0.8"/>
      </defs>
      <g>
       <use xlink:href="#m6c91cbc468" x="57.17" y="242.336314" style="stroke: #000000; stroke-width: 0.8"/>
      </g>
     </g>
     <g id="text_9">
      <!-- 940 -->
      <g transform="translate(31.0825 246.135533) scale(0.1 -0.1)">
       <use xlink:href="#DejaVuSans-39"/>
       <use xlink:href="#DejaVuSans-34" x="63.623047"/>
       <use xlink:href="#DejaVuSans-30" x="127.246094"/>
      </g>
     </g>
    </g>
    <g id="ytick_2">
     <g id="line2d_11">
      <path d="M 57.17 197.745786 
L 421.2 197.745786 
" clip-path="url(#pf235e78ec9)" style="fill: none; stroke: #d3d3d3; stroke-width: 0.3; stroke-linecap: square"/>
     </g>
     <g id="line2d_12">
      <g>
       <use xlink:href="#m6c91cbc468" x="57.17" y="197.745786" style="stroke: #000000; stroke-width: 0.8"/>
      </g>
     </g>
     <g id="text_10">
      <!-- 960 -->
      <g transform="translate(31.0825 201.545005) scale(0.1 -0.1)">
       <use xlink:href="#DejaVuSans-39"/>
       <use xlink:href="#DejaVuSans-36" x="63.623047"/>
       <use xlink:href="#DejaVuSans-30" x="127.246094"/>
      </g>
     </g>
    </g>
    <g id="ytick_3">
     <g id="line2d_13">
      <path d="M 57.17 153.155259 
L 421.2 153.155259 
" clip-path="url(#pf235e78ec9)" style="fill: none; stroke: #d3d3d3; stroke-width: 0.3; stroke-linecap: square"/>
     </g>
     <g id="line2d_14">
      <g>
       <use xlink:href="#m6c91cbc468" x="57.17" y="153.155259" style="stroke: #000000; stroke-width: 0.8"/>
      </g>
     </g>
     <g id="text_11">
      <!-- 980 -->
      <g transform="translate(31.0825 156.954478) scale(0.1 -0.1)">
       <use xlink:href="#DejaVuSans-39"/>
       <use xlink:href="#DejaVuSans-38" x="63.623047"/>
       <use xlink:href="#DejaVuSans-30" x="127.246094"/>
      </g>
     </g>
    </g>
    <g id="ytick_4">
     <g id="line2d_15">
      <path d="M 57.17 108.564731 
L 421.2 108.564731 
" clip-path="url(#pf235e78ec9)" style="fill: none; stroke: #d3d3d3; stroke-width: 0.3; stroke-linecap: square"/>
     </g>
     <g id="line2d_16">
      <g>
       <use xlink:href="#m6c91cbc468" x="57.17" y="108.564731" style="stroke: #000000; stroke-width: 0.8"/>
      </g>
     </g>
     <g id="text_12">
      <!-- 1000 -->
      <g transform="translate(24.72 112.36395) scale(0.1 -0.1)">
       <use xlink:href="#DejaVuSans-31"/>
       <use xlink:href="#DejaVuSans-30" x="63.623047"/>
       <use xlink:href="#DejaVuSans-30" x="127.246094"/>
       <use xlink:href="#DejaVuSans-30" x="190.869141"/>
      </g>
     </g>
    </g>
    <g id="ytick_5">
     <g id="line2d_17">
      <path d="M 57.17 63.974204 
L 421.2 63.974204 
" clip-path="url(#pf235e78ec9)" style="fill: none; stroke: #d3d3d3; stroke-width: 0.3; stroke-linecap: square"/>
     </g>
     <g id="line2d_18">
      <g>
       <use xlink:href="#m6c91cbc468" x="57.17" y="63.974204" style="stroke: #000000; stroke-width: 0.8"/>
      </g>
     </g>
     <g id="text_13">
      <!-- 1020 -->
      <g transform="translate(24.72 67.773423) scale(0.1 -0.1)">
       <use xlink:href="#DejaVuSans-31"/>
       <use xlink:href="#DejaVuSans-30" x="63.623047"/>
       <use xlink:href="#DejaVuSans-32" x="127.246094"/>
       <use xlink:href="#DejaVuSans-30" x="190.869141"/>
      </g>
     </g>
    </g>
    <g id="ytick_6">
     <g id="line2d_19">
      <path d="M 57.17 19.383677 
L 421.2 19.383677 
" clip-path="url(#pf235e78ec9)" style="fill: none; stroke: #d3d3d3; stroke-width: 0.3; stroke-linecap: square"/>
     </g>
     <g id="line2d_20">
      <g>
       <use xlink:href="#m6c91cbc468" x="57.17" y="19.383677" style="stroke: #000000; stroke-width: 0.8"/>
      </g>
     </g>
     <g id="text_14">
      <!-- 1040 -->
      <g transform="translate(24.72 23.182895) scale(0.1 -0.1)">
       <use xlink:href="#DejaVuSans-31"/>
       <use xlink:href="#DejaVuSans-30" x="63.623047"/>
       <use xlink:href="#DejaVuSans-34" x="127.246094"/>
       <use xlink:href="#DejaVuSans-30" x="190.869141"/>
      </g>
     </g>
    </g>
    <g id="text_15">
     <!-- Nr Stocks -->
     <g transform="translate(18.640313 153.573357) rotate(-90) scale(0.1 -0.1)">
      <defs>
       <path id="DejaVuSans-4e" d="M 628 4666 
L 1478 4666 
L 3547 763 
L 3547 4666 
L 4159 4666 
L 4159 0 
L 3309 0 
L 1241 3903 
L 1241 0 
L 628 0 
L 628 4666 
z
" transform="scale(0.015625)"/>
       <path id="DejaVuSans-72" d="M 2631 2963 
Q 2534 3019 2420 3045 
Q 2306 3072 2169 3072 
Q 1681 3072 1420 2755 
Q 1159 2438 1159 1844 
L 1159 0 
L 581 0 
L 581 3500 
L 1159 3500 
L 1159 2956 
Q 1341 3275 1631 3429 
Q 1922 3584 2338 3584 
Q 2397 3584 2469 3576 
Q 2541 3569 2628 3553 
L 2631 2963 
z
" transform="scale(0.015625)"/>
       <path id="DejaVuSans-20" transform="scale(0.015625)"/>
       <path id="DejaVuSans-53" d="M 3425 4513 
L 3425 3897 
Q 3066 4069 2747 4153 
Q 2428 4238 2131 4238 
Q 1616 4238 1336 4038 
Q 1056 3838 1056 3469 
Q 1056 3159 1242 3001 
Q 1428 2844 1947 2747 
L 2328 2669 
Q 3034 2534 3370 2195 
Q 3706 1856 3706 1288 
Q 3706 609 3251 259 
Q 2797 -91 1919 -91 
Q 1588 -91 1214 -16 
Q 841 59 441 206 
L 441 856 
Q 825 641 1194 531 
Q 1563 422 1919 422 
Q 2459 422 2753 634 
Q 3047 847 3047 1241 
Q 3047 1584 2836 1778 
Q 2625 1972 2144 2069 
L 1759 2144 
Q 1053 2284 737 2584 
Q 422 2884 422 3419 
Q 422 4038 858 4394 
Q 1294 4750 2059 4750 
Q 2388 4750 2728 4690 
Q 3069 4631 3425 4513 
z
" transform="scale(0.015625)"/>
       <path id="DejaVuSans-74" d="M 1172 4494 
L 1172 3500 
L 2356 3500 
L 2356 3053 
L 1172 3053 
L 1172 1153 
Q 1172 725 1289 603 
Q 1406 481 1766 481 
L 2356 481 
L 2356 0 
L 1766 0 
Q 1100 0 847 248 
Q 594 497 594 1153 
L 594 3053 
L 172 3053 
L 172 3500 
L 594 3500 
L 594 4494 
L 1172 4494 
z
" transform="scale(0.015625)"/>
       <path id="DejaVuSans-6f" d="M 1959 3097 
Q 1497 3097 1228 2736 
Q 959 2375 959 1747 
Q 959 1119 1226 758 
Q 1494 397 1959 397 
Q 2419 397 2687 759 
Q 2956 1122 2956 1747 
Q 2956 2369 2687 2733 
Q 2419 3097 1959 3097 
z
M 1959 3584 
Q 2709 3584 3137 3096 
Q 3566 2609 3566 1747 
Q 3566 888 3137 398 
Q 2709 -91 1959 -91 
Q 1206 -91 779 398 
Q 353 888 353 1747 
Q 353 2609 779 3096 
Q 1206 3584 1959 3584 
z
" transform="scale(0.015625)"/>
       <path id="DejaVuSans-63" d="M 3122 3366 
L 3122 2828 
Q 2878 2963 2633 3030 
Q 2388 3097 2138 3097 
Q 1578 3097 1268 2742 
Q 959 2388 959 1747 
Q 959 1106 1268 751 
Q 1578 397 2138 397 
Q 2388 397 2633 464 
Q 2878 531 3122 666 
L 3122 134 
Q 2881 22 2623 -34 
Q 2366 -91 2075 -91 
Q 1284 -91 818 406 
Q 353 903 353 1747 
Q 353 2603 823 3093 
Q 1294 3584 2113 3584 
Q 2378 3584 2631 3529 
Q 2884 3475 3122 3366 
z
" transform="scale(0.015625)"/>
       <path id="DejaVuSans-6b" d="M 581 4863 
L 1159 4863 
L 1159 1991 
L 2875 3500 
L 3609 3500 
L 1753 1863 
L 3688 0 
L 2938 0 
L 1159 1709 
L 1159 0 
L 581 0 
L 581 4863 
z
" transform="scale(0.015625)"/>
       <path id="DejaVuSans-73" d="M 2834 3397 
L 2834 2853 
Q 2591 2978 2328 3040 
Q 2066 3103 1784 3103 
Q 1356 3103 1142 2972 
Q 928 2841 928 2578 
Q 928 2378 1081 2264 
Q 1234 2150 1697 2047 
L 1894 2003 
Q 2506 1872 2764 1633 
Q 3022 1394 3022 966 
Q 3022 478 2636 193 
Q 2250 -91 1575 -91 
Q 1294 -91 989 -36 
Q 684 19 347 128 
L 347 722 
Q 666 556 975 473 
Q 1284 391 1588 391 
Q 1994 391 2212 530 
Q 2431 669 2431 922 
Q 2431 1156 2273 1281 
Q 2116 1406 1581 1522 
L 1381 1569 
Q 847 1681 609 1914 
Q 372 2147 372 2553 
Q 372 3047 722 3315 
Q 1072 3584 1716 3584 
Q 2034 3584 2315 3537 
Q 2597 3491 2834 3397 
z
" transform="scale(0.015625)"/>
      </defs>
      <use xlink:href="#DejaVuSans-4e"/>
      <use xlink:href="#DejaVuSans-72" x="74.804688"/>
      <use xlink:href="#DejaVuSans-20" x="115.917969"/>
      <use xlink:href="#DejaVuSans-53" x="147.705078"/>
      <use xlink:href="#DejaVuSans-74" x="211.181641"/>
      <use xlink:href="#DejaVuSans-6f" x="250.390625"/>
      <use xlink:href="#DejaVuSans-63" x="311.572266"/>
      <use xlink:href="#DejaVuSans-6b" x="366.552734"/>
      <use xlink:href="#DejaVuSans-73" x="424.462891"/>
     </g>
    </g>
   </g>
   <g id="line2d_21">
    <path d="M 73.716818 168.761943 
L 73.808119 164.302891 
L 73.899421 164.302891 
L 73.960288 162.073364 
L 73.990722 166.532417 
L 74.021155 162.073364 
L 74.112457 166.532417 
L 74.173324 162.073364 
L 74.234192 164.302891 
L 74.325493 166.532417 
L 74.416794 162.073364 
L 74.447228 164.302891 
L 74.538529 164.302891 
L 74.568963 150.925733 
L 74.599396 166.532417 
L 74.62983 166.532417 
L 74.751565 166.532417 
L 74.8733 168.761943 
L 75.025469 166.532417 
L 75.055902 168.761943 
L 75.086336 166.532417 
L 75.208071 168.761943 
L 75.238505 166.532417 
L 75.268938 168.761943 
L 75.299372 173.220996 
L 75.390673 170.99147 
L 75.421107 155.384785 
L 75.451541 175.450523 
L 75.481974 175.450523 
L 75.603709 177.680049 
L 75.664577 175.450523 
L 75.695011 177.680049 
L 75.725444 179.909575 
L 75.93848 173.220996 
L 76.121083 173.220996 
L 76.242818 175.450523 
L 76.364553 164.302891 
L 76.455854 179.909575 
L 76.547155 177.680049 
L 76.66889 175.450523 
L 76.699324 179.909575 
L 76.760191 175.450523 
L 76.881926 175.450523 
L 76.91236 179.909575 
L 76.973227 177.680049 
L 77.094962 175.450523 
L 77.15583 175.450523 
L 77.216697 170.99147 
L 77.368866 195.51626 
L 77.521034 191.057207 
L 77.551468 193.286734 
L 77.581902 188.827681 
L 77.612335 191.057207 
L 77.73407 188.827681 
L 77.764504 191.057207 
L 77.825372 188.827681 
L 77.855805 188.827681 
L 77.947106 193.286734 
L 78.068841 188.827681 
L 78.190576 193.286734 
L 78.22101 182.139102 
L 78.281877 119.712363 
L 78.403612 121.94189 
L 78.494914 119.712363 
L 78.677516 119.712363 
L 78.70795 124.171416 
L 78.890552 117.482837 
L 78.920986 119.712363 
L 79.134022 113.023784 
L 79.28619 119.712363 
L 79.347058 117.482837 
L 79.438359 117.482837 
L 79.560094 121.94189 
L 79.681829 117.482837 
L 79.712263 119.712363 
L 79.77313 119.712363 
L 79.894865 117.482837 
L 79.986166 124.171416 
L 80.077467 117.482837 
L 80.168769 124.171416 
L 80.199202 121.94189 
L 80.381805 128.630469 
L 80.50354 124.171416 
L 80.533973 126.400942 
L 80.564407 121.94189 
L 80.594841 124.171416 
L 80.716576 124.171416 
L 80.807877 121.94189 
L 80.838311 124.171416 
L 80.960046 119.712363 
L 81.020913 117.482837 
L 81.051347 128.630469 
L 81.173082 128.630469 
L 81.203515 130.859995 
L 81.264383 128.630469 
L 81.477419 128.630469 
L 81.56872 133.089522 
L 81.690455 128.630469 
L 81.781756 130.859995 
L 81.842624 128.630469 
L 81.903491 126.400942 
L 81.994792 135.319048 
L 82.116527 135.319048 
L 82.207828 139.778101 
L 82.329563 133.089522 
L 82.420865 133.089522 
L 82.542599 137.548574 
L 82.633901 133.089522 
L 82.664334 135.319048 
L 82.694768 137.548574 
L 82.725202 133.089522 
L 82.87737 133.089522 
L 82.968672 139.778101 
L 83.181708 135.319048 
L 83.273009 135.319048 
L 83.303443 137.548574 
L 83.36431 135.319048 
L 83.546912 135.319048 
L 83.60778 144.237153 
L 83.790382 133.089522 
L 83.912117 146.46668 
L 83.942551 148.696206 
L 83.972985 144.237153 
L 84.033852 144.237153 
L 84.125153 146.46668 
L 84.246888 142.007627 
L 84.429491 139.778101 
L 84.459924 142.007627 
L 84.581659 139.778101 
L 84.612093 142.007627 
L 84.642527 137.548574 
L 84.67296 135.319048 
L 84.855563 146.46668 
L 84.885997 144.237153 
L 84.977298 150.925733 
L 85.099033 142.007627 
L 85.312069 142.007627 
L 85.40337 144.237153 
L 85.525105 142.007627 
L 85.677273 142.007627 
L 85.738141 150.925733 
L 85.920743 148.696206 
L 86.164213 148.696206 
L 86.316382 150.925733 
L 86.377249 148.696206 
L 86.498984 148.696206 
L 86.681587 157.614312 
L 86.803321 155.384785 
L 86.894623 157.614312 
L 87.016358 155.384785 
L 87.107659 155.384785 
L 87.229394 153.155259 
L 87.44243 153.155259 
L 87.533731 166.532417 
L 87.625032 164.302891 
L 87.746767 166.532417 
L 87.868502 164.302891 
L 88.26414 164.302891 
L 88.294574 166.532417 
L 88.416309 164.302891 
L 88.50761 168.761943 
L 88.598911 168.761943 
L 88.720646 164.302891 
L 89.055417 164.302891 
L 89.146719 168.761943 
L 89.359755 164.302891 
L 89.542357 110.794258 
L 89.572791 115.253311 
L 89.755393 110.794258 
L 89.785827 110.794258 
L 89.907562 113.023784 
L 89.968429 110.794258 
L 89.998863 113.023784 
L 90.090164 110.794258 
L 90.120598 113.023784 
L 90.181465 110.794258 
L 90.211899 110.794258 
L 90.424935 121.94189 
L 90.637971 117.482837 
L 91.003176 117.482837 
L 91.03361 121.94189 
L 91.064043 117.482837 
L 91.216212 117.482837 
L 91.27708 128.630469 
L 91.368381 124.171416 
L 91.398814 126.400942 
L 91.429248 128.630469 
L 91.459682 124.171416 
L 91.490116 124.171416 
L 91.642284 126.400942 
L 91.703152 121.94189 
L 91.916188 126.400942 
L 92.007489 124.171416 
L 92.068356 121.94189 
L 92.09879 128.630469 
L 92.129224 121.94189 
L 92.311826 135.319048 
L 92.34226 133.089522 
L 92.433561 135.319048 
L 92.555296 133.089522 
L 92.677031 133.089522 
L 92.768332 130.859995 
L 92.859633 130.859995 
L 92.890067 133.089522 
L 92.950935 130.859995 
L 93.346573 130.859995 
L 93.377007 133.089522 
L 93.407441 130.859995 
L 93.498742 133.089522 
L 93.620477 130.859995 
L 93.803079 130.859995 
L 93.955248 135.319048 
L 94.046549 124.171416 
L 94.13785 130.859995 
L 94.229151 124.171416 
L 94.259585 126.400942 
L 94.411754 126.400942 
L 94.472621 124.171416 
L 94.594356 124.171416 
L 94.62479 128.630469 
L 94.685657 126.400942 
L 94.807392 124.171416 
L 95.020428 135.319048 
L 95.111729 133.089522 
L 95.233464 137.548574 
L 95.324765 128.630469 
L 95.4465 128.630469 
L 95.476934 130.859995 
L 95.537802 128.630469 
L 95.720404 128.630469 
L 95.750838 133.089522 
L 95.872573 128.630469 
L 95.963874 135.319048 
L 96.146476 133.089522 
L 96.298645 133.089522 
L 96.329078 135.319048 
L 96.389946 133.089522 
L 96.572548 133.089522 
L 96.694283 135.319048 
L 96.724717 133.089522 
L 96.755151 137.548574 
L 96.785584 135.319048 
L 96.816018 135.319048 
L 96.99862 139.778101 
L 97.120355 137.548574 
L 97.24209 139.778101 
L 97.455126 137.548574 
L 97.668163 137.548574 
L 97.850765 142.007627 
L 97.881199 139.778101 
L 97.9725 144.237153 
L 98.094235 139.778101 
L 98.185536 139.778101 
L 98.307271 142.007627 
L 98.489873 139.778101 
L 98.611608 139.778101 
L 98.733343 146.46668 
L 98.885512 144.237153 
L 98.915945 146.46668 
L 98.946379 144.237153 
L 99.03768 146.46668 
L 99.128981 144.237153 
L 99.250716 146.46668 
L 99.311584 144.237153 
L 99.342018 146.46668 
L 99.463752 146.46668 
L 99.52462 144.237153 
L 99.555054 153.155259 
L 99.585487 148.696206 
L 99.737656 148.696206 
L 99.76809 150.925733 
L 99.798524 148.696206 
L 99.950692 148.696206 
L 99.981126 150.925733 
L 100.01156 148.696206 
L 100.194162 144.237153 
L 100.376764 144.237153 
L 100.407198 148.696206 
L 100.437632 146.46668 
L 100.620234 113.023784 
L 100.772403 113.023784 
L 100.863704 110.794258 
L 101.228909 110.794258 
L 101.259342 113.023784 
L 101.289776 110.794258 
L 101.381077 108.564731 
L 101.472379 128.630469 
L 101.624547 126.400942 
L 101.715848 128.630469 
L 101.898451 126.400942 
L 102.081053 126.400942 
L 102.111487 124.171416 
L 102.141921 126.400942 
L 102.263656 124.171416 
L 102.294089 126.400942 
L 102.324523 124.171416 
L 102.354957 146.46668 
L 102.446258 144.237153 
L 102.537559 144.237153 
L 102.659294 142.007627 
L 102.750595 142.007627 
L 102.781029 144.237153 
L 102.963631 142.007627 
L 102.994065 144.237153 
L 103.146234 142.007627 
L 103.35927 150.925733 
L 103.754908 150.925733 
L 103.785342 153.155259 
L 103.846209 150.925733 
L 104.18098 150.925733 
L 104.272282 157.614312 
L 105.124426 157.614312 
L 105.307028 162.073364 
L 105.337462 162.073364 
L 105.459197 159.843838 
L 105.489631 162.073364 
L 105.550498 159.843838 
L 105.672233 162.073364 
L 105.763534 159.843838 
L 105.854835 159.843838 
L 105.885269 164.302891 
L 105.97657 162.073364 
L 106.189606 175.450523 
L 106.341775 173.220996 
L 106.372209 175.450523 
L 106.402643 170.99147 
L 106.493944 173.220996 
L 106.615679 168.761943 
L 106.980883 168.761943 
L 107.041751 175.450523 
L 107.133052 173.220996 
L 107.254787 175.450523 
L 107.376522 175.450523 
L 107.437389 173.220996 
L 107.467823 177.680049 
L 107.680859 170.99147 
L 107.893895 170.99147 
L 108.106931 177.680049 
L 108.289534 175.450523 
L 108.533004 175.450523 
L 108.624305 177.680049 
L 108.74604 175.450523 
L 108.928642 184.368628 
L 109.050377 184.368628 
L 109.172112 182.139102 
L 109.293847 182.139102 
L 109.324281 184.368628 
L 109.385148 182.139102 
L 109.56775 179.909575 
L 109.598184 179.909575 
L 109.719919 177.680049 
L 109.81122 182.139102 
L 110.572063 182.139102 
L 110.754666 188.827681 
L 110.815533 188.827681 
L 110.845967 191.057207 
L 110.876401 188.827681 
L 110.967702 188.827681 
L 110.998136 191.057207 
L 111.028569 186.598154 
L 111.241605 186.598154 
L 111.272039 188.827681 
L 111.302473 186.598154 
L 111.454642 186.598154 
L 111.485075 188.827681 
L 111.515509 186.598154 
L 111.698111 110.794258 
L 112.09375 110.794258 
L 112.154617 113.023784 
L 112.33722 110.794258 
L 112.367653 110.794258 
L 112.489388 108.564731 
L 112.550256 124.171416 
L 112.976328 124.171416 
L 113.006762 126.400942 
L 113.098063 124.171416 
L 113.128497 126.400942 
L 113.189364 124.171416 
L 113.219798 124.171416 
L 113.311099 126.400942 
L 113.432834 124.171416 
L 113.615436 142.007627 
L 113.64587 142.007627 
L 113.828472 139.778101 
L 114.193677 139.778101 
L 114.224111 142.007627 
L 114.284978 139.778101 
L 114.376279 139.778101 
L 114.498014 153.155259 
L 114.619749 153.155259 
L 114.650183 155.384785 
L 114.71105 153.155259 
L 114.802352 155.384785 
L 114.924087 153.155259 
L 115.015388 153.155259 
L 115.045821 155.384785 
L 115.106689 153.155259 
L 115.137123 153.155259 
L 115.228424 155.384785 
L 115.289291 153.155259 
L 115.350159 177.680049 
L 115.958833 177.680049 
L 115.989267 179.909575 
L 116.171869 177.680049 
L 116.415339 197.745786 
L 116.597942 193.286734 
L 116.719677 193.286734 
L 116.841411 191.057207 
L 117.145749 191.057207 
L 117.267484 195.51626 
L 117.389219 195.51626 
L 117.48052 193.286734 
L 118.028327 193.286734 
L 118.089194 191.057207 
L 118.30223 199.975313 
L 118.454399 199.975313 
L 118.484833 202.204839 
L 118.5457 199.975313 
L 119.306543 199.975313 
L 119.336977 202.204839 
L 119.397845 199.975313 
L 119.51958 199.975313 
L 119.550013 202.204839 
L 119.610881 199.975313 
L 119.823917 199.975313 
L 120.006519 220.04105 
L 120.249989 220.04105 
L 120.34129 222.270576 
L 120.463025 217.811524 
L 120.82823 217.811524 
L 120.858664 222.270576 
L 121.041266 222.270576 
L 121.0717 224.500103 
L 121.102133 222.270576 
L 121.497772 222.270576 
L 121.619507 224.500103 
L 121.710808 222.270576 
L 121.923844 233.418208 
L 122.045579 228.959156 
L 122.13688 228.959156 
L 122.258615 231.188682 
L 122.38035 228.959156 
L 122.471651 231.188682 
L 122.593386 228.959156 
L 122.806422 108.564731 
L 123.567265 108.564731 
L 123.597699 110.794258 
L 123.658567 121.94189 
L 123.871603 121.94189 
L 123.962904 124.171416 
L 124.084639 121.94189 
L 124.267241 121.94189 
L 124.297675 124.171416 
L 124.480277 121.94189 
L 124.510711 121.94189 
L 124.632446 135.319048 
L 124.693313 133.089522 
L 124.723747 133.089522 
L 124.815048 130.859995 
L 124.845482 133.089522 
L 124.90635 130.859995 
L 125.119386 130.859995 
L 125.149819 133.089522 
L 125.362855 128.630469 
L 125.48459 128.630469 
L 125.575892 133.089522 
L 125.788928 133.089522 
L 125.880229 135.319048 
L 126.001964 133.089522 
L 126.093265 135.319048 
L 126.215 130.859995 
L 126.306301 133.089522 
L 126.397602 130.859995 
L 126.428036 153.155259 
L 126.519337 150.925733 
L 126.610638 150.925733 
L 126.641072 148.696206 
L 126.732373 150.925733 
L 126.854108 148.696206 
L 127.067144 148.696206 
L 127.249747 146.46668 
L 127.28018 146.46668 
L 127.493216 157.614312 
L 127.675819 155.384785 
L 127.858421 155.384785 
L 127.919289 153.155259 
L 128.01059 153.155259 
L 128.071457 150.925733 
L 128.132325 153.155259 
L 128.25406 150.925733 
L 128.345361 162.073364 
L 129.197505 162.073364 
L 129.349674 175.450523 
L 129.380108 173.220996 
L 129.745312 173.220996 
L 129.775746 175.450523 
L 129.836614 173.220996 
L 129.958348 173.220996 
L 129.988782 175.450523 
L 130.04965 173.220996 
L 130.140951 173.220996 
L 130.262686 179.909575 
L 131.023529 179.909575 
L 131.11483 191.057207 
L 131.419167 191.057207 
L 131.480035 195.51626 
L 131.510469 193.286734 
L 131.632204 191.057207 
L 131.936541 191.057207 
L 132.088709 195.51626 
L 132.180011 195.51626 
L 132.271312 197.745786 
L 132.393047 195.51626 
L 132.575649 195.51626 
L 132.697384 197.745786 
L 132.819119 195.51626 
L 133.001721 202.204839 
L 133.427793 202.204839 
L 133.458227 204.434365 
L 133.610396 202.204839 
L 133.671263 204.434365 
L 133.823432 204.434365 
L 133.884299 108.564731 
L 134.036468 108.564731 
L 134.066902 106.335205 
L 134.097336 108.564731 
L 134.279938 106.335205 
L 134.736444 106.335205 
L 134.919046 121.94189 
L 135.527721 121.94189 
L 135.801624 139.778101 
L 136.623335 139.778101 
L 136.653769 153.155259 
L 137.505913 153.155259 
L 137.688515 164.302891 
L 138.479792 164.302891 
L 138.571094 184.368628 
L 139.149334 184.368628 
L 139.210202 186.598154 
L 139.392804 184.368628 
L 139.514539 193.286734 
L 139.758009 193.286734 
L 139.84931 191.057207 
L 140.275382 191.057207 
L 140.488418 197.745786 
L 140.82319 197.745786 
L 140.914491 199.975313 
L 141.279695 199.975313 
L 141.340563 215.581997 
L 141.523165 213.352471 
L 141.705768 213.352471 
L 141.736201 211.122945 
L 141.766635 213.352471 
L 141.979671 211.122945 
L 142.070972 211.122945 
L 142.314442 222.270576 
L 142.497045 222.270576 
L 142.588346 220.04105 
L 142.618779 222.270576 
L 142.770948 220.04105 
L 142.801382 222.270576 
L 142.831816 220.04105 
L 142.953551 220.04105 
L 143.19702 231.188682 
L 143.257888 231.188682 
L 143.410056 228.959156 
L 143.44049 231.188682 
L 143.988297 231.188682 
L 144.079598 237.877261 
L 144.110032 235.647735 
L 144.931743 235.647735 
L 145.053478 108.564731 
L 145.114345 108.564731 
L 145.175213 106.335205 
L 145.814321 106.335205 
L 145.996923 108.564731 
L 146.605598 108.564731 
L 146.666465 110.794258 
L 146.7882 108.564731 
L 146.879501 124.171416 
L 147.396875 124.171416 
L 147.427309 126.400942 
L 147.488176 124.171416 
L 147.731646 124.171416 
L 147.944682 130.859995 
L 148.035983 130.859995 
L 148.249019 133.089522 
L 148.370754 130.859995 
L 148.492489 130.859995 
L 148.735959 148.696206 
L 148.796826 146.46668 
L 148.979429 146.46668 
L 149.009862 148.696206 
L 149.192465 146.46668 
L 149.588103 146.46668 
L 149.648971 155.384785 
L 149.831573 153.155259 
L 150.227212 153.155259 
L 150.288079 155.384785 
L 150.470681 153.155259 
L 150.501115 153.155259 
L 150.683718 162.073364 
L 151.140223 162.073364 
L 151.231525 166.532417 
L 151.292392 164.302891 
L 151.444561 164.302891 
L 151.566296 184.368628 
L 151.657597 184.368628 
L 151.779332 182.139102 
L 152.17497 182.139102 
L 152.205404 184.368628 
L 152.357573 179.909575 
L 152.388006 182.139102 
L 152.509741 188.827681 
L 152.753211 188.827681 
L 152.844512 191.057207 
L 153.027115 191.057207 
L 153.14885 188.827681 
L 153.209717 188.827681 
L 153.240151 186.598154 
L 153.361886 195.51626 
L 153.422753 195.51626 
L 153.453187 197.745786 
L 153.483621 195.51626 
L 153.605355 195.51626 
L 153.635789 197.745786 
L 153.696657 195.51626 
L 153.818392 195.51626 
L 153.848825 197.745786 
L 153.909693 195.51626 
L 154.031428 195.51626 
L 154.061861 197.745786 
L 154.092295 195.51626 
L 154.305331 199.975313 
L 154.640102 199.975313 
L 154.761837 202.204839 
L 154.883572 202.204839 
L 154.974873 199.975313 
L 155.096608 199.975313 
L 155.187909 211.122945 
L 155.52268 211.122945 
L 155.553114 213.352471 
L 155.613982 211.122945 
L 155.76615 211.122945 
L 155.796584 213.352471 
L 155.827018 211.122945 
L 156.040054 211.122945 
L 156.222656 106.335205 
L 156.800897 106.335205 
L 156.892198 108.564731 
L 157.044367 110.794258 
L 157.896511 110.794258 
L 157.957379 119.712363 
L 158.04868 119.712363 
L 158.079114 121.94189 
L 158.109547 117.482837 
L 158.809523 117.482837 
L 159.022559 119.712363 
L 159.144294 119.712363 
L 159.174728 121.94189 
L 159.235595 119.712363 
L 159.752969 119.712363 
L 159.874704 121.94189 
L 160.696414 121.94189 
L 160.818149 124.171416 
L 161.578992 124.171416 
L 161.761595 126.400942 
L 162.096366 126.400942 
L 162.126799 128.630469 
L 162.187667 126.400942 
L 162.826775 126.400942 
L 162.94851 130.859995 
L 163.070245 128.630469 
L 163.283281 130.859995 
L 163.496317 130.859995 
L 163.67892 128.630469 
L 164.104992 128.630469 
L 164.226727 130.859995 
L 164.896269 130.859995 
L 164.98757 133.089522 
L 165.078871 133.089522 
L 165.200606 130.859995 
L 165.413642 139.778101 
L 165.748413 139.778101 
L 165.809281 142.007627 
L 166.05275 142.007627 
L 166.235353 144.237153 
L 166.448389 144.237153 
L 166.570124 142.007627 
L 167.117931 142.007627 
L 167.300533 144.237153 
L 167.757039 144.237153 
L 167.939642 146.46668 
L 168.061377 146.46668 
L 168.09181 106.335205 
L 168.152678 108.564731 
L 168.487449 108.564731 
L 168.548316 110.794258 
L 168.57875 108.564731 
L 169.004822 108.564731 
L 169.126557 110.794258 
L 169.187424 110.794258 
L 169.339593 115.253311 
L 169.856966 115.253311 
L 169.8874 117.482837 
L 170.100436 115.253311 
L 170.61781 115.253311 
L 170.739545 119.712363 
L 171.804725 119.712363 
L 171.987327 124.171416 
L 172.16993 124.171416 
L 172.230797 126.400942 
L 172.4134 126.400942 
L 172.443833 128.630469 
L 172.596002 126.400942 
L 172.65687 126.400942 
L 172.839472 124.171416 
L 173.387279 124.171416 
L 173.509014 126.400942 
L 174.300291 126.400942 
L 174.361158 128.630469 
L 174.574194 128.630469 
L 174.756797 124.171416 
L 174.908965 124.171416 
L 175.000267 126.400942 
L 175.395905 126.400942 
L 175.51764 128.630469 
L 176.217616 128.630469 
L 176.278483 130.859995 
L 176.369784 130.859995 
L 176.491519 137.548574 
L 176.917592 137.548574 
L 177.130628 142.007627 
L 177.282796 142.007627 
L 177.343664 144.237153 
L 178.195808 144.237153 
L 178.408844 142.007627 
L 179.047952 142.007627 
L 179.200121 144.237153 
L 179.260989 113.023784 
L 180.082699 113.023784 
L 180.234868 117.482837 
L 180.539205 117.482837 
L 180.752241 121.94189 
L 180.965277 121.94189 
L 181.178313 126.400942 
L 181.939157 126.400942 
L 182.000024 128.630469 
L 182.121759 119.712363 
L 182.426096 119.712363 
L 182.547831 121.94189 
L 182.791301 121.94189 
L 182.882602 124.171416 
L 183.065205 126.400942 
L 183.308674 126.400942 
L 183.491277 128.630469 
L 183.856482 128.630469 
L 183.947783 130.859995 
L 184.099951 130.859995 
L 184.160819 133.089522 
L 184.282554 133.089522 
L 184.373855 135.319048 
L 184.799927 135.319048 
L 184.98253 128.630469 
L 185.012963 128.630469 
L 185.195566 130.859995 
L 185.743373 130.859995 
L 185.865108 128.630469 
L 186.625951 128.630469 
L 186.717252 130.859995 
L 186.930288 130.859995 
L 187.112891 133.089522 
L 187.234625 133.089522 
L 187.325927 135.319048 
L 187.538963 137.548574 
L 187.660698 126.400942 
L 187.782433 126.400942 
L 187.965035 128.630469 
L 187.995469 128.630469 
L 188.178071 130.859995 
L 188.299806 130.859995 
L 188.421541 133.089522 
L 188.938914 133.089522 
L 189.060649 135.319048 
L 189.273685 135.319048 
L 189.39542 137.548574 
L 189.486721 135.319048 
L 189.791059 135.319048 
L 189.912794 142.007627 
L 190.12583 142.007627 
L 190.308432 144.237153 
L 190.338866 106.335205 
L 190.551902 108.564731 
L 190.734504 108.564731 
L 190.764938 110.794258 
L 190.886673 108.564731 
L 190.977974 113.023784 
L 191.099709 113.023784 
L 191.19101 115.253311 
L 191.373613 117.482837 
L 191.404046 117.482837 
L 191.951853 128.630469 
L 192.134456 128.630469 
L 192.256191 130.859995 
L 192.590962 130.859995 
L 192.682263 133.089522 
L 193.108335 133.089522 
L 193.321371 139.778101 
L 193.534407 139.778101 
L 193.625708 142.007627 
L 193.747443 139.778101 
L 193.838745 142.007627 
L 193.960479 139.778101 
L 194.051781 139.778101 
L 194.173516 133.089522 
L 194.325684 133.089522 
L 194.386552 135.319048 
L 194.53872 135.319048 
L 194.690889 139.778101 
L 195.02566 139.778101 
L 195.238696 146.46668 
L 195.421298 144.237153 
L 195.573467 144.237153 
L 195.664768 148.696206 
L 195.816937 148.696206 
L 195.877804 150.925733 
L 196.09084 146.46668 
L 196.273443 148.696206 
L 196.699515 148.696206 
L 196.942985 162.073364 
L 197.582093 162.073364 
L 197.703828 164.302891 
L 197.795129 168.761943 
L 198.008165 173.220996 
L 198.37337 173.220996 
L 198.403804 177.680049 
L 198.434238 175.450523 
L 198.61684 175.450523 
L 198.829876 188.827681 
L 198.86031 186.598154 
L 199.225514 186.598154 
L 199.377683 191.057207 
L 199.621153 191.057207 
L 199.712454 193.286734 
L 199.92549 197.745786 
L 200.047225 197.745786 
L 200.138526 199.975313 
L 200.503731 199.975313 
L 200.534165 195.51626 
L 200.564599 199.975313 
L 200.777635 199.975313 
L 200.960237 202.204839 
L 201.295008 202.204839 
L 201.416743 206.663892 
L 201.508044 206.663892 
L 201.629779 208.893418 
L 201.812381 208.893418 
L 201.934116 211.122945 
L 202.360189 211.122945 
L 202.481923 115.253311 
L 202.664526 115.253311 
L 202.786261 117.482837 
L 203.029731 117.482837 
L 203.121032 121.94189 
L 203.242767 121.94189 
L 203.334068 124.171416 
L 204.125345 124.171416 
L 204.155779 126.400942 
L 204.186212 124.171416 
L 204.368815 124.171416 
L 204.49055 126.400942 
L 204.947055 126.400942 
L 205.038357 130.859995 
L 205.129658 130.859995 
L 205.160092 133.089522 
L 205.220959 130.859995 
L 205.251393 130.859995 
L 205.7992 142.007627 
L 205.829634 142.007627 
L 205.890501 144.237153 
L 206.073103 142.007627 
L 206.103537 126.400942 
L 206.194838 128.630469 
L 206.255706 128.630469 
L 206.316573 130.859995 
L 206.499176 130.859995 
L 206.620911 133.089522 
L 206.955682 133.089522 
L 207.168718 135.319048 
L 207.290453 135.319048 
L 207.381754 137.548574 
L 207.59479 139.778101 
L 207.777392 139.778101 
L 207.929561 144.237153 
L 208.233898 144.237153 
L 208.446934 148.696206 
L 208.873006 148.696206 
L 209.055609 150.925733 
L 209.39038 150.925733 
L 209.512115 155.384785 
L 209.664283 155.384785 
L 209.846886 162.073364 
L 210.029488 162.073364 
L 210.151223 164.302891 
L 210.333825 164.302891 
L 210.516428 170.99147 
L 210.668596 170.99147 
L 210.790331 168.761943 
L 210.972934 168.761943 
L 211.094669 170.99147 
L 211.551175 170.99147 
L 211.642476 175.450523 
L 212.00768 175.450523 
L 212.068548 177.680049 
L 212.159849 177.680049 
L 212.281584 179.909575 
L 212.49462 179.909575 
L 212.585921 59.515151 
L 212.677222 61.744678 
L 212.707656 61.744678 
L 213.072861 68.433257 
L 213.255463 68.433257 
L 213.346765 72.892309 
L 213.468499 72.892309 
L 213.559801 68.433257 
L 213.772837 68.433257 
L 213.955439 70.662783 
L 214.198909 70.662783 
L 214.381511 72.892309 
L 214.594547 72.892309 
L 214.716282 75.121836 
L 214.838017 75.121836 
L 215.02062 77.351362 
L 215.142354 77.351362 
L 215.264089 81.810415 
L 215.355391 77.351362 
L 215.416258 79.580889 
L 215.477126 79.580889 
L 215.84233 86.269468 
L 215.994499 86.269468 
L 216.207535 95.187573 
L 216.451005 95.187573 
L 216.542306 104.105679 
L 216.664041 104.105679 
L 216.846643 110.794258 
L 216.907511 110.794258 
L 217.120547 115.253311 
L 217.181414 115.253311 
L 217.272715 113.023784 
L 217.39445 115.253311 
L 217.577053 115.253311 
L 217.698788 117.482837 
L 217.790089 117.482837 
L 217.911824 121.94189 
L 218.12486 121.94189 
L 218.246595 110.794258 
L 218.977004 110.794258 
L 219.068305 113.023784 
L 219.19004 110.794258 
L 219.859582 110.794258 
L 219.950884 113.023784 
L 220.376956 113.023784 
L 220.559558 115.253311 
L 220.803028 115.253311 
L 220.894329 117.482837 
L 221.016064 110.794258 
L 221.533437 110.794258 
L 221.655172 113.023784 
L 221.746474 113.023784 
L 221.868208 115.253311 
L 222.233413 115.253311 
L 222.294281 117.482837 
L 222.902955 117.482837 
L 223.055124 121.94189 
L 223.663798 121.94189 
L 223.724666 97.4171 
L 223.7551 99.646626 
L 223.937702 99.646626 
L 223.998569 101.876152 
L 224.515943 101.876152 
L 224.607244 106.335205 
L 224.637678 104.105679 
L 225.246352 104.105679 
L 225.368087 106.335205 
L 225.398521 106.335205 
L 225.489822 108.564731 
L 225.702858 99.646626 
L 225.824593 99.646626 
L 225.915894 101.876152 
L 226.037629 101.876152 
L 226.12893 106.335205 
L 226.220232 106.335205 
L 226.341967 108.564731 
L 226.433268 108.564731 
L 226.555003 113.023784 
L 226.646304 113.023784 
L 226.768039 115.253311 
L 227.133244 115.253311 
L 227.194111 117.482837 
L 227.34628 117.482837 
L 227.407147 119.712363 
L 227.954954 119.712363 
L 228.046255 121.94189 
L 228.259291 126.400942 
L 228.472328 126.400942 
L 228.65493 128.630469 
L 228.989701 128.630469 
L 229.111436 130.859995 
L 229.263605 130.859995 
L 229.446207 144.237153 
L 230.146183 144.237153 
L 230.267918 146.46668 
L 230.389652 146.46668 
L 230.572255 148.696206 
L 230.998327 148.696206 
L 231.211363 157.614312 
L 231.850471 157.614312 
L 231.972206 159.843838 
L 232.00264 159.843838 
L 232.093941 164.302891 
L 232.520013 164.302891 
L 232.702616 166.532417 
L 233.980832 166.532417 
L 234.102567 168.761943 
L 234.772109 168.761943 
L 234.832977 177.680049 
L 235.715555 177.680049 
L 235.898157 179.909575 
L 236.263362 179.909575 
L 236.354663 182.139102 
L 237.572012 182.139102 
L 237.724181 186.598154 
L 238.028518 186.598154 
L 238.150253 188.827681 
L 238.180687 188.827681 
L 238.271988 191.057207 
L 238.485024 195.51626 
L 238.606759 195.51626 
L 238.69806 197.745786 
L 239.093699 197.745786 
L 239.215434 199.975313 
L 239.42847 199.975313 
L 239.550205 184.368628 
L 240.341482 184.368628 
L 240.371915 182.139102 
L 240.584952 188.827681 
L 241.163192 188.827681 
L 241.254494 191.057207 
L 241.46753 191.057207 
L 241.650132 193.286734 
L 241.680566 193.286734 
L 241.893602 195.51626 
L 242.106638 195.51626 
L 242.28924 199.975313 
L 242.441409 199.975313 
L 242.53271 202.204839 
L 242.715313 204.434365 
L 243.110951 204.434365 
L 243.141385 195.51626 
L 243.567457 195.51626 
L 243.689192 197.745786 
L 243.963095 197.745786 
L 244.023963 199.975313 
L 244.419601 199.975313 
L 244.541336 202.204839 
L 244.876107 202.204839 
L 245.089143 204.434365 
L 245.210878 204.434365 
L 245.302179 206.663892 
L 245.728252 206.663892 
L 245.88042 208.893418 
L 245.941288 144.237153 
L 246.306492 144.237153 
L 246.36736 146.46668 
L 246.762998 146.46668 
L 246.793432 150.925733 
L 246.884733 148.696206 
L 247.645577 148.696206 
L 247.767311 153.155259 
L 247.797745 150.925733 
L 248.589022 150.925733 
L 248.680323 153.155259 
L 248.710757 150.925733 
L 248.893359 155.384785 
L 249.136829 155.384785 
L 249.349865 159.843838 
L 249.928106 159.843838 
L 249.988974 162.073364 
L 250.080275 162.073364 
L 250.141142 166.532417 
L 250.20201 164.302891 
L 250.536781 164.302891 
L 250.628082 162.073364 
L 250.810684 164.302891 
L 251.480226 164.302891 
L 251.662829 159.843838 
L 251.875865 159.843838 
L 251.906299 162.073364 
L 252.941045 162.073364 
L 252.971479 164.302891 
L 253.184515 164.302891 
L 253.397551 168.761943 
L 253.488852 168.761943 
L 253.610587 173.220996 
L 254.219262 173.220996 
L 254.340997 168.761943 
L 254.462732 168.761943 
L 254.645334 173.220996 
L 255.040973 173.220996 
L 255.071406 177.680049 
L 255.10184 175.450523 
L 255.436611 175.450523 
L 255.527912 177.680049 
L 255.710515 179.909575 
L 255.862683 179.909575 
L 255.953984 184.368628 
L 256.075719 184.368628 
L 256.16702 193.286734 
L 256.806129 193.286734 
L 256.988731 197.745786 
L 257.019165 146.46668 
L 257.445237 153.155259 
L 258.69302 153.155259 
L 258.814755 155.384785 
L 259.362562 155.384785 
L 259.545164 157.614312 
L 259.575598 157.614312 
L 259.7582 159.843838 
L 259.788634 159.843838 
L 259.971237 162.073364 
L 260.184273 162.073364 
L 260.306008 164.302891 
L 260.73208 164.302891 
L 260.762514 148.696206 
L 260.853815 150.925733 
L 261.066851 155.384785 
L 261.492923 155.384785 
L 261.705959 159.843838 
L 261.79726 159.843838 
L 261.918995 164.302891 
L 262.558103 164.302891 
L 262.77114 157.614312 
L 263.105911 157.614312 
L 263.197212 159.843838 
L 263.531983 159.843838 
L 263.623284 157.614312 
L 263.83632 157.614312 
L 264.018922 159.843838 
L 264.414561 159.843838 
L 264.475428 157.614312 
L 264.56673 157.614312 
L 264.688464 159.843838 
L 264.779766 159.843838 
L 264.901501 162.073364 
L 265.205838 162.073364 
L 265.327573 164.302891 
L 265.510175 166.532417 
L 265.63191 166.532417 
L 265.753645 168.761943 
L 266.271018 168.761943 
L 266.392753 157.614312 
L 266.757958 157.614312 
L 266.818825 159.843838 
L 266.910127 159.843838 
L 267.031862 164.302891 
L 267.336199 164.302891 
L 267.457934 166.532417 
L 268.097042 166.532417 
L 268.188343 135.319048 
L 268.279644 142.007627 
L 268.918753 142.007627 
L 269.040488 144.237153 
L 269.070921 144.237153 
L 269.131789 142.007627 
L 269.162223 144.237153 
L 269.314391 144.237153 
L 269.375259 146.46668 
L 269.46656 146.46668 
L 269.588295 148.696206 
L 270.014367 148.696206 
L 270.227403 146.46668 
L 270.866511 146.46668 
L 271.049114 142.007627 
L 271.170849 144.237153 
L 271.870824 144.237153 
L 271.931692 139.778101 
L 272.783836 139.778101 
L 272.966439 133.089522 
L 273.422945 133.089522 
L 273.605547 135.319048 
L 273.635981 135.319048 
L 273.727282 130.859995 
L 273.849017 135.319048 
L 273.940318 135.319048 
L 274.062053 137.548574 
L 274.60986 137.548574 
L 274.670727 139.778101 
L 274.792462 133.089522 
L 275.035932 133.089522 
L 275.127233 135.319048 
L 275.522872 135.319048 
L 275.644607 137.548574 
L 276.375016 137.548574 
L 276.588052 135.319048 
L 277.379329 135.319048 
L 277.47063 133.089522 
L 277.561932 133.089522 
L 277.683667 135.319048 
L 278.292341 135.319048 
L 278.322775 137.548574 
L 278.505377 135.319048 
L 278.535811 135.319048 
L 278.718413 139.778101 
L 279.174919 139.778101 
L 279.327088 106.335205 
L 279.50969 106.335205 
L 279.600991 110.794258 
L 280.148799 110.794258 
L 280.179232 113.023784 
L 280.209666 108.564731 
L 281.396581 108.564731 
L 281.518316 110.794258 
L 281.913955 110.794258 
L 282.03569 115.253311 
L 282.157425 99.646626 
L 282.918268 99.646626 
L 283.009569 101.876152 
L 283.34434 101.876152 
L 283.435641 104.105679 
L 283.526942 104.105679 
L 283.557376 106.335205 
L 283.618244 104.105679 
L 283.861713 104.105679 
L 284.044316 101.876152 
L 284.07475 101.876152 
L 284.257352 104.105679 
L 284.470388 104.105679 
L 284.592123 106.335205 
L 284.835593 106.335205 
L 284.89646 84.039941 
L 284.926894 86.269468 
L 285.566002 86.269468 
L 285.748605 88.498994 
L 285.87034 88.498994 
L 285.992074 90.72852 
L 286.631183 90.72852 
L 286.813785 86.269468 
L 287.574628 86.269468 
L 287.605062 68.433257 
L 287.696363 70.662783 
L 287.787664 70.662783 
L 287.909399 72.892309 
L 288.48764 72.892309 
L 288.548508 68.433257 
L 288.670243 68.433257 
L 288.761544 70.662783 
L 289.400652 70.662783 
L 289.583254 68.433257 
L 290.344098 68.433257 
L 290.435399 50.597046 
L 291.287543 50.597046 
L 291.409278 46.137993 
L 291.713615 46.137993 
L 291.83535 48.367519 
L 292.139688 48.367519 
L 292.170121 50.597046 
L 292.383157 46.137993 
L 292.474459 46.137993 
L 292.596194 48.367519 
L 293.144001 48.367519 
L 293.235302 30.531308 
L 293.63094 30.531308 
L 293.752675 32.760835 
L 294.087446 32.760835 
L 294.270049 34.990361 
L 294.483085 34.990361 
L 294.60482 37.219888 
L 294.726555 37.219888 
L 294.878723 39.449414 
L 294.939591 39.449414 
L 295.122193 30.531308 
L 295.274362 34.990361 
L 295.365663 34.990361 
L 295.548265 37.219888 
L 295.943904 37.219888 
L 296.096072 21.613203 
L 296.309108 21.613203 
L 296.430843 23.842729 
L 296.583012 23.842729 
L 296.643879 26.072256 
L 296.735181 26.072256 
L 296.856915 30.531308 
L 297.435156 30.531308 
L 297.496024 32.760835 
L 297.70906 32.760835 
L 297.891662 30.531308 
L 298.074265 30.531308 
L 298.135132 32.760835 
L 298.226433 32.760835 
L 298.348168 37.219888 
L 298.682939 37.219888 
L 298.743807 34.990361 
L 299.413349 34.990361 
L 299.595951 37.219888 
L 299.717686 34.990361 
L 299.930722 34.990361 
L 299.961156 37.219888 
L 300.022023 34.990361 
L 300.052457 34.990361 
L 300.235059 37.219888 
L 300.265493 37.219888 
L 300.600264 41.67894 
L 300.782866 41.67894 
L 300.904601 43.908467 
L 301.087204 46.137993 
L 301.208939 46.137993 
L 301.330674 48.367519 
L 301.421975 48.367519 
L 301.452408 50.597046 
L 301.482842 41.67894 
L 301.513276 46.137993 
L 301.848047 50.597046 
L 302.182818 50.597046 
L 302.36542 52.826572 
L 302.395854 52.826572 
L 302.578456 43.908467 
L 302.700191 46.137993 
L 302.913227 46.137993 
L 303.034962 48.367519 
L 303.217565 48.367519 
L 303.3393 55.056098 
L 303.400167 46.137993 
L 303.461035 48.367519 
L 304.252312 48.367519 
L 304.313179 37.219888 
L 304.465348 37.219888 
L 304.526215 39.449414 
L 305.074022 39.449414 
L 305.256625 46.137993 
L 305.71313 46.137993 
L 305.804432 48.367519 
L 305.895733 48.367519 
L 305.926167 50.597046 
L 305.9566 48.367519 
L 306.108769 48.367519 
L 306.230504 32.760835 
L 306.321805 32.760835 
L 306.44354 37.219888 
L 306.595709 41.67894 
L 306.626142 39.449414 
L 306.839178 39.449414 
L 307.021781 41.67894 
L 307.052215 39.449414 
L 307.386986 43.908467 
L 307.478287 43.908467 
L 307.50872 46.137993 
L 307.873925 46.137993 
L 308.056528 52.826572 
L 308.117395 52.826572 
L 308.23913 55.056098 
L 308.573901 55.056098 
L 308.878238 61.744678 
L 308.939106 59.515151 
L 308.969539 61.744678 
L 309.121708 66.20373 
L 309.395612 66.20373 
L 309.517347 68.433257 
L 309.578214 68.433257 
L 309.608648 72.892309 
L 309.821684 72.892309 
L 309.852118 68.433257 
L 309.943419 70.662783 
L 310.03472 75.121836 
L 310.065154 72.892309 
L 310.27819 72.892309 
L 310.460792 79.580889 
L 310.704262 79.580889 
L 310.886864 66.20373 
L 311.069467 66.20373 
L 311.130334 68.433257 
L 311.252069 68.433257 
L 311.34337 70.662783 
L 311.525973 72.892309 
L 311.739009 72.892309 
L 311.860744 75.121836 
L 312.286816 75.121836 
L 312.408551 77.351362 
L 312.591153 77.351362 
L 312.621587 115.253311 
L 312.956358 115.253311 
L 313.047659 117.482837 
L 313.199828 117.482837 
L 313.230261 119.712363 
L 313.260695 117.482837 
L 313.473731 117.482837 
L 313.656334 113.023784 
L 314.538912 113.023784 
L 314.873683 117.482837 
L 314.93455 117.482837 
L 315.117153 124.171416 
L 315.147586 124.171416 
L 315.269321 126.400942 
L 315.299755 126.400942 
L 315.391056 128.630469 
L 315.482357 128.630469 
L 315.604092 130.859995 
L 315.786695 130.859995 
L 315.90843 133.089522 
L 316.334502 133.089522 
L 316.395369 108.564731 
L 316.456237 110.794258 
L 316.638839 113.023784 
L 316.882309 113.023784 
L 317.034477 115.253311 
L 317.186646 115.253311 
L 317.308381 119.712363 
L 317.399682 119.712363 
L 317.521417 126.400942 
L 318.160525 126.400942 
L 318.312694 115.253311 
L 318.343128 117.482837 
L 318.495296 117.482837 
L 318.586598 119.712363 
L 319.134405 119.712363 
L 319.225706 110.794258 
L 319.864814 110.794258 
L 319.986549 113.023784 
L 320.016983 110.794258 
L 320.07785 113.023784 
L 320.290886 113.023784 
L 320.473489 117.482837 
L 320.838694 117.482837 
L 320.929995 119.712363 
L 321.112597 121.94189 
L 321.264766 121.94189 
L 321.325633 126.400942 
L 321.782139 126.400942 
L 321.964742 119.712363 
L 323.212524 119.712363 
L 323.364693 124.171416 
L 323.608163 124.171416 
L 323.882066 137.548574 
L 324.034235 137.548574 
L 324.125536 139.778101 
L 324.216837 139.778101 
L 324.338572 142.007627 
L 324.429874 142.007627 
L 324.551608 146.46668 
L 324.64291 146.46668 
L 324.764645 142.007627 
L 325.403753 142.007627 
L 325.586355 144.237153 
L 325.921126 144.237153 
L 326.042861 150.925733 
L 326.347198 150.925733 
L 326.468933 153.155259 
L 326.681969 159.843838 
L 327.74715 159.843838 
L 327.960186 164.302891 
L 328.081921 164.302891 
L 328.173222 166.532417 
L 328.355824 166.532417 
L 328.477559 164.302891 
L 329.207969 164.302891 
L 329.238403 166.532417 
L 329.451439 162.073364 
L 330.60792 162.073364 
L 330.729655 164.302891 
L 331.09486 164.302891 
L 331.155728 166.532417 
L 331.247029 166.532417 
L 331.490499 177.680049 
L 331.977438 177.680049 
L 332.129607 168.761943 
L 332.160041 170.99147 
L 332.525245 170.99147 
L 332.64698 173.220996 
L 332.768715 173.220996 
L 332.860016 175.450523 
L 332.951317 175.450523 
L 333.073052 173.220996 
L 333.225221 173.220996 
L 333.255655 175.450523 
L 333.286089 173.220996 
L 333.712161 173.220996 
L 333.894763 175.450523 
L 334.016498 168.761943 
L 334.138233 177.680049 
L 334.320835 177.680049 
L 334.44257 179.909575 
L 334.777341 179.909575 
L 334.959944 139.778101 
L 335.081678 142.007627 
L 335.203413 142.007627 
L 335.568618 148.696206 
L 335.751221 148.696206 
L 335.842522 144.237153 
L 336.390329 144.237153 
L 336.48163 146.46668 
L 336.572931 146.46668 
L 336.694666 148.696206 
L 336.907702 146.46668 
L 337.029437 146.46668 
L 337.120738 148.696206 
L 337.54681 148.696206 
L 337.729413 144.237153 
L 337.912015 144.237153 
L 337.972883 146.46668 
L 338.368521 146.46668 
L 338.490256 148.696206 
L 338.52069 148.696206 
L 338.551124 150.925733 
L 338.581557 146.46668 
L 339.3424 146.46668 
L 339.464135 153.155259 
L 339.646738 144.237153 
L 339.677171 144.237153 
L 339.859774 146.46668 
L 340.103244 146.46668 
L 340.194545 148.696206 
L 340.285846 146.46668 
L 340.31628 148.696206 
L 340.407581 146.46668 
L 340.529316 153.155259 
L 340.955388 153.155259 
L 341.168424 155.384785 
L 341.564063 155.384785 
L 341.716231 159.843838 
L 341.746665 159.843838 
L 341.807532 164.302891 
L 342.203171 164.302891 
L 342.324906 162.073364 
L 342.781412 162.073364 
L 342.872713 166.532417 
L 343.085749 166.532417 
L 343.237918 159.843838 
L 343.298785 162.073364 
L 343.846592 162.073364 
L 343.937893 164.302891 
L 344.059628 164.302891 
L 344.120496 162.073364 
L 344.15093 164.302891 
L 344.363966 164.302891 
L 344.455267 166.532417 
L 344.577002 164.302891 
L 345.307411 164.302891 
L 345.429146 166.532417 
L 345.855218 166.532417 
L 346.007387 106.335205 
L 346.159556 106.335205 
L 346.281291 108.564731 
L 346.707363 108.564731 
L 347.072568 115.253311 
L 347.103001 115.253311 
L 347.224736 117.482837 
L 348.32035 117.482837 
L 348.411652 121.94189 
L 348.715989 121.94189 
L 348.837724 108.564731 
L 349.020326 110.794258 
L 349.568133 110.794258 
L 349.659434 113.023784 
L 349.781169 110.794258 
L 350.268109 110.794258 
L 350.328976 113.023784 
L 350.694181 113.023784 
L 350.84635 119.712363 
L 350.937651 119.712363 
L 350.968085 121.94189 
L 351.150687 119.712363 
L 351.394157 119.712363 
L 351.515892 121.94189 
L 351.607193 117.482837 
L 352.215868 117.482837 
L 352.337603 119.712363 
L 352.550639 119.712363 
L 352.672374 121.94189 
L 353.524518 121.94189 
L 353.70712 124.171416 
L 354.285361 124.171416 
L 354.346229 117.482837 
L 354.376662 119.712363 
L 354.741867 119.712363 
L 354.802735 121.94189 
L 355.198373 121.94189 
L 355.320108 115.253311 
L 355.441843 115.253311 
L 355.624445 117.482837 
L 356.050517 117.482837 
L 356.172252 119.712363 
L 356.933096 119.712363 
L 357.024397 121.94189 
L 357.05483 119.712363 
L 357.085264 101.876152 
L 357.115698 104.105679 
L 357.663505 104.105679 
L 357.78524 106.335205 
L 358.85042 106.335205 
L 359.033023 108.564731 
L 359.854733 108.564731 
L 359.885167 77.351362 
L 359.915601 79.580889 
L 360.128637 86.269468 
L 360.311239 84.039941 
L 360.524276 84.039941 
L 360.64601 86.269468 
L 360.737312 86.269468 
L 360.767745 88.498994 
L 360.950348 86.269468 
L 360.980781 88.498994 
L 361.163384 86.269468 
L 361.285119 86.269468 
L 361.406854 88.498994 
L 361.711191 88.498994 
L 361.832926 66.20373 
L 362.258998 66.20373 
L 362.4416 70.662783 
L 362.563335 70.662783 
L 362.624203 72.892309 
L 362.654636 68.433257 
L 362.989408 77.351362 
L 363.019841 77.351362 
L 363.111142 79.580889 
L 363.324179 81.810415 
L 364.389359 81.810415 
L 364.571961 84.039941 
L 365.393672 84.039941 
L 365.424106 59.515151 
L 365.545841 59.515151 
L 365.667576 61.744678 
L 365.819744 61.744678 
L 365.880612 63.974204 
L 366.002347 63.974204 
L 366.093648 68.433257 
L 366.702322 68.433257 
L 366.824057 70.662783 
L 367.158828 70.662783 
L 367.341431 68.433257 
L 367.463166 70.662783 
L 367.493599 70.662783 
L 367.584901 72.892309 
L 367.676202 72.892309 
L 367.797937 77.351362 
L 368.163141 77.351362 
L 368.224009 57.285625 
L 368.771816 57.285625 
L 368.863117 61.744678 
L 368.954418 61.744678 
L 369.076153 63.974204 
L 369.197888 61.744678 
L 369.289189 63.974204 
L 369.86743 63.974204 
L 369.928298 66.20373 
L 370.019599 66.20373 
L 370.050033 68.433257 
L 370.080466 63.974204 
L 370.689141 63.974204 
L 370.780442 66.20373 
L 370.963044 66.20373 
L 371.084779 52.826572 
L 371.115213 52.826572 
L 371.206514 55.056098 
L 371.815189 55.056098 
L 371.936924 57.285625 
L 372.484731 57.285625 
L 372.636899 59.515151 
L 372.819502 59.515151 
L 372.910803 52.826572 
L 373.032538 52.826572 
L 373.123839 55.056098 
L 373.336875 59.515151 
L 373.641212 59.515151 
L 373.762947 61.744678 
L 373.94555 50.597046 
L 373.975983 50.597046 
L 374.158586 52.826572 
L 374.615092 52.826572 
L 374.706393 55.056098 
L 374.828128 52.826572 
L 375.041164 52.826572 
L 375.223766 55.056098 
L 375.467236 55.056098 
L 375.558537 57.285625 
L 375.649839 55.056098 
L 375.771573 57.285625 
L 375.98461 57.285625 
L 376.106344 59.515151 
L 376.288947 59.515151 
L 376.410682 61.744678 
L 376.501983 61.744678 
L 376.532417 57.285625 
L 376.623718 59.515151 
L 376.745453 59.515151 
L 376.928055 63.974204 
L 377.384561 63.974204 
L 377.53673 59.515151 
L 377.597597 61.744678 
L 377.901934 61.744678 
L 378.023669 66.20373 
L 378.236705 70.662783 
L 378.35844 70.662783 
L 378.449742 61.744678 
L 378.541043 61.744678 
L 378.662778 63.974204 
L 378.997549 63.974204 
L 379.08885 68.433257 
L 379.271452 68.433257 
L 379.301886 66.20373 
L 379.423621 66.20373 
L 379.514922 68.433257 
L 380.488801 68.433257 
L 380.580103 70.662783 
L 381.006175 70.662783 
L 381.158343 72.892309 
L 381.219211 70.662783 
L 381.432247 70.662783 
L 381.614849 72.892309 
L 382.040922 72.892309 
L 382.223524 79.580889 
L 382.406126 79.580889 
L 382.497427 84.039941 
L 382.619162 84.039941 
L 382.710464 88.498994 
L 382.893066 88.498994 
L 383.014801 90.72852 
L 383.136536 88.498994 
L 383.653909 88.498994 
L 383.775644 92.958047 
L 383.927813 92.958047 
L 383.98868 88.498994 
L 384.079981 88.498994 
L 384.201716 90.72852 
L 384.566921 90.72852 
L 384.627788 92.958047 
L 384.840825 92.958047 
L 385.053861 88.498994 
L 385.814704 88.498994 
L 385.875571 84.039941 
L 385.906005 86.269468 
L 386.636415 86.269468 
L 386.758149 88.498994 
L 386.940752 88.498994 
L 387.09292 92.958047 
L 387.275523 92.958047 
L 387.397258 95.187573 
L 387.488559 95.187573 
L 387.518993 90.72852 
L 387.610294 92.958047 
L 387.792896 95.187573 
L 388.553739 95.187573 
L 388.584173 97.4171 
L 388.645041 95.187573 
L 388.858077 95.187573 
L 388.88851 97.4171 
L 389.071113 95.187573 
L 389.710221 95.187573 
L 389.740655 97.4171 
L 389.923257 95.187573 
L 390.379763 95.187573 
L 390.562366 92.958047 
L 390.958004 92.958047 
L 391.018871 95.187573 
L 391.323209 95.187573 
L 391.41451 92.958047 
L 391.536245 104.105679 
L 392.266654 104.105679 
L 392.297088 88.498994 
L 392.510124 90.72852 
L 392.631859 90.72852 
L 392.662293 92.958047 
L 392.72316 90.72852 
L 393.088365 90.72852 
L 393.149232 92.958047 
L 393.331835 90.72852 
L 393.45357 92.958047 
L 393.484003 92.958047 
L 393.575305 97.4171 
L 394.123112 97.4171 
L 394.214413 88.498994 
L 394.336148 88.498994 
L 394.427449 90.72852 
L 394.76222 90.72852 
L 394.853521 92.958047 
L 395.036124 92.958047 
L 395.157859 86.269468 
L 395.431762 86.269468 
L 395.49263 88.498994 
L 395.918702 88.498994 
L 396.131738 90.72852 
L 396.649111 90.72852 
L 396.770846 95.187573 
L 398.262099 95.187573 
L 398.475135 101.876152 
L 398.657737 101.876152 
L 398.870773 99.646626 
L 399.66205 99.646626 
L 399.722918 97.4171 
L 399.753352 99.646626 
L 400.179424 99.646626 
L 400.362026 101.876152 
L 400.575062 101.876152 
L 400.605496 104.105679 
L 400.788098 101.876152 
L 401.427207 101.876152 
L 401.45764 104.105679 
L 401.609809 86.269468 
L 401.670676 86.269468 
L 401.853279 88.498994 
L 402.461953 88.498994 
L 402.522821 86.269468 
L 403.679303 86.269468 
L 403.801037 92.958047 
L 404.318411 92.958047 
L 404.348845 88.498994 
L 404.440146 90.72852 
L 404.653182 90.72852 
L 404.653182 90.72852 
" clip-path="url(#pf235e78ec9)" style="fill: none; stroke: #1f77b4; stroke-width: 1.5; stroke-linecap: square"/>
   </g>
   <g id="patch_3">
    <path d="M 57.17 248.690464 
L 57.17 10.8 
" style="fill: none; stroke: #000000; stroke-width: 0.8; stroke-linejoin: miter; stroke-linecap: square"/>
   </g>
   <g id="patch_4">
    <path d="M 57.17 248.690464 
L 421.2 248.690464 
" style="fill: none; stroke: #000000; stroke-width: 0.8; stroke-linejoin: miter; stroke-linecap: square"/>
   </g>
  </g>
 </g>
 <defs>
  <clipPath id="pf235e78ec9">
   <rect x="57.17" y="10.8" width="364.03" height="237.890464"/>
  </clipPath>
 </defs>
</svg>
