<?xml version="1.0" encoding="utf-8" standalone="no"?>
<!DOCTYPE svg PUBLIC "-//W3C//DTD SVG 1.1//EN"
  "http://www.w3.org/Graphics/SVG/1.1/DTD/svg11.dtd">
<svg xmlns:xlink="http://www.w3.org/1999/xlink" width="283.50475pt" height="554.161094pt" viewBox="0 0 283.50475 554.161094" xmlns="http://www.w3.org/2000/svg" version="1.1">
 <metadata>
  <rdf:RDF xmlns:dc="http://purl.org/dc/elements/1.1/" xmlns:cc="http://creativecommons.org/ns#" xmlns:rdf="http://www.w3.org/1999/02/22-rdf-syntax-ns#">
   <cc:Work>
    <dc:type rdf:resource="http://purl.org/dc/dcmitype/StillImage"/>
    <dc:date>2026-08-21T23:18:46.179004</dc:date>
    <dc:format>image/svg+xml</dc:format>
    <dc:creator>
     <cc:Agent>
      <dc:title>Matplotlib v3.7.0, https://matplotlib.org/</dc:title>
     </cc:Agent>
    </dc:creator>
   </cc:Work>
  </rdf:RDF>
 </metadata>
 <defs>
  <style type="text/css">*{stroke-linejoin: round; stroke-linecap: butt}</style>
 </defs>
 <g id="figure_1">
  <g id="patch_1">
   <path d="M 0 554.161094
L 283.50475 554.161094
L 283.50475 0
L 0 0
z
" style="fill: #ffffff"/>
  </g>
  <g id="axes_1">
   <g id="patch_2">
    <path d="M 103.64875 534.785031
L 282.06475 534.785031
L 282.06475 13.505031
L 103.64875 13.505031
z
" style="fill: #ffffff"/>
   </g>
   <g id="QuadMesh_1">
    <path d="M 103.64875 13.505031
L 125.95075 13.505031
L 125.95075 39.569031
L 103.64875 39.569031
L 103.64875 13.505031
" clip-path="url(#p2f26d099b0)" style="fill: #d88c78; stroke: #ffffff; stroke-width: 0.8"/>
    <path d="M 125.95075 13.505031
L 148.25275 13.505031
L 148.25275 39.569031
L 125.95075 39.569031
L 125.95075 13.505031
" clip-path="url(#p2f26d099b0)" style="fill: #d5836d; stroke: #ffffff; stroke-width: 0.8"/>
    <path d="M 148.25275 13.505031
L 170.55475 13.505031
L 170.55475 39.569031
L 148.25275 39.569031
L 148.25275 13.505031
" clip-path="url(#p2f26d099b0)" style="fill: #d2765e; stroke: #ffffff; stroke-width: 0.8"/>
    <path d="M 170.55475 13.505031
L 192.85675 13.505031
L 192.85675 39.569031
L 170.55475 39.569031
L 170.55475 13.505031
" clip-path="url(#p2f26d099b0)" style="fill: #d88b76; stroke: #ffffff; stroke-width: 0.8"/>
    <path d="M 192.85675 13.505031
L 215.15875 13.505031
L 215.15875 39.569031
L 192.85675 39.569031
L 192.85675 13.505031
" clip-path="url(#p2f26d099b0)" style="fill: #dea291; stroke: #ffffff; stroke-width: 0.8"/>
    <path d="M 215.15875 13.505031
L 237.46075 13.505031
L 237.46075 39.569031
L 215.15875 39.569031
L 215.15875 13.505031
" clip-path="url(#p2f26d099b0)" style="fill: #dd9c8b; stroke: #ffffff; stroke-width: 0.8"/>
    <path d="M 237.46075 13.505031
L 259.76275 13.505031
L 259.76275 39.569031
L 237.46075 39.569031
L 237.46075 13.505031
" clip-path="url(#p2f26d099b0)" style="fill: #d88c78; stroke: #ffffff; stroke-width: 0.8"/>
    <path d="M 259.76275 13.505031
L 282.06475 13.505031
L 282.06475 39.569031
L 259.76275 39.569031
L 259.76275 13.505031
" clip-path="url(#p2f26d099b0)" style="fill: #d68670; stroke: #ffffff; stroke-width: 0.8"/>
    <path d="M 103.64875 39.569031
L 125.95075 39.569031
L 125.95075 65.633031
L 103.64875 65.633031
L 103.64875 39.569031
" clip-path="url(#p2f26d099b0)" style="fill: #e7c0b5; stroke: #ffffff; stroke-width: 0.8"/>
    <path d="M 125.95075 39.569031
L 148.25275 39.569031
L 148.25275 65.633031
L 125.95075 65.633031
L 125.95075 39.569031
" clip-path="url(#p2f26d099b0)" style="fill: #c64e2f; stroke: #ffffff; stroke-width: 0.8"/>
    <path d="M 148.25275 39.569031
L 170.55475 39.569031
L 170.55475 65.633031
L 148.25275 65.633031
L 148.25275 39.569031
" clip-path="url(#p2f26d099b0)" style="fill: #e1a99a; stroke: #ffffff; stroke-width: 0.8"/>
    <path d="M 170.55475 39.569031
L 192.85675 39.569031
L 192.85675 65.633031
L 170.55475 65.633031
L 170.55475 39.569031
" clip-path="url(#p2f26d099b0)" style="fill: #e5b8ab; stroke: #ffffff; stroke-width: 0.8"/>
    <path d="M 192.85675 39.569031
L 215.15875 39.569031
L 215.15875 65.633031
L 192.85675 65.633031
L 192.85675 39.569031
" clip-path="url(#p2f26d099b0)" style="fill: #ecd1c9; stroke: #ffffff; stroke-width: 0.8"/>
    <path d="M 215.15875 39.569031
L 237.46075 39.569031
L 237.46075 65.633031
L 215.15875 65.633031
L 215.15875 39.569031
" clip-path="url(#p2f26d099b0)" style="fill: #f1e2dd; stroke: #ffffff; stroke-width: 0.8"/>
    <path d="M 237.46075 39.569031
L 259.76275 39.569031
L 259.76275 65.633031
L 237.46075 65.633031
L 237.46075 39.569031
" clip-path="url(#p2f26d099b0)" style="fill: #f2e6e2; stroke: #ffffff; stroke-width: 0.8"/>
    <path d="M 259.76275 39.569031
L 282.06475 39.569031
L 282.06475 65.633031
L 259.76275 65.633031
L 259.76275 39.569031
" clip-path="url(#p2f26d099b0)" style="fill: #f3e9e5; stroke: #ffffff; stroke-width: 0.8"/>
    <path d="M 103.64875 65.633031
L 125.95075 65.633031
L 125.95075 91.697031
L 103.64875 91.697031
L 103.64875 65.633031
" clip-path="url(#p2f26d099b0)" style="fill: #ecd3ca; stroke: #ffffff; stroke-width: 0.8"/>
    <path d="M 125.95075 65.633031
L 148.25275 65.633031
L 148.25275 91.697031
L 125.95075 91.697031
L 125.95075 65.633031
" clip-path="url(#p2f26d099b0)" style="fill: #dc9b89; stroke: #ffffff; stroke-width: 0.8"/>
    <path d="M 148.25275 65.633031
L 170.55475 65.633031
L 170.55475 91.697031
L 148.25275 91.697031
L 148.25275 65.633031
" clip-path="url(#p2f26d099b0)" style="fill: #f1e2dd; stroke: #ffffff; stroke-width: 0.8"/>
    <path d="M 170.55475 65.633031
L 192.85675 65.633031
L 192.85675 91.697031
L 170.55475 91.697031
L 170.55475 65.633031
" clip-path="url(#p2f26d099b0)" style="fill: #efdcd5; stroke: #ffffff; stroke-width: 0.8"/>
    <path d="M 192.85675 65.633031
L 215.15875 65.633031
L 215.15875 91.697031
L 192.85675 91.697031
L 192.85675 65.633031
" clip-path="url(#p2f26d099b0)" style="fill: #efdbd4; stroke: #ffffff; stroke-width: 0.8"/>
    <path d="M 215.15875 65.633031
L 237.46075 65.633031
L 237.46075 91.697031
L 215.15875 91.697031
L 215.15875 65.633031
" clip-path="url(#p2f26d099b0)" style="fill: #f0ddd7; stroke: #ffffff; stroke-width: 0.8"/>
    <path d="M 237.46075 65.633031
L 259.76275 65.633031
L 259.76275 91.697031
L 237.46075 91.697031
L 237.46075 65.633031
" clip-path="url(#p2f26d099b0)" style="fill: #eed8d1; stroke: #ffffff; stroke-width: 0.8"/>
    <path d="M 259.76275 65.633031
L 282.06475 65.633031
L 282.06475 91.697031
L 259.76275 91.697031
L 259.76275 65.633031
" clip-path="url(#p2f26d099b0)" style="fill: #eed7cf; stroke: #ffffff; stroke-width: 0.8"/>
    <path d="M 103.64875 91.697031
L 125.95075 91.697031
L 125.95075 117.761031
L 103.64875 117.761031
L 103.64875 91.697031
" clip-path="url(#p2f26d099b0)" style="fill: #ecd3ca; stroke: #ffffff; stroke-width: 0.8"/>
    <path d="M 125.95075 91.697031
L 148.25275 91.697031
L 148.25275 117.761031
L 125.95075 117.761031
L 125.95075 91.697031
" clip-path="url(#p2f26d099b0)" style="fill: #e9c5bb; stroke: #ffffff; stroke-width: 0.8"/>
    <path d="M 148.25275 91.697031
L 170.55475 91.697031
L 170.55475 117.761031
L 148.25275 117.761031
L 148.25275 91.697031
" clip-path="url(#p2f26d099b0)" style="fill: #ecd0c7; stroke: #ffffff; stroke-width: 0.8"/>
    <path d="M 170.55475 91.697031
L 192.85675 91.697031
L 192.85675 117.761031
L 170.55475 117.761031
L 170.55475 91.697031
" clip-path="url(#p2f26d099b0)" style="fill: #ebccc3; stroke: #ffffff; stroke-width: 0.8"/>
    <path d="M 192.85675 91.697031
L 215.15875 91.697031
L 215.15875 117.761031
L 192.85675 117.761031
L 192.85675 91.697031
" clip-path="url(#p2f26d099b0)" style="fill: #ebcdc4; stroke: #ffffff; stroke-width: 0.8"/>
    <path d="M 215.15875 91.697031
L 237.46075 91.697031
L 237.46075 117.761031
L 215.15875 117.761031
L 215.15875 91.697031
" clip-path="url(#p2f26d099b0)" style="fill: #eed9d2; stroke: #ffffff; stroke-width: 0.8"/>
    <path d="M 237.46075 91.697031
L 259.76275 91.697031
L 259.76275 117.761031
L 237.46075 117.761031
L 237.46075 91.697031
" clip-path="url(#p2f26d099b0)" style="fill: #eed8d1; stroke: #ffffff; stroke-width: 0.8"/>
    <path d="M 259.76275 91.697031
L 282.06475 91.697031
L 282.06475 117.761031
L 259.76275 117.761031
L 259.76275 91.697031
" clip-path="url(#p2f26d099b0)" style="fill: #edd4cc; stroke: #ffffff; stroke-width: 0.8"/>
    <path d="M 103.64875 117.761031
L 125.95075 117.761031
L 125.95075 143.825031
L 103.64875 143.825031
L 103.64875 117.761031
" clip-path="url(#p2f26d099b0)" style="fill: #ecd3ca; stroke: #ffffff; stroke-width: 0.8"/>
    <path d="M 125.95075 117.761031
L 148.25275 117.761031
L 148.25275 143.825031
L 125.95075 143.825031
L 125.95075 117.761031
" clip-path="url(#p2f26d099b0)" style="fill: #f5eeeb; stroke: #ffffff; stroke-width: 0.8"/>
    <path d="M 148.25275 117.761031
L 170.55475 117.761031
L 170.55475 143.825031
L 148.25275 143.825031
L 148.25275 117.761031
" clip-path="url(#p2f26d099b0)" style="fill: #f2e5e0; stroke: #ffffff; stroke-width: 0.8"/>
    <path d="M 170.55475 117.761031
L 192.85675 117.761031
L 192.85675 143.825031
L 170.55475 143.825031
L 170.55475 117.761031
" clip-path="url(#p2f26d099b0)" style="fill: #edd5cd; stroke: #ffffff; stroke-width: 0.8"/>
    <path d="M 192.85675 117.761031
L 215.15875 117.761031
L 215.15875 143.825031
L 192.85675 143.825031
L 192.85675 117.761031
" clip-path="url(#p2f26d099b0)" style="fill: #e7c0b5; stroke: #ffffff; stroke-width: 0.8"/>
    <path d="M 215.15875 117.761031
L 237.46075 117.761031
L 237.46075 143.825031
L 215.15875 143.825031
L 215.15875 117.761031
" clip-path="url(#p2f26d099b0)" style="fill: #ebcdc4; stroke: #ffffff; stroke-width: 0.8"/>
    <path d="M 237.46075 117.761031
L 259.76275 117.761031
L 259.76275 143.825031
L 237.46075 143.825031
L 237.46075 117.761031
" clip-path="url(#p2f26d099b0)" style="fill: #ecd3ca; stroke: #ffffff; stroke-width: 0.8"/>
    <path d="M 259.76275 117.761031
L 282.06475 117.761031
L 282.06475 143.825031
L 259.76275 143.825031
L 259.76275 117.761031
" clip-path="url(#p2f26d099b0)" style="fill: #ebcdc4; stroke: #ffffff; stroke-width: 0.8"/>
    <path d="M 103.64875 143.825031
L 125.95075 143.825031
L 125.95075 169.889031
L 103.64875 169.889031
L 103.64875 143.825031
" clip-path="url(#p2f26d099b0)" style="fill: #edd5cd; stroke: #ffffff; stroke-width: 0.8"/>
    <path d="M 125.95075 143.825031
L 148.25275 143.825031
L 148.25275 169.889031
L 125.95075 169.889031
L 125.95075 143.825031
" clip-path="url(#p2f26d099b0)" style="fill: #dfa494; stroke: #ffffff; stroke-width: 0.8"/>
    <path d="M 148.25275 143.825031
L 170.55475 143.825031
L 170.55475 169.889031
L 148.25275 169.889031
L 148.25275 143.825031
" clip-path="url(#p2f26d099b0)" style="fill: #ecd3ca; stroke: #ffffff; stroke-width: 0.8"/>
    <path d="M 170.55475 143.825031
L 192.85675 143.825031
L 192.85675 169.889031
L 170.55475 169.889031
L 170.55475 143.825031
" clip-path="url(#p2f26d099b0)" style="fill: #eed9d2; stroke: #ffffff; stroke-width: 0.8"/>
    <path d="M 192.85675 143.825031
L 215.15875 143.825031
L 215.15875 169.889031
L 192.85675 169.889031
L 192.85675 143.825031
" clip-path="url(#p2f26d099b0)" style="fill: #f0ded8; stroke: #ffffff; stroke-width: 0.8"/>
    <path d="M 215.15875 143.825031
L 237.46075 143.825031
L 237.46075 169.889031
L 215.15875 169.889031
L 215.15875 143.825031
" clip-path="url(#p2f26d099b0)" style="fill: #f1e1db; stroke: #ffffff; stroke-width: 0.8"/>
    <path d="M 237.46075 143.825031
L 259.76275 143.825031
L 259.76275 169.889031
L 237.46075 169.889031
L 237.46075 143.825031
" clip-path="url(#p2f26d099b0)" style="fill: #f1e4de; stroke: #ffffff; stroke-width: 0.8"/>
    <path d="M 259.76275 143.825031
L 282.06475 143.825031
L 282.06475 169.889031
L 259.76275 169.889031
L 259.76275 143.825031
" clip-path="url(#p2f26d099b0)" style="fill: #f2e6e2; stroke: #ffffff; stroke-width: 0.8"/>
    <path d="M 103.64875 169.889031
L 125.95075 169.889031
L 125.95075 195.953031
L 103.64875 195.953031
L 103.64875 169.889031
" clip-path="url(#p2f26d099b0)" style="fill: #efdcd5; stroke: #ffffff; stroke-width: 0.8"/>
    <path d="M 125.95075 169.889031
L 148.25275 169.889031
L 148.25275 195.953031
L 125.95075 195.953031
L 125.95075 169.889031
" clip-path="url(#p2f26d099b0)" style="fill: #c2d3e1; stroke: #ffffff; stroke-width: 0.8"/>
    <path d="M 148.25275 169.889031
L 170.55475 169.889031
L 170.55475 195.953031
L 148.25275 195.953031
L 148.25275 169.889031
" clip-path="url(#p2f26d099b0)" style="fill: #e8edef; stroke: #ffffff; stroke-width: 0.8"/>
    <path d="M 170.55475 169.889031
L 192.85675 169.889031
L 192.85675 195.953031
L 170.55475 195.953031
L 170.55475 169.889031
" clip-path="url(#p2f26d099b0)" style="fill: #f3e9e5; stroke: #ffffff; stroke-width: 0.8"/>
    <path d="M 192.85675 169.889031
L 215.15875 169.889031
L 215.15875 195.953031
L 192.85675 195.953031
L 192.85675 169.889031
" clip-path="url(#p2f26d099b0)" style="fill: #e8c3b8; stroke: #ffffff; stroke-width: 0.8"/>
    <path d="M 215.15875 169.889031
L 237.46075 169.889031
L 237.46075 195.953031
L 215.15875 195.953031
L 215.15875 169.889031
" clip-path="url(#p2f26d099b0)" style="fill: #e7c1b6; stroke: #ffffff; stroke-width: 0.8"/>
    <path d="M 237.46075 169.889031
L 259.76275 169.889031
L 259.76275 195.953031
L 237.46075 195.953031
L 237.46075 169.889031
" clip-path="url(#p2f26d099b0)" style="fill: #e1a99a; stroke: #ffffff; stroke-width: 0.8"/>
    <path d="M 259.76275 169.889031
L 282.06475 169.889031
L 282.06475 195.953031
L 259.76275 195.953031
L 259.76275 169.889031
" clip-path="url(#p2f26d099b0)" style="fill: #e1ab9c; stroke: #ffffff; stroke-width: 0.8"/>
    <path d="M 103.64875 195.953031
L 125.95075 195.953031
L 125.95075 222.017031
L 103.64875 222.017031
L 103.64875 195.953031
" clip-path="url(#p2f26d099b0)" style="fill: #f0ddd7; stroke: #ffffff; stroke-width: 0.8"/>
    <path d="M 125.95075 195.953031
L 148.25275 195.953031
L 148.25275 222.017031
L 125.95075 222.017031
L 125.95075 195.953031
" clip-path="url(#p2f26d099b0)" style="fill: #dea08f; stroke: #ffffff; stroke-width: 0.8"/>
    <path d="M 148.25275 195.953031
L 170.55475 195.953031
L 170.55475 222.017031
L 148.25275 222.017031
L 148.25275 195.953031
" clip-path="url(#p2f26d099b0)" style="fill: #e9c5bb; stroke: #ffffff; stroke-width: 0.8"/>
    <path d="M 170.55475 195.953031
L 192.85675 195.953031
L 192.85675 222.017031
L 170.55475 222.017031
L 170.55475 195.953031
" clip-path="url(#p2f26d099b0)" style="fill: #e9c8be; stroke: #ffffff; stroke-width: 0.8"/>
    <path d="M 192.85675 195.953031
L 215.15875 195.953031
L 215.15875 222.017031
L 192.85675 222.017031
L 192.85675 195.953031
" clip-path="url(#p2f26d099b0)" style="fill: #f0ddd7; stroke: #ffffff; stroke-width: 0.8"/>
    <path d="M 215.15875 195.953031
L 237.46075 195.953031
L 237.46075 222.017031
L 215.15875 222.017031
L 215.15875 195.953031
" clip-path="url(#p2f26d099b0)" style="fill: #f2e5e0; stroke: #ffffff; stroke-width: 0.8"/>
    <path d="M 237.46075 195.953031
L 259.76275 195.953031
L 259.76275 222.017031
L 237.46075 222.017031
L 237.46075 195.953031
" clip-path="url(#p2f26d099b0)" style="fill: #e2e9ed; stroke: #ffffff; stroke-width: 0.8"/>
    <path d="M 259.76275 195.953031
L 282.06475 195.953031
L 282.06475 222.017031
L 259.76275 222.017031
L 259.76275 195.953031
" clip-path="url(#p2f26d099b0)" style="fill: #dfe6ec; stroke: #ffffff; stroke-width: 0.8"/>
    <path d="M 103.64875 222.017031
L 125.95075 222.017031
L 125.95075 248.081031
L 103.64875 248.081031
L 103.64875 222.017031
" clip-path="url(#p2f26d099b0)" style="fill: #dce4ea; stroke: #ffffff; stroke-width: 0.8"/>
    <path d="M 125.95075 222.017031
L 148.25275 222.017031
L 148.25275 248.081031
L 125.95075 248.081031
L 125.95075 222.017031
" clip-path="url(#p2f26d099b0)" style="fill: #f6f4f1; stroke: #ffffff; stroke-width: 0.8"/>
    <path d="M 148.25275 222.017031
L 170.55475 222.017031
L 170.55475 248.081031
L 148.25275 248.081031
L 148.25275 222.017031
" clip-path="url(#p2f26d099b0)" style="fill: #d2dee7; stroke: #ffffff; stroke-width: 0.8"/>
    <path d="M 170.55475 222.017031
L 192.85675 222.017031
L 192.85675 248.081031
L 170.55475 248.081031
L 170.55475 222.017031
" clip-path="url(#p2f26d099b0)" style="fill: #d7e1e9; stroke: #ffffff; stroke-width: 0.8"/>
    <path d="M 192.85675 222.017031
L 215.15875 222.017031
L 215.15875 248.081031
L 192.85675 248.081031
L 192.85675 222.017031
" clip-path="url(#p2f26d099b0)" style="fill: #cddbe5; stroke: #ffffff; stroke-width: 0.8"/>
    <path d="M 215.15875 222.017031
L 237.46075 222.017031
L 237.46075 248.081031
L 215.15875 248.081031
L 215.15875 222.017031
" clip-path="url(#p2f26d099b0)" style="fill: #d2dee7; stroke: #ffffff; stroke-width: 0.8"/>
    <path d="M 237.46075 222.017031
L 259.76275 222.017031
L 259.76275 248.081031
L 237.46075 248.081031
L 237.46075 222.017031
" clip-path="url(#p2f26d099b0)" style="fill: #d4dfe7; stroke: #ffffff; stroke-width: 0.8"/>
    <path d="M 259.76275 222.017031
L 282.06475 222.017031
L 282.06475 248.081031
L 259.76275 248.081031
L 259.76275 222.017031
" clip-path="url(#p2f26d099b0)" style="fill: #d7e1e9; stroke: #ffffff; stroke-width: 0.8"/>
    <path d="M 103.64875 248.081031
L 125.95075 248.081031
L 125.95075 274.145031
L 103.64875 274.145031
L 103.64875 248.081031
" clip-path="url(#p2f26d099b0)" style="fill: #d7e1e9; stroke: #ffffff; stroke-width: 0.8"/>
    <path d="M 125.95075 248.081031
L 148.25275 248.081031
L 148.25275 274.145031
L 125.95075 274.145031
L 125.95075 248.081031
" clip-path="url(#p2f26d099b0)" style="fill: #95b4cf; stroke: #ffffff; stroke-width: 0.8"/>
    <path d="M 148.25275 248.081031
L 170.55475 248.081031
L 170.55475 274.145031
L 148.25275 274.145031
L 148.25275 248.081031
" clip-path="url(#p2f26d099b0)" style="fill: #e0e8ec; stroke: #ffffff; stroke-width: 0.8"/>
    <path d="M 170.55475 248.081031
L 192.85675 248.081031
L 192.85675 274.145031
L 170.55475 274.145031
L 170.55475 248.081031
" clip-path="url(#p2f26d099b0)" style="fill: #e2e9ed; stroke: #ffffff; stroke-width: 0.8"/>
    <path d="M 192.85675 248.081031
L 215.15875 248.081031
L 215.15875 274.145031
L 192.85675 274.145031
L 192.85675 248.081031
" clip-path="url(#p2f26d099b0)" style="fill: #e5ebee; stroke: #ffffff; stroke-width: 0.8"/>
    <path d="M 215.15875 248.081031
L 237.46075 248.081031
L 237.46075 274.145031
L 215.15875 274.145031
L 215.15875 248.081031
" clip-path="url(#p2f26d099b0)" style="fill: #eaeef0; stroke: #ffffff; stroke-width: 0.8"/>
    <path d="M 237.46075 248.081031
L 259.76275 248.081031
L 259.76275 274.145031
L 237.46075 274.145031
L 237.46075 248.081031
" clip-path="url(#p2f26d099b0)" style="fill: #e0e8ec; stroke: #ffffff; stroke-width: 0.8"/>
    <path d="M 259.76275 248.081031
L 282.06475 248.081031
L 282.06475 274.145031
L 259.76275 274.145031
L 259.76275 248.081031
" clip-path="url(#p2f26d099b0)" style="fill: #dfe6ec; stroke: #ffffff; stroke-width: 0.8"/>
    <path d="M 103.64875 274.145031
L 125.95075 274.145031
L 125.95075 300.209031
L 103.64875 300.209031
L 103.64875 274.145031
" clip-path="url(#p2f26d099b0)" style="fill: #d5e0e8; stroke: #ffffff; stroke-width: 0.8"/>
    <path d="M 125.95075 274.145031
L 148.25275 274.145031
L 148.25275 300.209031
L 125.95075 300.209031
L 125.95075 274.145031
" clip-path="url(#p2f26d099b0)" style="fill: #f2f3f3; stroke: #ffffff; stroke-width: 0.8"/>
    <path d="M 148.25275 274.145031
L 170.55475 274.145031
L 170.55475 300.209031
L 148.25275 300.209031
L 148.25275 274.145031
" clip-path="url(#p2f26d099b0)" style="fill: #d7e1e9; stroke: #ffffff; stroke-width: 0.8"/>
    <path d="M 170.55475 274.145031
L 192.85675 274.145031
L 192.85675 300.209031
L 170.55475 300.209031
L 170.55475 274.145031
" clip-path="url(#p2f26d099b0)" style="fill: #e0e8ec; stroke: #ffffff; stroke-width: 0.8"/>
    <path d="M 192.85675 274.145031
L 215.15875 274.145031
L 215.15875 300.209031
L 192.85675 300.209031
L 192.85675 274.145031
" clip-path="url(#p2f26d099b0)" style="fill: #c1d2e0; stroke: #ffffff; stroke-width: 0.8"/>
    <path d="M 215.15875 274.145031
L 237.46075 274.145031
L 237.46075 300.209031
L 215.15875 300.209031
L 215.15875 274.145031
" clip-path="url(#p2f26d099b0)" style="fill: #cad9e4; stroke: #ffffff; stroke-width: 0.8"/>
    <path d="M 237.46075 274.145031
L 259.76275 274.145031
L 259.76275 300.209031
L 237.46075 300.209031
L 237.46075 274.145031
" clip-path="url(#p2f26d099b0)" style="fill: #dae3ea; stroke: #ffffff; stroke-width: 0.8"/>
    <path d="M 259.76275 274.145031
L 282.06475 274.145031
L 282.06475 300.209031
L 259.76275 300.209031
L 259.76275 274.145031
" clip-path="url(#p2f26d099b0)" style="fill: #dce4ea; stroke: #ffffff; stroke-width: 0.8"/>
    <path d="M 103.64875 300.209031
L 125.95075 300.209031
L 125.95075 326.273031
L 103.64875 326.273031
L 103.64875 300.209031
" clip-path="url(#p2f26d099b0)" style="fill: #d2dee7; stroke: #ffffff; stroke-width: 0.8"/>
    <path d="M 125.95075 300.209031
L 148.25275 300.209031
L 148.25275 326.273031
L 125.95075 326.273031
L 125.95075 300.209031
" clip-path="url(#p2f26d099b0)" style="fill: #bccfde; stroke: #ffffff; stroke-width: 0.8"/>
    <path d="M 148.25275 300.209031
L 170.55475 300.209031
L 170.55475 326.273031
L 148.25275 326.273031
L 148.25275 300.209031
" clip-path="url(#p2f26d099b0)" style="fill: #bbcede; stroke: #ffffff; stroke-width: 0.8"/>
    <path d="M 170.55475 300.209031
L 192.85675 300.209031
L 192.85675 326.273031
L 170.55475 326.273031
L 170.55475 300.209031
" clip-path="url(#p2f26d099b0)" style="fill: #d2dee7; stroke: #ffffff; stroke-width: 0.8"/>
    <path d="M 192.85675 300.209031
L 215.15875 300.209031
L 215.15875 326.273031
L 192.85675 326.273031
L 192.85675 300.209031
" clip-path="url(#p2f26d099b0)" style="fill: #ccdae4; stroke: #ffffff; stroke-width: 0.8"/>
    <path d="M 215.15875 300.209031
L 237.46075 300.209031
L 237.46075 326.273031
L 215.15875 326.273031
L 215.15875 300.209031
" clip-path="url(#p2f26d099b0)" style="fill: #e2e9ed; stroke: #ffffff; stroke-width: 0.8"/>
    <path d="M 237.46075 300.209031
L 259.76275 300.209031
L 259.76275 326.273031
L 237.46075 326.273031
L 237.46075 300.209031
" clip-path="url(#p2f26d099b0)" style="fill: #e8edef; stroke: #ffffff; stroke-width: 0.8"/>
    <path d="M 259.76275 300.209031
L 282.06475 300.209031
L 282.06475 326.273031
L 259.76275 326.273031
L 259.76275 300.209031
" clip-path="url(#p2f26d099b0)" style="fill: #eaeef0; stroke: #ffffff; stroke-width: 0.8"/>
    <path d="M 103.64875 326.273031
L 125.95075 326.273031
L 125.95075 352.337031
L 103.64875 352.337031
L 103.64875 326.273031
" clip-path="url(#p2f26d099b0)" style="fill: #cad9e4; stroke: #ffffff; stroke-width: 0.8"/>
    <path d="M 125.95075 326.273031
L 148.25275 326.273031
L 148.25275 352.337031
L 125.95075 352.337031
L 125.95075 326.273031
" clip-path="url(#p2f26d099b0)" style="fill: #e7ecef; stroke: #ffffff; stroke-width: 0.8"/>
    <path d="M 148.25275 326.273031
L 170.55475 326.273031
L 170.55475 352.337031
L 148.25275 352.337031
L 148.25275 326.273031
" clip-path="url(#p2f26d099b0)" style="fill: #bed0df; stroke: #ffffff; stroke-width: 0.8"/>
    <path d="M 170.55475 326.273031
L 192.85675 326.273031
L 192.85675 352.337031
L 170.55475 352.337031
L 170.55475 326.273031
" clip-path="url(#p2f26d099b0)" style="fill: #bfd1e0; stroke: #ffffff; stroke-width: 0.8"/>
    <path d="M 192.85675 326.273031
L 215.15875 326.273031
L 215.15875 352.337031
L 192.85675 352.337031
L 192.85675 326.273031
" clip-path="url(#p2f26d099b0)" style="fill: #c2d3e1; stroke: #ffffff; stroke-width: 0.8"/>
    <path d="M 215.15875 326.273031
L 237.46075 326.273031
L 237.46075 352.337031
L 215.15875 352.337031
L 215.15875 326.273031
" clip-path="url(#p2f26d099b0)" style="fill: #c6d5e2; stroke: #ffffff; stroke-width: 0.8"/>
    <path d="M 237.46075 326.273031
L 259.76275 326.273031
L 259.76275 352.337031
L 237.46075 352.337031
L 237.46075 326.273031
" clip-path="url(#p2f26d099b0)" style="fill: #d5e0e8; stroke: #ffffff; stroke-width: 0.8"/>
    <path d="M 259.76275 326.273031
L 282.06475 326.273031
L 282.06475 352.337031
L 259.76275 352.337031
L 259.76275 326.273031
" clip-path="url(#p2f26d099b0)" style="fill: #dae3ea; stroke: #ffffff; stroke-width: 0.8"/>
    <path d="M 103.64875 352.337031
L 125.95075 352.337031
L 125.95075 378.401031
L 103.64875 378.401031
L 103.64875 352.337031
" clip-path="url(#p2f26d099b0)" style="fill: #c1d2e0; stroke: #ffffff; stroke-width: 0.8"/>
    <path d="M 125.95075 352.337031
L 148.25275 352.337031
L 148.25275 378.401031
L 125.95075 378.401031
L 125.95075 352.337031
" clip-path="url(#p2f26d099b0)" style="fill: #dde5eb; stroke: #ffffff; stroke-width: 0.8"/>
    <path d="M 148.25275 352.337031
L 170.55475 352.337031
L 170.55475 378.401031
L 148.25275 378.401031
L 148.25275 352.337031
" clip-path="url(#p2f26d099b0)" style="fill: #95b4cf; stroke: #ffffff; stroke-width: 0.8"/>
    <path d="M 170.55475 352.337031
L 192.85675 352.337031
L 192.85675 378.401031
L 170.55475 378.401031
L 170.55475 352.337031
" clip-path="url(#p2f26d099b0)" style="fill: #c6d5e2; stroke: #ffffff; stroke-width: 0.8"/>
    <path d="M 192.85675 352.337031
L 215.15875 352.337031
L 215.15875 378.401031
L 192.85675 378.401031
L 192.85675 352.337031
" clip-path="url(#p2f26d099b0)" style="fill: #cad9e4; stroke: #ffffff; stroke-width: 0.8"/>
    <path d="M 215.15875 352.337031
L 237.46075 352.337031
L 237.46075 378.401031
L 215.15875 378.401031
L 215.15875 352.337031
" clip-path="url(#p2f26d099b0)" style="fill: #cfdce6; stroke: #ffffff; stroke-width: 0.8"/>
    <path d="M 237.46075 352.337031
L 259.76275 352.337031
L 259.76275 378.401031
L 237.46075 378.401031
L 237.46075 352.337031
" clip-path="url(#p2f26d099b0)" style="fill: #b7ccdd; stroke: #ffffff; stroke-width: 0.8"/>
    <path d="M 259.76275 352.337031
L 282.06475 352.337031
L 282.06475 378.401031
L 259.76275 378.401031
L 259.76275 352.337031
" clip-path="url(#p2f26d099b0)" style="fill: #b3c9db; stroke: #ffffff; stroke-width: 0.8"/>
    <path d="M 103.64875 378.401031
L 125.95075 378.401031
L 125.95075 404.465031
L 103.64875 404.465031
L 103.64875 378.401031
" clip-path="url(#p2f26d099b0)" style="fill: #c1d2e0; stroke: #ffffff; stroke-width: 0.8"/>
    <path d="M 125.95075 378.401031
L 148.25275 378.401031
L 148.25275 404.465031
L 125.95075 404.465031
L 125.95075 378.401031
" clip-path="url(#p2f26d099b0)" style="fill: #8fb0cd; stroke: #ffffff; stroke-width: 0.8"/>
    <path d="M 148.25275 378.401031
L 170.55475 378.401031
L 170.55475 404.465031
L 148.25275 404.465031
L 148.25275 378.401031
" clip-path="url(#p2f26d099b0)" style="fill: #b9cddd; stroke: #ffffff; stroke-width: 0.8"/>
    <path d="M 170.55475 378.401031
L 192.85675 378.401031
L 192.85675 404.465031
L 170.55475 404.465031
L 170.55475 378.401031
" clip-path="url(#p2f26d099b0)" style="fill: #c2d3e1; stroke: #ffffff; stroke-width: 0.8"/>
    <path d="M 192.85675 378.401031
L 215.15875 378.401031
L 215.15875 404.465031
L 192.85675 404.465031
L 192.85675 378.401031
" clip-path="url(#p2f26d099b0)" style="fill: #cad9e4; stroke: #ffffff; stroke-width: 0.8"/>
    <path d="M 215.15875 378.401031
L 237.46075 378.401031
L 237.46075 404.465031
L 215.15875 404.465031
L 215.15875 378.401031
" clip-path="url(#p2f26d099b0)" style="fill: #d1dde6; stroke: #ffffff; stroke-width: 0.8"/>
    <path d="M 237.46075 378.401031
L 259.76275 378.401031
L 259.76275 404.465031
L 237.46075 404.465031
L 237.46075 378.401031
" clip-path="url(#p2f26d099b0)" style="fill: #d7e1e9; stroke: #ffffff; stroke-width: 0.8"/>
    <path d="M 259.76275 378.401031
L 282.06475 378.401031
L 282.06475 404.465031
L 259.76275 404.465031
L 259.76275 378.401031
" clip-path="url(#p2f26d099b0)" style="fill: #dae3ea; stroke: #ffffff; stroke-width: 0.8"/>
    <path d="M 103.64875 404.465031
L 125.95075 404.465031
L 125.95075 430.529031
L 103.64875 430.529031
L 103.64875 404.465031
" clip-path="url(#p2f26d099b0)" style="fill: #c1d2e0; stroke: #ffffff; stroke-width: 0.8"/>
    <path d="M 125.95075 404.465031
L 148.25275 404.465031
L 148.25275 430.529031
L 125.95075 430.529031
L 125.95075 404.465031
" clip-path="url(#p2f26d099b0)" style="fill: #c4d4e1; stroke: #ffffff; stroke-width: 0.8"/>
    <path d="M 148.25275 404.465031
L 170.55475 404.465031
L 170.55475 430.529031
L 148.25275 430.529031
L 148.25275 404.465031
" clip-path="url(#p2f26d099b0)" style="fill: #bed0df; stroke: #ffffff; stroke-width: 0.8"/>
    <path d="M 170.55475 404.465031
L 192.85675 404.465031
L 192.85675 430.529031
L 170.55475 430.529031
L 170.55475 404.465031
" clip-path="url(#p2f26d099b0)" style="fill: #c9d8e3; stroke: #ffffff; stroke-width: 0.8"/>
    <path d="M 192.85675 404.465031
L 215.15875 404.465031
L 215.15875 430.529031
L 192.85675 430.529031
L 192.85675 404.465031
" clip-path="url(#p2f26d099b0)" style="fill: #bfd1e0; stroke: #ffffff; stroke-width: 0.8"/>
    <path d="M 215.15875 404.465031
L 237.46075 404.465031
L 237.46075 430.529031
L 215.15875 430.529031
L 215.15875 404.465031
" clip-path="url(#p2f26d099b0)" style="fill: #c1d2e0; stroke: #ffffff; stroke-width: 0.8"/>
    <path d="M 237.46075 404.465031
L 259.76275 404.465031
L 259.76275 430.529031
L 237.46075 430.529031
L 237.46075 404.465031
" clip-path="url(#p2f26d099b0)" style="fill: #bfd1e0; stroke: #ffffff; stroke-width: 0.8"/>
    <path d="M 259.76275 404.465031
L 282.06475 404.465031
L 282.06475 430.529031
L 259.76275 430.529031
L 259.76275 404.465031
" clip-path="url(#p2f26d099b0)" style="fill: #bfd1e0; stroke: #ffffff; stroke-width: 0.8"/>
    <path d="M 103.64875 430.529031
L 125.95075 430.529031
L 125.95075 456.593031
L 103.64875 456.593031
L 103.64875 430.529031
" clip-path="url(#p2f26d099b0)" style="fill: #bbcede; stroke: #ffffff; stroke-width: 0.8"/>
    <path d="M 125.95075 430.529031
L 148.25275 430.529031
L 148.25275 456.593031
L 125.95075 456.593031
L 125.95075 430.529031
" clip-path="url(#p2f26d099b0)" style="fill: #9ab8d1; stroke: #ffffff; stroke-width: 0.8"/>
    <path d="M 148.25275 430.529031
L 170.55475 430.529031
L 170.55475 456.593031
L 148.25275 456.593031
L 148.25275 430.529031
" clip-path="url(#p2f26d099b0)" style="fill: #c2d3e1; stroke: #ffffff; stroke-width: 0.8"/>
    <path d="M 170.55475 430.529031
L 192.85675 430.529031
L 192.85675 456.593031
L 170.55475 456.593031
L 170.55475 430.529031
" clip-path="url(#p2f26d099b0)" style="fill: #c4d4e1; stroke: #ffffff; stroke-width: 0.8"/>
    <path d="M 192.85675 430.529031
L 215.15875 430.529031
L 215.15875 456.593031
L 192.85675 456.593031
L 192.85675 430.529031
" clip-path="url(#p2f26d099b0)" style="fill: #bed0df; stroke: #ffffff; stroke-width: 0.8"/>
    <path d="M 215.15875 430.529031
L 237.46075 430.529031
L 237.46075 456.593031
L 215.15875 456.593031
L 215.15875 430.529031
" clip-path="url(#p2f26d099b0)" style="fill: #bfd1e0; stroke: #ffffff; stroke-width: 0.8"/>
    <path d="M 237.46075 430.529031
L 259.76275 430.529031
L 259.76275 456.593031
L 237.46075 456.593031
L 237.46075 430.529031
" clip-path="url(#p2f26d099b0)" style="fill: #b3c9db; stroke: #ffffff; stroke-width: 0.8"/>
    <path d="M 259.76275 430.529031
L 282.06475 430.529031
L 282.06475 456.593031
L 259.76275 456.593031
L 259.76275 430.529031
" clip-path="url(#p2f26d099b0)" style="fill: #b6cbdc; stroke: #ffffff; stroke-width: 0.8"/>
    <path d="M 103.64875 456.593031
L 125.95075 456.593031
L 125.95075 482.657031
L 103.64875 482.657031
L 103.64875 456.593031
" clip-path="url(#p2f26d099b0)" style="fill: #b6cbdc; stroke: #ffffff; stroke-width: 0.8"/>
    <path d="M 125.95075 456.593031
L 148.25275 456.593031
L 148.25275 482.657031
L 125.95075 482.657031
L 125.95075 456.593031
" clip-path="url(#p2f26d099b0)" style="fill: #437db0; stroke: #ffffff; stroke-width: 0.8"/>
    <path d="M 148.25275 456.593031
L 170.55475 456.593031
L 170.55475 482.657031
L 148.25275 482.657031
L 148.25275 456.593031
" clip-path="url(#p2f26d099b0)" style="fill: #bfd1e0; stroke: #ffffff; stroke-width: 0.8"/>
    <path d="M 170.55475 456.593031
L 192.85675 456.593031
L 192.85675 482.657031
L 170.55475 482.657031
L 170.55475 456.593031
" clip-path="url(#p2f26d099b0)" style="fill: #a9c2d7; stroke: #ffffff; stroke-width: 0.8"/>
    <path d="M 192.85675 456.593031
L 215.15875 456.593031
L 215.15875 482.657031
L 192.85675 482.657031
L 192.85675 456.593031
" clip-path="url(#p2f26d099b0)" style="fill: #c7d6e3; stroke: #ffffff; stroke-width: 0.8"/>
    <path d="M 215.15875 456.593031
L 237.46075 456.593031
L 237.46075 482.657031
L 215.15875 482.657031
L 215.15875 456.593031
" clip-path="url(#p2f26d099b0)" style="fill: #c6d5e2; stroke: #ffffff; stroke-width: 0.8"/>
    <path d="M 237.46075 456.593031
L 259.76275 456.593031
L 259.76275 482.657031
L 237.46075 482.657031
L 237.46075 456.593031
" clip-path="url(#p2f26d099b0)" style="fill: #c9d8e3; stroke: #ffffff; stroke-width: 0.8"/>
    <path d="M 259.76275 456.593031
L 282.06475 456.593031
L 282.06475 482.657031
L 259.76275 482.657031
L 259.76275 456.593031
" clip-path="url(#p2f26d099b0)" style="fill: #c4d4e1; stroke: #ffffff; stroke-width: 0.8"/>
    <path d="M 103.64875 482.657031
L 125.95075 482.657031
L 125.95075 508.721031
L 103.64875 508.721031
L 103.64875 482.657031
" clip-path="url(#p2f26d099b0)" style="fill: #b3c9db; stroke: #ffffff; stroke-width: 0.8"/>
    <path d="M 125.95075 482.657031
L 148.25275 482.657031
L 148.25275 508.721031
L 125.95075 508.721031
L 125.95075 482.657031
" clip-path="url(#p2f26d099b0)" style="fill: #3774ab; stroke: #ffffff; stroke-width: 0.8"/>
    <path d="M 148.25275 482.657031
L 170.55475 482.657031
L 170.55475 508.721031
L 148.25275 508.721031
L 148.25275 482.657031
" clip-path="url(#p2f26d099b0)" style="fill: #749ec3; stroke: #ffffff; stroke-width: 0.8"/>
    <path d="M 170.55475 482.657031
L 192.85675 482.657031
L 192.85675 508.721031
L 170.55475 508.721031
L 170.55475 482.657031
" clip-path="url(#p2f26d099b0)" style="fill: #b4cadb; stroke: #ffffff; stroke-width: 0.8"/>
    <path d="M 192.85675 482.657031
L 215.15875 482.657031
L 215.15875 508.721031
L 192.85675 508.721031
L 192.85675 482.657031
" clip-path="url(#p2f26d099b0)" style="fill: #d1dde6; stroke: #ffffff; stroke-width: 0.8"/>
    <path d="M 215.15875 482.657031
L 237.46075 482.657031
L 237.46075 508.721031
L 215.15875 508.721031
L 215.15875 482.657031
" clip-path="url(#p2f26d099b0)" style="fill: #e3eaed; stroke: #ffffff; stroke-width: 0.8"/>
    <path d="M 237.46075 482.657031
L 259.76275 482.657031
L 259.76275 508.721031
L 237.46075 508.721031
L 237.46075 482.657031
" clip-path="url(#p2f26d099b0)" style="fill: #f0f2f2; stroke: #ffffff; stroke-width: 0.8"/>
    <path d="M 259.76275 482.657031
L 282.06475 482.657031
L 282.06475 508.721031
L 259.76275 508.721031
L 259.76275 482.657031
" clip-path="url(#p2f26d099b0)" style="fill: #f2f3f3; stroke: #ffffff; stroke-width: 0.8"/>
    <path d="M 103.64875 508.721031
L 125.95075 508.721031
L 125.95075 534.785031
L 103.64875 534.785031
L 103.64875 508.721031
" clip-path="url(#p2f26d099b0)" style="fill: #87abca; stroke: #ffffff; stroke-width: 0.8"/>
    <path d="M 125.95075 508.721031
L 148.25275 508.721031
L 148.25275 534.785031
L 125.95075 534.785031
L 125.95075 508.721031
" clip-path="url(#p2f26d099b0)" style="fill: #98b6d0; stroke: #ffffff; stroke-width: 0.8"/>
    <path d="M 148.25275 508.721031
L 170.55475 508.721031
L 170.55475 534.785031
L 148.25275 534.785031
L 148.25275 508.721031
" clip-path="url(#p2f26d099b0)" style="fill: #b6cbdc; stroke: #ffffff; stroke-width: 0.8"/>
    <path d="M 170.55475 508.721031
L 192.85675 508.721031
L 192.85675 534.785031
L 170.55475 534.785031
L 170.55475 508.721031
" clip-path="url(#p2f26d099b0)" style="fill: #8caecc; stroke: #ffffff; stroke-width: 0.8"/>
    <path d="M 192.85675 508.721031
L 215.15875 508.721031
L 215.15875 534.785031
L 192.85675 534.785031
L 192.85675 508.721031
" clip-path="url(#p2f26d099b0)" style="fill: #7ca3c6; stroke: #ffffff; stroke-width: 0.8"/>
    <path d="M 215.15875 508.721031
L 237.46075 508.721031
L 237.46075 534.785031
L 215.15875 534.785031
L 215.15875 508.721031
" clip-path="url(#p2f26d099b0)" style="fill: #7ca3c6; stroke: #ffffff; stroke-width: 0.8"/>
    <path d="M 237.46075 508.721031
L 259.76275 508.721031
L 259.76275 534.785031
L 237.46075 534.785031
L 237.46075 508.721031
" clip-path="url(#p2f26d099b0)" style="fill: #6b98bf; stroke: #ffffff; stroke-width: 0.8"/>
    <path d="M 259.76275 508.721031
L 282.06475 508.721031
L 282.06475 534.785031
L 259.76275 534.785031
L 259.76275 508.721031
" clip-path="url(#p2f26d099b0)" style="fill: #6694bd; stroke: #ffffff; stroke-width: 0.8"/>
   </g>
   <g id="matplotlib.axis_1">
    <g id="xtick_1">
     <g id="line2d_1"/>
     <g id="text_1">
      <text style="fill: #66737e; font: 7.3px 'DejaVu Sans'; text-anchor: middle" x="114.79975" y="6.986859" transform="rotate(-0 114.79975 6.986859)">avg</text>
     </g>
    </g>
    <g id="xtick_2">
     <g id="line2d_2"/>
     <g id="text_2">
      <text style="fill: #66737e; font: 7.3px 'DejaVu Sans'; text-anchor: middle" x="137.10175" y="6.986859" transform="rotate(-0 137.10175 6.986859)">1998</text>
     </g>
    </g>
    <g id="xtick_3">
     <g id="line2d_3"/>
     <g id="text_3">
      <text style="fill: #66737e; font: 7.3px 'DejaVu Sans'; text-anchor: middle" x="159.40375" y="6.986859" transform="rotate(-0 159.40375 6.986859)">2003</text>
     </g>
    </g>
    <g id="xtick_4">
     <g id="line2d_4"/>
     <g id="text_4">
      <text style="fill: #66737e; font: 7.3px 'DejaVu Sans'; text-anchor: middle" x="181.70575" y="6.986859" transform="rotate(-0 181.70575 6.986859)">2008</text>
     </g>
    </g>
    <g id="xtick_5">
     <g id="line2d_5"/>
     <g id="text_5">
      <text style="fill: #66737e; font: 7.3px 'DejaVu Sans'; text-anchor: middle" x="204.00775" y="6.986859" transform="rotate(-0 204.00775 6.986859)">2013</text>
     </g>
    </g>
    <g id="xtick_6">
     <g id="line2d_6"/>
     <g id="text_6">
      <text style="fill: #66737e; font: 7.3px 'DejaVu Sans'; text-anchor: middle" x="226.30975" y="6.986859" transform="rotate(-0 226.30975 6.986859)">2017</text>
     </g>
    </g>
    <g id="xtick_7">
     <g id="line2d_7"/>
     <g id="text_7">
      <text style="fill: #66737e; font: 7.3px 'DejaVu Sans'; text-anchor: middle" x="248.61175" y="6.986859" transform="rotate(-0 248.61175 6.986859)">2022</text>
     </g>
    </g>
    <g id="xtick_8">
     <g id="line2d_8"/>
     <g id="text_8">
      <text style="fill: #66737e; font: 7.3px 'DejaVu Sans'; text-anchor: middle" x="270.91375" y="6.986859" transform="rotate(-0 270.91375 6.986859)">2024</text>
     </g>
    </g>
    <g id="text_9">
     <text style="fill: #66737e; font: 8.2px 'DejaVu Sans'; text-anchor: middle" x="192.85675" y="551.01575" transform="rotate(-0 192.85675 551.01575)">Selected walk-forward test folds</text>
    </g>
   </g>
   <g id="matplotlib.axis_2">
    <g id="ytick_1">
     <g id="line2d_9"/>
     <g id="text_10">
      <text style="fill: #66737e; font: 7.6px 'DejaVu Sans'; text-anchor: end" x="98.64875" y="29.424437" transform="rotate(-0 98.64875 29.424437)">Market cap · 21d high</text>
     </g>
    </g>
    <g id="ytick_2">
     <g id="line2d_10"/>
     <g id="text_11">
      <text style="fill: #66737e; font: 7.6px 'DejaVu Sans'; text-anchor: end" x="98.64875" y="55.488437" transform="rotate(-0 98.64875 55.488437)">Market cap · 63d high</text>
     </g>
    </g>
    <g id="ytick_3">
     <g id="line2d_11"/>
     <g id="text_12">
      <text style="fill: #66737e; font: 7.6px 'DejaVu Sans'; text-anchor: end" x="98.64875" y="81.552437" transform="rotate(-0 98.64875 81.552437)">Return / volatility · 21d</text>
     </g>
    </g>
    <g id="ytick_4">
     <g id="line2d_12"/>
     <g id="text_13">
      <text style="fill: #66737e; font: 7.6px 'DejaVu Sans'; text-anchor: end" x="98.64875" y="107.616437" transform="rotate(-0 98.64875 107.616437)">Volume · 126d mean</text>
     </g>
    </g>
    <g id="ytick_5">
     <g id="line2d_13"/>
     <g id="text_14">
      <text style="fill: #66737e; font: 7.6px 'DejaVu Sans'; text-anchor: end" x="98.64875" y="133.680437" transform="rotate(-0 98.64875 133.680437)">Market cap · 252d mean</text>
     </g>
    </g>
    <g id="ytick_6">
     <g id="line2d_14"/>
     <g id="text_15">
      <text style="fill: #66737e; font: 7.6px 'DejaVu Sans'; text-anchor: end" x="98.64875" y="159.744437" transform="rotate(-0 98.64875 159.744437)">Return / volatility · 10d</text>
     </g>
    </g>
    <g id="ytick_7">
     <g id="line2d_15"/>
     <g id="text_16">
      <text style="fill: #66737e; font: 7.6px 'DejaVu Sans'; text-anchor: end" x="98.64875" y="185.808437" transform="rotate(-0 98.64875 185.808437)">Market cap · current</text>
     </g>
    </g>
    <g id="ytick_8">
     <g id="line2d_16"/>
     <g id="text_17">
      <text style="fill: #66737e; font: 7.6px 'DejaVu Sans'; text-anchor: end" x="98.64875" y="211.872437" transform="rotate(-0 98.64875 211.872437)">Market cap · 126d mean</text>
     </g>
    </g>
    <g id="ytick_9">
     <g id="line2d_17"/>
     <g id="text_18">
      <text style="fill: #66737e; font: 7.6px 'DejaVu Sans'; text-anchor: end" x="98.64875" y="237.936437" transform="rotate(-0 98.64875 237.936437)">Return / volatility · 126d</text>
     </g>
    </g>
    <g id="ytick_10">
     <g id="line2d_18"/>
     <g id="text_19">
      <text style="fill: #66737e; font: 7.6px 'DejaVu Sans'; text-anchor: end" x="98.64875" y="264.000437" transform="rotate(-0 98.64875 264.000437)">RSI · 21d</text>
     </g>
    </g>
    <g id="ytick_11">
     <g id="line2d_19"/>
     <g id="text_20">
      <text style="fill: #66737e; font: 7.6px 'DejaVu Sans'; text-anchor: end" x="98.64875" y="290.064437" transform="rotate(-0 98.64875 290.064437)">Market cap · 252d high</text>
     </g>
    </g>
    <g id="ytick_12">
     <g id="line2d_20"/>
     <g id="text_21">
      <text style="fill: #66737e; font: 7.6px 'DejaVu Sans'; text-anchor: end" x="98.64875" y="316.128437" transform="rotate(-0 98.64875 316.128437)">Volatility · 21d</text>
     </g>
    </g>
    <g id="ytick_13">
     <g id="line2d_21"/>
     <g id="text_22">
      <text style="fill: #66737e; font: 7.6px 'DejaVu Sans'; text-anchor: end" x="98.64875" y="342.192437" transform="rotate(-0 98.64875 342.192437)">Return · 252d</text>
     </g>
    </g>
    <g id="ytick_14">
     <g id="line2d_22"/>
     <g id="text_23">
      <text style="fill: #66737e; font: 7.6px 'DejaVu Sans'; text-anchor: end" x="98.64875" y="368.256437" transform="rotate(-0 98.64875 368.256437)">Market cap · 21d low</text>
     </g>
    </g>
    <g id="ytick_15">
     <g id="line2d_23"/>
     <g id="text_24">
      <text style="fill: #66737e; font: 7.6px 'DejaVu Sans'; text-anchor: end" x="98.64875" y="394.320437" transform="rotate(-0 98.64875 394.320437)">RSI · 10d</text>
     </g>
    </g>
    <g id="ytick_16">
     <g id="line2d_24"/>
     <g id="text_25">
      <text style="fill: #66737e; font: 7.6px 'DejaVu Sans'; text-anchor: end" x="98.64875" y="420.384437" transform="rotate(-0 98.64875 420.384437)">Volume · 21d mean</text>
     </g>
    </g>
    <g id="ytick_17">
     <g id="line2d_25"/>
     <g id="text_26">
      <text style="fill: #66737e; font: 7.6px 'DejaVu Sans'; text-anchor: end" x="98.64875" y="446.448437" transform="rotate(-0 98.64875 446.448437)">Price / moving avg · 126d</text>
     </g>
    </g>
    <g id="ytick_18">
     <g id="line2d_26"/>
     <g id="text_27">
      <text style="fill: #66737e; font: 7.6px 'DejaVu Sans'; text-anchor: end" x="98.64875" y="472.512437" transform="rotate(-0 98.64875 472.512437)">Market cap · 126d high</text>
     </g>
    </g>
    <g id="ytick_19">
     <g id="line2d_27"/>
     <g id="text_28">
      <text style="fill: #66737e; font: 7.6px 'DejaVu Sans'; text-anchor: end" x="98.64875" y="498.576437" transform="rotate(-0 98.64875 498.576437)">Market cap · 63d mean</text>
     </g>
    </g>
    <g id="ytick_20">
     <g id="line2d_28"/>
     <g id="text_29">
      <text style="fill: #66737e; font: 7.6px 'DejaVu Sans'; text-anchor: end" x="98.64875" y="524.640437" transform="rotate(-0 98.64875 524.640437)">Market cap · 21d mean</text>
     </g>
    </g>
   </g>
   <g id="line2d_29">
    <path d="M 125.95075 534.785031
L 125.95075 13.505031
" clip-path="url(#p2f26d099b0)" style="fill: none; stroke: #b8c2c9; stroke-linecap: square"/>
   </g>
   <g id="text_30">
    <text style="fill: #ffffff; font: 700 7.2px 'DejaVu Sans'; text-anchor: middle" x="114.79975" y="28.523781" transform="rotate(-0 114.79975 28.523781)">-0.133</text>
   </g>
   <g id="text_31">
    <text style="fill: #2e3a45; font: 700 7.2px 'DejaVu Sans'; text-anchor: middle" x="114.79975" y="54.587781" transform="rotate(-0 114.79975 54.587781)">-0.068</text>
   </g>
   <g id="text_32">
    <text style="fill: #2e3a45; font: 700 7.2px 'DejaVu Sans'; text-anchor: middle" x="114.79975" y="80.651781" transform="rotate(-0 114.79975 80.651781)">-0.046</text>
   </g>
   <g id="text_33">
    <text style="fill: #2e3a45; font: 700 7.2px 'DejaVu Sans'; text-anchor: middle" x="114.79975" y="106.715781" transform="rotate(-0 114.79975 106.715781)">-0.046</text>
   </g>
   <g id="text_34">
    <text style="fill: #2e3a45; font: 700 7.2px 'DejaVu Sans'; text-anchor: middle" x="114.79975" y="132.779781" transform="rotate(-0 114.79975 132.779781)">-0.045</text>
   </g>
   <g id="text_35">
    <text style="fill: #2e3a45; font: 700 7.2px 'DejaVu Sans'; text-anchor: middle" x="114.79975" y="158.843781" transform="rotate(-0 114.79975 158.843781)">-0.042</text>
   </g>
   <g id="text_36">
    <text style="fill: #2e3a45; font: 700 7.2px 'DejaVu Sans'; text-anchor: middle" x="114.79975" y="184.907781" transform="rotate(-0 114.79975 184.907781)">-0.034</text>
   </g>
   <g id="text_37">
    <text style="fill: #2e3a45; font: 700 7.2px 'DejaVu Sans'; text-anchor: middle" x="114.79975" y="210.971781" transform="rotate(-0 114.79975 210.971781)">-0.032</text>
   </g>
   <g id="text_38">
    <text style="fill: #2e3a45; font: 700 7.2px 'DejaVu Sans'; text-anchor: middle" x="114.79975" y="237.035781" transform="rotate(-0 114.79975 237.035781)">+0.029</text>
   </g>
   <g id="text_39">
    <text style="fill: #2e3a45; font: 700 7.2px 'DejaVu Sans'; text-anchor: middle" x="114.79975" y="263.099781" transform="rotate(-0 114.79975 263.099781)">+0.034</text>
   </g>
   <g id="text_40">
    <text style="fill: #2e3a45; font: 700 7.2px 'DejaVu Sans'; text-anchor: middle" x="114.79975" y="289.163781" transform="rotate(-0 114.79975 289.163781)">+0.035</text>
   </g>
   <g id="text_41">
    <text style="fill: #2e3a45; font: 700 7.2px 'DejaVu Sans'; text-anchor: middle" x="114.79975" y="315.227781" transform="rotate(-0 114.79975 315.227781)">+0.040</text>
   </g>
   <g id="text_42">
    <text style="fill: #2e3a45; font: 700 7.2px 'DejaVu Sans'; text-anchor: middle" x="114.79975" y="341.291781" transform="rotate(-0 114.79975 341.291781)">+0.047</text>
   </g>
   <g id="text_43">
    <text style="fill: #2e3a45; font: 700 7.2px 'DejaVu Sans'; text-anchor: middle" x="114.79975" y="367.355781" transform="rotate(-0 114.79975 367.355781)">+0.056</text>
   </g>
   <g id="text_44">
    <text style="fill: #2e3a45; font: 700 7.2px 'DejaVu Sans'; text-anchor: middle" x="114.79975" y="393.419781" transform="rotate(-0 114.79975 393.419781)">+0.057</text>
   </g>
   <g id="text_45">
    <text style="fill: #2e3a45; font: 700 7.2px 'DejaVu Sans'; text-anchor: middle" x="114.79975" y="419.483781" transform="rotate(-0 114.79975 419.483781)">+0.057</text>
   </g>
   <g id="text_46">
    <text style="fill: #2e3a45; font: 700 7.2px 'DejaVu Sans'; text-anchor: middle" x="114.79975" y="445.547781" transform="rotate(-0 114.79975 445.547781)">+0.064</text>
   </g>
   <g id="text_47">
    <text style="fill: #2e3a45; font: 700 7.2px 'DejaVu Sans'; text-anchor: middle" x="114.79975" y="471.611781" transform="rotate(-0 114.79975 471.611781)">+0.069</text>
   </g>
   <g id="text_48">
    <text style="fill: #2e3a45; font: 700 7.2px 'DejaVu Sans'; text-anchor: middle" x="114.79975" y="497.675781" transform="rotate(-0 114.79975 497.675781)">+0.072</text>
   </g>
   <g id="text_49">
    <text style="fill: #ffffff; font: 700 7.2px 'DejaVu Sans'; text-anchor: middle" x="114.79975" y="523.739781" transform="rotate(-0 114.79975 523.739781)">+0.118</text>
   </g>
  </g>
 </g>
 <defs>
  <clipPath id="p2f26d099b0">
   <rect x="103.64875" y="13.505031" width="178.416" height="521.28"/>
  </clipPath>
 </defs>
</svg>
